Medium-Italic.sfdir
StartChar: exclam
Encoding: 33 33 1
Width: 319
Flags: MW
LayerCount: 2
Fore
SplineSet
244.307617188 722 m 1xe0
 328.307617188 722 l 1xe0
 222.857421875 175 l 1
 155.857421875 175 l 1xd0
 236.315429688 671 l 1
 244.307617188 722 l 1xe0
EndSplineSet
Refer: 14 46 S 1 0 0 1 21 0 2
EndChar
StartChar: quotedbl
Encoding: 34 34 2
Width: 500
Flags: MW
LayerCount: 2
Fore
SplineSet
253.307617188 722 m 1
 331.307617188 722 l 1xc0
 259.830078125 362 l 1
 259.830078125 362 l 1xa0
 198.830078125 362 l 1xa0
 253.307617188 722 l 1
421.307617188 722 m 1
 499.307617188 722 l 1x90
 426.830078125 362 l 1
 365.830078125 362 l 1x88
 365.830078125 362 l 1x88
 421.307617188 722 l 1
EndSplineSet
EndChar
StartChar: numbersign
Encoding: 35 35 3
Width: 833
Flags: MW
LayerCount: 2
Fore
SplineSet
82 150 m 0
 83 158 89 169 100 175 c 0
 107 178 114 180 125 180 c 2
 290 180 l 1
 347 320 l 1
 147 320 l 2
 137 320 129 322 125 326 c 0
 115 333 117 345 118 350 c 0
 119 358 123 367 132 373 c 0
 139 378 148 381 163 381 c 2
 374 381 l 1
 502 683 l 2
 504 688 510 704 522 714 c 0
 528 719 534 722 543 722 c 0
 559 722 570 708 568 693 c 0
 567 685 563 677 560 670 c 2
 437 381 l 1
 594 381 l 1
 721 683 l 2
 723 688 729 703 740 713 c 0
 746 718 753 722 762 722 c 0
 779 722 790 708 787 692 c 1
 787 685 782 677 780 670 c 2
 657 381 l 1
 793 381 l 2
 811 380 821 381 829 375 c 0
 836 369 840 360 838 350 c 0
 837 343 833 334 824 328 c 0
 817 324 808 320 795 320 c 2
 630 320 l 1
 572 180 l 1
 773 180 l 2
 785 180 792 177 796 172 c 0
 803 165 803 154 802 150 c 0
 801 142 797 132 786 126 c 0
 779 122 770 119 757 119 c 2
 546 119 l 1
 418 -183 l 2
 416 -188 410 -204 398 -214 c 0
 392 -219 386 -222 377 -222 c 0
 361 -222 349 -208 352 -192 c 0
 353 -185 357 -177 360 -170 c 2
 482 119 l 1
 326 119 l 1
 198 -183 l 2
 196 -189 190 -207 176 -216 c 0
 170 -220 165 -222 157 -222 c 0
 141 -222 130 -208 132 -192 c 0
 133 -185 138 -177 140 -170 c 2
 263 119 l 1
 126 119 l 2
 116 119 102 119 92 124 c 0
 85 128 80 136 82 150 c 0
353 180 m 1
 509 180 l 1
 567 320 l 1
 411 320 l 1
 353 180 l 1
EndSplineSet
EndChar
StartChar: dollar
Encoding: 36 36 4
Width: 500
Flags: MW
LayerCount: 2
Fore
SplineSet
54.755859375 61 m 1
 78.9228515625 130 l 1
 96.1015625 114 131.342773438 70 229.698242188 55 c 1
 279.421875 337 l 1
 278.421875 337 l 1
 161.359375 365 135.934570312 459 149.158203125 534 c 0
 163.6171875 616 231.192382812 710 348.895507812 731 c 1
 352.245117188 750 l 1
 411.245117188 750 l 1
 408.071289062 732 l 1
 467.013671875 726 502.368164062 711 546.020507812 675 c 1
 522.3828125 609 l 1
 482.5546875 644 451.728515625 662 396.610351562 667 c 1
 351.999023438 414 l 1
 476.533203125 383 491.490234375 275 478.793945312 203 c 0
 459.927734375 96 373.234375 7 277.58984375 -8 c 1
 274.0625 -28 l 1
 215.0625 -28 l 1
 218.236328125 -10 l 1
 162.294921875 -4 105.64453125 15 54.755859375 61 c 1
224.451171875 547 m 0
 216.869140625 504 230.170898438 449 295.8203125 430 c 1
 337.2578125 665 l 1
 336.2578125 665 l 1
 261.202148438 642 231.50390625 587 224.451171875 547 c 0
289.2265625 58 m 1
 366.282226562 81 396.096679688 148 403.501953125 190 c 0
 411.083984375 233 405.192382812 296 335.77734375 322 c 1
 329.782226562 288 l 1
 289.2265625 58 l 1
EndSplineSet
EndChar
StartChar: percent
Encoding: 37 37 5
Width: 833
Flags: MW
LayerCount: 2
Fore
SplineSet
153 556 m 0
 164 616 193 670 230 706 c 0
 259 733 293 750 327 750 c 0
 357 750 385 735 406 706 c 0
 429 673 443 622 431 555 c 0
 421 496 392 443 357 408 c 0
 328 379 293 361 259 361 c 0
 226 361 196 379 175 410 c 0
 153 444 142 494 153 556 c 0
228 556 m 0
 219 506 221 475 229 456 c 0
 242 421 270 424 273 423 c 1
 291 425 310 440 327 466 c 0
 342 489 354 519 361 556 c 0
 369 601 365 637 354 660 c 0
 345 679 331 689 316 689 c 0
 302 689 284 682 267 660 c 0
 254 644 243 620 234 586 c 0
 231 577 230 567 228 556 c 0
175 -7 m 0
 176 1 185 11 187 13 c 1
 750 737 l 2
 754 742 762 749 771 749 c 0
 781 749 789 741 787 730 c 0
 785 721 775 710 770 702 c 2
 220 -5 l 2
 212 -14 204 -27 191 -27 c 0
 180 -27 173 -18 175 -7 c 0
528 167 m 0
 538 222 564 272 597 308 c 0
 628 341 666 361 703 361 c 0
 736 361 764 345 782 318 c 0
 803 288 812 246 810 198 c 0
 809 188 808 177 806 166 c 0
 796 112 772 63 741 28 c 0
 710 -7 672 -28 634 -28 c 0
 597 -28 564 -6 544 32 c 0
 526 66 518 112 528 167 c 0
603 167 m 0
 593 109 598 76 608 58 c 0
 622 32 646 35 648 34 c 1
 664 36 681 48 697 68 c 0
 714 91 729 125 736 167 c 0
 744 214 740 251 728 274 c 0
 719 291 706 300 692 300 c 0
 679 300 661 293 644 272 c 0
 631 256 619 231 609 194 c 0
 607 186 605 177 603 167 c 0
EndSplineSet
EndChar
StartChar: ampersand
Encoding: 38 38 6
Width: 758
Flags: MW
LayerCount: 2
Fore
SplineSet
67 150 m 0
 84 246 160 286 258 365 c 1
 250 414 245 476 256 541 c 0
 277 658 348 744 431 744 c 0
 509 744 546 665 532 584 c 0
 527 554 512 517 457 460 c 0
 429 431 392 398 340 358 c 1
 376 244 445 144 457 125 c 9
 458 125 l 17
 508 162 549 205 583 250 c 0
 622 302 651 356 673 405 c 1
 735 389 l 1
 710 333 678 276 635 220 c 0
 597 171 553 124 498 81 c 1
 512 70 525 61 538 54 c 0
 554 46 570 42 594 42 c 0
 617 42 637 45 656 48 c 0
 686 53 708 60 712 60 c 1
 700 -7 l 1
 687 -10 667 -14 643 -17 c 0
 624 -20 603 -22 583 -22 c 0
 544 -22 513 -14 484 0 c 0
 466 9 449 22 433 37 c 1
 432 37 l 1
 381 7 300 -22 220 -22 c 0
 121 -22 50 51 67 150 c 0
147 158 m 0
 137 101 163 42 233 42 c 0
 279 42 333 54 391 83 c 1
 369 114 305 208 274 305 c 1
 204 251 159 225 147 158 c 0
328 576 m 0
 318 520 320 467 327 420 c 1
 367 451 397 479 417 502 c 0
 448 538 459 565 463 585 c 0
 469 620 468 683 419 683 c 0
 390 683 342 657 328 576 c 0
EndSplineSet
EndChar
StartChar: quotesingle
Encoding: 39 39 7
Width: 278
Flags: MW
LayerCount: 2
Fore
SplineSet
226.307617188 722 m 1
 304.307617188 722 l 1xc0
 252.9921875 465 l 1
 232.830078125 362 l 1
 232.830078125 362 l 1xa0
 171.830078125 362 l 1
 171.830078125 362 l 1xa0
 226.307617188 722 l 1
EndSplineSet
EndChar
StartChar: parenleft
Encoding: 40 40 8
Width: 389
Flags: MW
LayerCount: 2
Fore
SplineSet
124.08203125 250 m 0
 176.979492188 550 324.489257812 689 403.245117188 750 c 1
 465.245117188 750 l 1
 430.779296875 719 403.900390625 697 366.259765625 648 c 0
 274.27734375 529 226.23828125 387 202.08203125 250 c 0
 137.72265625 -115 280.268554688 -231 288.91796875 -250 c 1
 226.91796875 -250 l 1
 173.145507812 -192 70.478515625 -54 124.08203125 250 c 0
EndSplineSet
EndChar
StartChar: parenright
Encoding: 41 41 9
Width: 389
Flags: MW
LayerCount: 2
Fore
SplineSet
11 -250 m 1
 45 -219 72 -197 109 -149 c 0
 202 -30 250 113 274 250 c 0
 338 615 196 731 187 750 c 1
 248 750 l 1
 305 689 405 550 352 251 c 0
 299 -51 151 -189 72 -250 c 1
 11 -250 l 1
EndSplineSet
EndChar
StartChar: asterisk
Encoding: 42 42 10
Width: 500
Flags: MW
LayerCount: 2
Fore
SplineSet
140.702148438 435 m 0
 144.405273438 456 162.9921875 465 174.874023438 470 c 2
 291.924804688 527 l 1
 292.100585938 528 l 1
 180.561523438 593 168.73828125 594 173.322265625 620 c 0
 176.672851562 639 195.494140625 655 214.494140625 655 c 0
 230.494140625 655 241.025390625 641 324.564453125 576 c 1
 329.499023438 621 339.83984375 708 340.720703125 713 c 0
 345.834960938 742 370.245117188 750 382.245117188 750 c 0
 392.245117188 750 415.010742188 743 410.25 716 c 0
 408.487304688 706 401.90234375 680 377.564453125 576 c 1
 495.436523438 649 502.494140625 655 514.494140625 655 c 0
 536.494140625 655 547.497070312 638 544.322265625 620 c 0
 540.620117188 599 522.208984375 591 511.151367188 585 c 2
 393.100585938 528 l 1
 392.924804688 527 l 1
 504.462890625 462 516.287109375 461 511.702148438 435 c 0
 508.3515625 416 489.53125 400 470.53125 400 c 0
 452.53125 400 447.646484375 412 360.63671875 480 c 1
 355.526367188 434 345.185546875 347 344.48046875 343 c 0
 339.190429688 313 315.956054688 306 303.956054688 306 c 0
 284.956054688 306 271.600585938 321 274.774414062 339 c 0
 276.185546875 347 282.416992188 371 307.63671875 480 c 1
 190.764648438 407 183.53125 400 170.53125 400 c 0
 149.53125 400 137.705078125 418 140.702148438 435 c 0
EndSplineSet
EndChar
StartChar: plus
Encoding: 43 43 11
Width: 778
Flags: MW
LayerCount: 2
Fore
SplineSet
99.08203125 250 m 0
 103.079101562 267 117.842773438 277 126.1953125 279 c 0
 134.547851562 281 143.547851562 281 151.547851562 281 c 2
 407.547851562 281 l 1
 452.864257812 538 l 2
 454.451171875 547 457.038085938 556 460.272460938 563 c 0
 466.387695312 575 474.798828125 583 490.798828125 583 c 0
 507.798828125 583 513.211914062 574 515.448242188 564 c 4
 517.508789062 553 514.392578125 541 513.864257812 538 c 2
 468.547851562 281 l 1
 724.547851562 281 l 2
 733.547851562 281 740.547851562 281 747.1953125 279 c 0
 760.490234375 275 767.079101562 267 765.08203125 250 c 0
 761.083984375 233 751.673828125 225 741.14453125 222 c 0
 733.791992188 220 725.791992188 220 719.791992188 220 c 2
 457.791992188 220 l 1
 412.299804688 -38 l 2
 409.125976562 -56 407.5390625 -65 393.599609375 -76 c 0
 386.717773438 -81 379.365234375 -83 374.365234375 -83 c 0
 356.365234375 -83 349.833007812 -69 348.419921875 -60 c 0
 347.654296875 -53 349.888671875 -46 351.299804688 -38 c 2
 396.791992188 220 l 1
 138.791992188 220 l 2
 137.791992188 220 134.615234375 219 130.615234375 219 c 0
 124.615234375 219 119.791992188 220 115.96875 221 c 0
 100.849609375 226 98.318359375 240 99.08203125 250 c 0
EndSplineSet
EndChar
StartChar: comma
Encoding: 44 44 12
Width: 278
Flags: MW
LayerCount: 2
Fore
SplineSet
96 0 m 1
 110.811523438 84 l 1
 194.811523438 84 l 1
 182.46875 14 l 1
 182.46875 14 179.881835938 5 178 0 c 4
 174.765625 -7 115.958984375 -125 115.958984375 -125 c 1
 73.958984375 -125 l 1
 122 0 l 1
 96 0 l 1
EndSplineSet
EndChar
StartChar: hyphen
Encoding: 45 45 13
Width: 333
Flags: MW
LayerCount: 2
Fore
SplineSet
44 193 m 1
 54 252 l 1
 320 252 l 1
 310 193 l 1
 44 193 l 1
EndSplineSet
EndChar
StartChar: period
Encoding: 46 46 14
Width: 278
Flags: MW
LayerCount: 2
Fore
SplineSet
96 0 m 1
 111 84 l 1
 195 84 l 1
 180 0 l 1
 96 0 l 1
EndSplineSet
EndChar
StartChar: slash
Encoding: 47 47 15
Width: 500
Flags: MW
LayerCount: 2
Fore
SplineSet
17 -219 m 0
 19 -210 27 -197 32 -186 c 2
 508 720 l 2
 513 731 523 749 545 749 c 0
 560 749 573 738 570 719 c 0
 569 711 563 700 558 691 c 2
 79 -220 l 2
 72 -233 66 -240 60 -244 c 4
 52 -249 46 -248 43 -250 c 1
 42 -250 l 2
 26 -250 14 -236 17 -219 c 0
EndSplineSet
EndChar
StartChar: zero
Encoding: 48 48 16
Width: 500
Flags: MW
LayerCount: 2
Fore
SplineSet
95.6611328125 310 m 2
 99.01171875 329 l 2
 116.291992188 427 156.44140625 615 303.43359375 666 c 0
 322.66796875 673 343.549804688 678 368.549804688 678 c 0
 420.549804688 678 466.494140625 655 493.6171875 616 c 0
 541.626953125 548 532.349609375 433 521.477539062 360 c 0
 519.185546875 347 517.069335938 335 515.306640625 325 c 0
 479.51171875 122 411.231445312 24 310.060546875 -11 c 0
 291.826171875 -18 271.12109375 -22 245.12109375 -22 c 0
 162.12109375 -22 46.5849609375 26 95.6611328125 310 c 2
173.30859375 308 m 2
 144.21484375 143 172.577148438 77 210.168945312 52 c 4
 225.405273438 42 241.876953125 39 256.876953125 39 c 0
 276.876953125 39 302.934570312 45 328.637695312 66 c 0
 368.456054688 99 409.623046875 168 434.485351562 309 c 2
 445.241210938 370 l 2
 462.521484375 468 457.100585938 528 440.448242188 564 c 0
 421.030273438 607 386.6171875 616 357.6171875 616 c 0
 305.6171875 616 221.798828125 583 184.241210938 370 c 2
 173.30859375 308 l 2
EndSplineSet
EndChar
StartChar: one
Encoding: 49 49 17
Width: 500
Flags: MW
LayerCount: 2
Fore
SplineSet
187.685546875 554 m 1
 197.912109375 612 l 1
 312.912109375 612 369.141601562 653 400.549804688 678 c 1
 419.549804688 678 l 1
 310.403320312 59 l 1
 435.403320312 59 l 1
 425 0 l 1
 95 0 l 1
 105.403320312 59 l 1
 230.403320312 59 l 1
 321.740234375 577 l 1
 284.272460938 563 247.685546875 554 187.685546875 554 c 1
EndSplineSet
EndChar
StartChar: two
Encoding: 50 50 18
Width: 500
Flags: MW
LayerCount: 2
Fore
SplineSet
132 514 m 1
 172 598 239 678 355 678 c 0
 488 678 551 577 531 464 c 0
 514 367 441 313 321 221 c 0
 283 192 226 146 133 70 c 1
 462 71 l 1
 449 0 l 1
 49 0 l 1
 60 65 l 1
 213 194 l 2
 325 283 428 354 447 461 c 0
 462 545 416 613 330 613 c 0
 208 613 169 461 165 459 c 1
 132 514 l 1
EndSplineSet
EndChar
StartChar: three
Encoding: 51 51 19
Width: 500
Flags: MW
LayerCount: 2
Fore
SplineSet
55.2822265625 81 m 1
 77.0380859375 142 l 1
 102.103515625 97 136.6953125 72 168.2265625 58 c 0
 203.405273438 42 236.052734375 40 251.052734375 40 c 0
 289.052734375 40 321.874023438 56 348.458984375 82 c 0
 373.8671875 107 392.038085938 142 399.091796875 182 c 0xe8
 400.854492188 192 402.618164062 202 402.380859375 212 c 0
 403.375976562 246 392.666015625 276 372.192382812 296 c 0
 355.190429688 313 329.954101562 323 295.954101562 323 c 2
 222.954101562 323 l 1
 233.885742188 385 l 1
 292.590820312 389 299.767578125 390 306.944335938 391 c 0
 375.059570312 403 428.815429688 464 439.571289062 525 c 0
 444.33203125 552 438.564453125 576 424.385742188 592 c 0
 409.3828125 609 385.969726562 618 354.969726562 618 c 0
 326.969726562 618 297.559570312 610 271.267578125 597 c 0
 245.974609375 584 221.80078125 566 202.745117188 543 c 0
 195.158203125 534 188.395507812 524 181.631835938 514 c 1
 155.330078125 569 l 1
 188.3828125 609 222.967773438 635 254.7890625 651 c 0
 302.020507812 675 344.549804688 678 367.549804688 678 c 0
 411.549804688 678 452.081054688 664 480.849609375 640 c 0
 513.088867188 613 530.03515625 573 521.571289062 525 c 0xf0
 516.634765625 497 502.228515625 455 462.999023438 414 c 0
 442.296875 393 415.59375 372 380.419921875 354 c 1
 416.951171875 340 444.424804688 320 462.192382812 296 c 0
 488.197265625 262 495.96875 221 488.739257812 180 c 0
 479.393554688 127 445.51953125 71 393.465820312 31 c 4
 351.823242188 -1 300.12109375 -22 241.12109375 -22 c 0
 223.12109375 -22 181.473632812 -20 138.352539062 2 c 0
 108.998046875 17 79.4052734375 42 55.2822265625 81 c 1
EndSplineSet
EndChar
StartChar: four
Encoding: 52 52 20
Width: 500
Flags: MW
LayerCount: 2
Fore
SplineSet
57 171 m 1
 66 219 l 0
 68 232 69 234 82 250 c 2
 395 655 l 1
 487 655 l 1
 413 232 l 1xe8
 512 232 l 1
 501 171 l 1
 402 171 l 1
 372 0 l 1
 292 0 l 1
 322 171 l 1xf0
 57 171 l 1
146 232 m 1
 339 232 l 1xe8
 407 618 l 1
 380 538 312 449 146 232 c 1
EndSplineSet
EndChar
StartChar: five
Encoding: 53 53 21
Width: 500
Flags: MW
LayerCount: 2
Fore
SplineSet
51.400390625 76 m 1
 95.275390625 132 l 1
 98.041015625 125 101.983398438 119 104.924804688 113 c 0
 118.693359375 89 136.6953125 72 154.755859375 61 c 0
 184.58203125 43 217.052734375 40 235.052734375 40 c 0
 265.052734375 40 306.168945312 52 340.340820312 87 c 0
 364.749023438 112 385.44921875 150 395.147460938 205 c 0
 397.086914062 216 399.026367188 227 399.7890625 237 c 0
 404.077148438 284 394.54296875 315 381.069335938 335 c 0
 365.125 358 341.536132812 366 321.536132812 366 c 0
 242.536132812 366 197.4296875 286 197.4296875 286 c 1
 129.4296875 286 l 1
 194.494140625 655 l 1
 531.494140625 655 l 1
 520.208984375 591 l 1
 256.208984375 591 l 1
 220.0625 386 l 1
 257.470703125 411 287.291992188 427 334.291992188 427 c 0
 383.291992188 427 424.412109375 405 452.711914062 367 c 4
 482.659179688 327 496.608398438 270 484.970703125 204 c 0
 473.685546875 140 438.458984375 82 389.229492188 41 c 0
 343.352539062 2 285.12109375 -22 225.12109375 -22 c 0
 183.12109375 -22 145.060546875 -11 113.586914062 9 c 0
 87.5849609375 26 65.6396484375 49 51.400390625 76 c 1
EndSplineSet
EndChar
StartChar: six
Encoding: 54 54 22
Width: 500
Flags: MW
LayerCount: 2
Fore
SplineSet
98.9541015625 323 m 0
 116.5859375 423 160.456054688 513 220.740234375 577 c 0
 278.849609375 640 352.549804688 678 428.549804688 678 c 0
 478.549804688 678 507.610351562 667 532.0234375 658 c 1
 521.443359375 598 l 1
 496.030273438 607 468.146484375 619 418.146484375 619 c 0
 363.146484375 619 317.208984375 591 280.15625 551 c 0
 235.692382812 503 205.87890625 436 193.00390625 380 c 1
 244.349609375 433 313.462890625 462 376.462890625 462 c 0
 427.462890625 462 453.407226562 439 474.70703125 401 c 0
 502.538085938 349 507.721679688 299 499.495117188 241 c 0
 498.436523438 235 497.555664062 230 496.497070312 224 c 0
 482.744140625 146 454.3984375 93 395.052734375 40 c 0
 347.470703125 -3 302.12109375 -22 248.12109375 -22 c 0
 200.12109375 -22 142.470703125 -3 110.4609375 65 c 0
 85.6298828125 117 77.0888671875 199 98.9541015625 323 c 0
171.552734375 247 m 0
 169.965820312 238 168.37890625 229 167.791992188 220 c 0
 162.744140625 146 165.052734375 40 258.052734375 40 c 0
 334.052734375 40 378.8671875 107 396.625 151 c 0
 404.504882812 173 409.383789062 195 413.439453125 218 c 0
 415.908203125 232 418.0234375 244 418.963867188 255 c 0
 423.83984375 294 421.424804688 320 408.538085938 349 c 0
 386.825195312 396 349.70703125 401 326.70703125 401 c 0
 259.70703125 401 204.361328125 348 180.37109375 280 c 4
 176.431640625 269 173.4921875 258 171.552734375 247 c 0
EndSplineSet
EndChar
StartChar: seven
Encoding: 55 55 23
Width: 500
Flags: MW
LayerCount: 2
Fore
SplineSet
144 585 m 1
 157 656 l 1
 572 655 l 1
 561 590 l 1
 391 428 273 208 234 -11 c 1
 149 -11 l 1
 184 188 290 404 492 585 c 1
 144 585 l 1
EndSplineSet
EndChar
StartChar: eight
Encoding: 56 56 24
Width: 500
Flags: MW
LayerCount: 2
Fore
SplineSet
73 180 m 0xf2
 85 249 138 319 242 354 c 1
 168 377 133 438 144 502 c 0
 160 595 258 678 369 678 c 0
 371 678 372 678 374 678 c 4
 477 676 549 598 532 503 c 0xec
 521 443 473 385 380 354 c 1
 440 334 506 276 489 179 c 0
 470 74 363 -22 245 -22 c 0
 127 -22 54 73 73 180 c 0xf2
154 181 m 0
 145 131 155 91 181 67 c 0
 199 50 224 40 256 40 c 0
 284 40 315 49 343 69 c 0
 373 91 398 128 408 182 c 0xf2
 410 191 410 200 411 209 c 0
 412 243 402 271 385 291 c 0
 367 312 340 323 305 323 c 0
 281 323 250 315 224 297 c 0
 197 278 172 249 159 205 c 0
 157 197 155 189 154 181 c 0
214 502 m 0
 207 465 216 435 235 415 c 0
 254 396 282 385 316 385 c 0
 350 385 381 395 405 412 c 0
 435 433 455 464 462 502 c 0
 464 512 464 522 464 531 c 0
 463 558 451 581 433 596 c 0
 415 611 389 619 358 619 c 0xec
 325 619 295 610 271 593 c 0
 246 575 227 550 218 519 c 0
 216 514 215 508 214 502 c 0
EndSplineSet
EndChar
StartChar: nine
Encoding: 57 57 25
Width: 500
Flags: MW
LayerCount: 2
Fore
SplineSet
118.702148438 435 m 0
 131.57421875 508 160.272460938 563 222.969726562 618 c 0
 272.375976562 660 316.549804688 678 371.549804688 678 c 0
 410.549804688 678 456.2578125 665 488.499023438 621 c 0
 523.859375 572 542.518554688 485 515.716796875 333 c 0
 495.791992188 220 443.864257812 124 379.755859375 61 c 0
 326.41015625 8 263.12109375 -22 201.12109375 -22 c 0
 139.12109375 -22 107.470703125 -3 76.2314453125 24 c 1
 116.75390625 78 l 1
 136.932617188 62 158.052734375 40 214.052734375 40 c 0
 262.052734375 40 309.813476562 67 349.983398438 119 c 0
 374.801757812 152 397.20703125 194 413.200195312 245 c 0
 415.963867188 255 418.7265625 265 421.666015625 276 c 1
 368.497070312 224 306.03125 193 238.03125 193 c 0
 186.03125 193 161.086914062 216 140.787109375 254 c 0
 109.013671875 312 106.536132812 366 118.702148438 435 c 0
200.702148438 435 m 0
 191.180664062 381 187.48046875 343 209.07421875 301 c 0
 223.313476562 274 245.963867188 255 287.963867188 255 c 0
 325.963867188 255 362.137695312 273 389.07421875 301 c 4
 416.01171875 329 435.888671875 368 443.293945312 410 c 0
 454.931640625 476 460.969726562 618 361.969726562 618 c 0
 333.969726562 618 309.3828125 609 288.915039062 595 c 0
 253.682617188 571 230.158203125 534 219.397460938 507 c 0
 209.166015625 483 205.110351562 460 200.702148438 435 c 0
EndSplineSet
EndChar
StartChar: less
Encoding: 60 60 28
Width: 778
Flags: MW
LayerCount: 2
Fore
SplineSet
127.08203125 250 m 1
 132.903320312 266 135.784179688 271 167.4296875 286 c 2
 740.33203125 552 l 2
 746.861328125 555 754.390625 558 761.390625 558 c 0
 779.390625 558 788.745117188 543 786.100585938 528 c 0
 782.221679688 506 760.810546875 498 745.576171875 491 c 2
 226.08203125 250 l 1
 243.495117188 241 268.026367188 227 282.615234375 219 c 2
 660.586914062 9 l 2
 673.352539062 2 691.942382812 -6 688.0625 -28 c 0
 685.241210938 -44 669.7734375 -58 652.7734375 -58 c 0
 641.7734375 -58 627.536132812 -48 616.594726562 -42 c 2
 154.734375 214 l 2
 119.083984375 233 128.670898438 242 127.08203125 250 c 1
EndSplineSet
EndChar
StartChar: equal
Encoding: 61 61 29
Width: 778
Flags: MW
LayerCount: 2
Fore
SplineSet
118 350 m 0
 119 357 123 367 134 374 c 0
 141 378 150 381 163 381 c 6
 748 381 l 2
 760 381 769 379 774 375 c 0
 784 368 784 356 783 350 c 0
 782 343 777 333 768 327 c 0
 761 323 752 320 740 320 c 2
 149 320 l 2
 134 320 126 324 122 329 c 0
 116 336 117 346 118 350 c 0
82 150 m 0
 83 158 89 170 101 176 c 0
 107 179 114 181 124 181 c 0
 127 181 131 180 134 180 c 2
 715 180 l 2
 726 180 734 177 739 174 c 0
 749 167 748 157 747 150 c 0
 746 143 742 134 732 127 c 0
 725 122 715 119 701 119 c 2
 116 119 l 2
 104 119 95 122 90 126 c 0
 81 133 81 143 82 150 c 0
EndSplineSet
EndChar
StartChar: greater
Encoding: 62 62 30
Width: 778
Flags: MW
LayerCount: 2
Fore
SplineSet
78.0625 -28 m 0
 81.9423828125 -6 104.352539062 2 119.586914062 9 c 2
 639.08203125 250 l 1
 623.668945312 259 602.608398438 270 583.547851562 281 c 2
 204.576171875 491 l 2
 191.810546875 498 172.221679688 506 176.100585938 528 c 0
 178.745117188 543 194.390625 558 212.390625 558 c 0
 223.390625 558 237.626953125 548 248.569335938 542 c 2
 710.4296875 286 l 2
 745.903320312 266 736.4921875 258 737.08203125 250 c 1
 732.260742188 234 729.37890625 229 697.734375 214 c 2
 126.006835938 -51 l 2
 118.301757812 -55 110.7734375 -58 103.7734375 -58 c 0
 85.7734375 -58 75.41796875 -43 78.0625 -28 c 0
EndSplineSet
EndChar
StartChar: question
Encoding: 63 63 31
Width: 472
Flags: MW
LayerCount: 2
Fore
SplineSet
174 677 m 1
 218 705 272 730 339 733 c 4
 343 733 348 733 352 733 c 0
 511 733 528 636 517 571 c 0
 502 484 443 450 424 434 c 0
 314 343 298 246 293 215 c 2
 286 175 l 1
 219 175 l 1
 224 207 l 2
 260 414 377 476 408 508 c 0
 413 513 432 534 439 572 c 0
 453 652 400 672 343 672 c 0xd8
 273 672 224 642 186 614 c 1
 174 677 l 1
EndSplineSet
Refer: 14 46 N 1 0 0 1 84 0 2
EndChar
StartChar: at
Encoding: 64 64 32
Width: 667
Flags: MW
LayerCount: 2
Fore
SplineSet
118.830078125 362 m 0
 156.387695312 575 343.248046875 733 514.248046875 733 c 0
 735.248046875 733 693.931640625 476 674.888671875 368 c 0
 659.900390625 283 620.615234375 219 574.5625 179 c 0
 534.390625 144 488.216796875 126 447.216796875 126 c 0
 346.216796875 126 280.37890625 229 303.654296875 361 c 0
 326.752929688 492 428.267578125 597 530.267578125 597 c 0
 551.267578125 597 566.561523438 593 578.680664062 588 c 0
 593.622070312 582 603.211914062 574 610.506835938 570 c 1
 596.73046875 645 554.4921875 672 504.4921875 672 c 0
 378.4921875 672 226.626953125 548 193.654296875 361 c 0
 162.973632812 187 255.993164062 51 399.993164062 51 c 0
 484.993164062 51 547.98828125 85 561.340820312 87 c 0
 569.693359375 89 577.516601562 88 585.516601562 88 c 2
 625.516601562 88 l 1
 554.87890625 22 466.060546875 -11 386.060546875 -11 c 0
 209.060546875 -11 81.0966796875 148 118.830078125 362 c 0
378.830078125 362 m 0
 360.844726562 260 399.973632812 187 457.973632812 187 c 0
 486.973632812 187 522.67578125 208 551.552734375 247 c 0
 572.490234375 275 590.366210938 314 598.477539062 360 c 0
 617.344726562 467 574.334960938 535 518.334960938 535 c 0
 490.334960938 535 457.984375 516 431.166015625 483 c 4
 406.875976562 453 387.470703125 411 378.830078125 362 c 0
EndSplineSet
EndChar
StartChar: A
Encoding: 65 65 33
Width: 667
Flags: MW
LayerCount: 2
Fore
SplineSet
27 0 m 1
 410 694 l 1
 499 694 l 1
 637 0 l 1
 545 0 l 1
 504 204 l 1
 214 204 l 1
 102 0 l 1
 27 0 l 1
245 260 m 1
 493 260 l 1
 438 579 l 25
 433 624 l 17
 405 551 372 497 245 260 c 1
EndSplineSet
EndChar
StartChar: B
Encoding: 66 66 34
Width: 667
Flags: MW
LayerCount: 2
Fore
SplineSet
96 0 m 1
 218 694 l 1
 440 694 l 2
 513 694 567 679 604 657 c 0
 664 620 682 563 674 520 c 0xf8
 663 457 598 392 478 363 c 1
 576 347 660 282 643 188 c 0
 631 121 576 65 506 32 c 0
 471 16 433 6 395 2 c 0
 378 0 361 0 344 0 c 2
 96 0 l 1
190 56 m 1
 332 56 l 2
 418 56 483 83 521 119 c 0
 544 140 557 165 561 189 c 0xf4
 569 233 543 281 486 308 c 0
 465 318 439 326 409 329 c 0
 392 330 375 330 358 330 c 2
 239 330 l 1
 232 293 l 1
 190 56 l 1
249 392 m 1
 369 392 l 2
 447 392 509 416 547 447 c 0
 574 469 591 494 595 519 c 0xf8
 603 567 561 638 407 638 c 2
 293 638 l 1
 286 603 l 1
 249 392 l 1
EndSplineSet
EndChar
StartChar: C
Encoding: 67 67 35
Width: 639
Flags: MW
LayerCount: 2
Fore
SplineSet
127 347 m 0
 161 541 324 716 522 716 c 0
 593 716 648 701 697 682 c 1
 668 599 l 1
 620 632 582 652 507 652 c 0
 366 652 245 505 217 347 c 0
 189 186 258 42 402 42 c 0
 504 42 544 70 600 103 c 1
 594 33 l 1
 517 -8 474 -22 390 -22 c 0
 193 -22 93 155 127 347 c 0
EndSplineSet
EndChar
StartChar: E
Encoding: 69 69 37
Width: 597
Flags: MW
LayerCount: 2
Fore
SplineSet
94 0 m 1
 215.841796875 691 l 1
 662.841796875 691 l 1
 651.204101562 625 l 1
 294.556640625 627 l 1
 252.767578125 390 l 1
 582.767578125 390 l 1
 572.01171875 329 l 1
 242.01171875 329 l 1
 196.342773438 70 l 1
 567.6953125 72 l 1
 555 0 l 1
 94 0 l 1
EndSplineSet
EndChar
StartChar: F
Encoding: 70 70 38
Width: 569
Flags: MW
LayerCount: 2
Fore
SplineSet
94 0 m 1
 215.841796875 691 l 1
 648.841796875 691 l 1
 637.204101562 625 l 1
 294.556640625 627 l 1
 250.298828125 376 l 1
 551.298828125 376 l 1
 540.54296875 315 l 1
 239.54296875 315 l 1
 184 0 l 1
 94 0 l 1
EndSplineSet
EndChar
StartChar: G
Encoding: 71 71 39
Width: 667
Flags: MW
LayerCount: 2
Fore
SplineSet
127 347 m 0
 161 541 326 716 517 716 c 0
 604 716 656 697 709 668 c 1
 679 585 l 1
 630 627 591 652 508 652 c 0
 366 652 245 506 217 348 c 0
 187 176 267 42 399 42 c 0
 473 42 525 62 532 63 c 1
 563 237 l 1
 430 237 l 1
 441 299 l 1
 652 299 l 1
 604 26 l 1
 522 -9 450 -22 387 -22 c 0
 204 -22 91 144 127 347 c 0
EndSplineSet
EndChar
StartChar: H
Encoding: 72 72 40
Width: 708
Flags: MW
LayerCount: 2
Fore
SplineSet
94 0 m 1
 216 694 l 1
 306 694 l 1
 253 392 l 1
 593 392 l 1
 646 694 l 1
 736 694 l 1
 614 0 l 1
 524 0 l 1
 582 330 l 1
 242 330 l 1
 184 0 l 1
 94 0 l 1
EndSplineSet
EndChar
StartChar: I
Encoding: 73 73 41
Width: 278
Flags: MW
LayerCount: 2
Fore
SplineSet
94 0 m 1
 216.37109375 694 l 1
 306.37109375 694 l 1
 184 0 l 1
 94 0 l 1
EndSplineSet
EndChar
StartChar: J
Encoding: 74 74 42
Width: 472
Flags: MW
LayerCount: 2
Fore
SplineSet
44.5263671875 20 m 1
 70.7509765625 95 l 1
 78.5166015625 88 113.052734375 40 190.052734375 40 c 0
 247.052734375 40 312.108398438 63 328.68359375 157 c 2
 423.37109375 694 l 1
 510.37109375 694 l 1
 415.331054688 155 l 2
 390.291992188 13 289.12109375 -22 208.12109375 -22 c 0
 157.12109375 -22 100.060546875 -11 44.5263671875 20 c 1
EndSplineSet
EndChar
StartChar: K
Encoding: 75 75 43
Width: 694
Flags: MW
LayerCount: 2
Fore
SplineSet
95 0 m 1
 217.37109375 694 l 1
 303.37109375 694 l 1
 237.954101562 323 l 1
 666.37109375 694 l 1
 759.37109375 694 l 1
 443.057617188 420 l 1
 442.880859375 419 l 1
 651 0 l 1
 557 0 l 1
 378.006835938 363 l 1
 221.202148438 228 l 1
 181 0 l 1
 95 0 l 1
EndSplineSet
EndChar
StartChar: L
Encoding: 76 76 44
Width: 542
Flags: MW
LayerCount: 2
Fore
SplineSet
94 0 m 1
 216 694 l 1
 306 694 l 1
 195 65 l 1
 511 66 l 1
 499 0 l 1
 94 0 l 1
EndSplineSet
EndChar
StartChar: M
Encoding: 77 77 45
Width: 875
Flags: MW
LayerCount: 2
Fore
SplineSet
100 0 m 1
 222.37109375 694 l 1
 336.37109375 694 l 1
 419.6640625 293 l 2
 440.915039062 181 453.454101562 116 453.221679688 92 c 1
 454.221679688 92 l 1
 465.216796875 126 546.255859375 268 557.487304688 292 c 2
 782.37109375 694 l 1
 897.37109375 694 l 1
 775 0 l 1
 697 0 l 1
 801.385742188 592 l 2
 804.912109375 612 806.028320312 624 806.028320312 624 c 1
 806.028320312 624 799.854492188 606 789.50390625 587 c 2
 700.5859375 423 l 25
 475.87890625 22 l 1
 403.87890625 22 l 1
 322.470703125 411 l 2
 303.161132812 517 289.26953125 580 288.028320312 624 c 1
 178 0 l 1
 100 0 l 1
EndSplineSet
EndChar
StartChar: N
Encoding: 78 78 46
Width: 708
Flags: MW
LayerCount: 2
Fore
SplineSet
95 0 m 1
 217.37109375 694 l 1
 342.37109375 694 l 1
 520.44921875 150 l 1
 545.342773438 70 l 1
 655.37109375 694 l 1
 733.37109375 694 l 1
 611 0 l 1
 486 0 l 1
 307.921875 544 l 1
 283.028320312 624 l 1
 173 0 l 1
 95 0 l 1
EndSplineSet
EndChar
StartChar: O
Encoding: 79 79 47
Width: 736
Flags: MW
LayerCount: 2
Fore
SplineSet
115.833007812 345 m 0
 152.685546875 554 325.25 716 494.25 716 c 0
 660.25 716 776.861328125 555 739.833007812 345 c 0
 704.21484375 143 538.12109375 -22 363.12109375 -22 c 0
 200.12109375 -22 78.275390625 132 115.833007812 345 c 0
208.301757812 359 m 0
 178.501953125 190 241.58203125 43 374.58203125 43 c 0
 501.58203125 43 622.091796875 182 653.301757812 359 c 0
 685.216796875 540 597.96484375 652 481.96484375 652 c 0
 358.96484375 652 238.629882812 531 208.301757812 359 c 0
EndSplineSet
EndChar
StartChar: P
Encoding: 80 80 48
Width: 639
Flags: MW
LayerCount: 2
Fore
SplineSet
95 0 m 1
 217 694 l 1
 453 694 l 2
 507 694 555 688 600 655 c 0
 654 618 680 558 669 493 c 0
 654 409 564 288 386 288 c 0
 375 288 364 289 353 289 c 2
 236 289 l 1
 185 0 l 1
 95 0 l 1
243 347 m 1
 376 347 l 2
 525 347 578 434 588 493 c 0
 598 550 576 638 427 638 c 2
 294 638 l 1
 243 347 l 1
EndSplineSet
EndChar
StartChar: Q
Encoding: 81 81 49
Width: 736
Flags: MW
LayerCount: 2
Fore
SplineSet
115.833007812 345 m 0
 145.456054688 513 271.844726562 674 435.192382812 710 c 0
 454.897460938 714 474.25 716 493.25 716 c 0
 564.25 716 627.13671875 687 671.497070312 638 c 0
 732.682617188 571 762.16796875 466 740.833007812 345 c 0
 706.801757812 152 575.2265625 58 538.818359375 33 c 1
 629.958984375 -125 l 1
 524.958984375 -125 l 1
 462.118164062 -5 l 1
 433.708007812 -13 407.12109375 -22 363.12109375 -22 c 0
 292.12109375 -22 231.057617188 6 186.521484375 54 c 0
 125.159179688 120 94.4970703125 224 115.833007812 345 c 0
202.65625 344 m 0
 177.088867188 199 226.634765625 83 319.993164062 51 c 0
 336.934570312 45 355.405273438 42 375.405273438 42 c 0
 403.405273438 42 421.639648438 49 432.993164062 51 c 1
 357.383789062 195 l 1
 446.383789062 195 l 1
 505.869140625 90 l 1
 506.869140625 90 l 1
 543.983398438 119 626.678710938 191 653.65625 344 c 0
 672.700195312 452 652.569335938 542 605.090820312 596 c 0
 574.438476562 632 530.96484375 652 480.96484375 652 c 2
 479.96484375 652 l 2
 427.7890625 651 374.733398438 628 328.327148438 586 c 0
 273.6875 537 229.639648438 463 208.241210938 370 c 0
 206.654296875 361 204.243164062 353 202.65625 344 c 0
EndSplineSet
EndChar
StartChar: R
Encoding: 82 82 50
Width: 646
Flags: MW
LayerCount: 2
Fore
SplineSet
95 0 m 1
 217 694 l 1
 443 694 l 2
 518 694 571 678 608 655 c 0
 671 615 687 553 679 508 c 0
 666 437 599 360 475 326 c 1
 617 0 l 1
 527 0 l 1
 396 316 l 1
 238 316 l 1
 182 0 l 1
 95 0 l 1
249 378 m 1
 363 378 l 2
 398 378 436 376 482 391 c 0
 553 414 589 461 597 507 c 0
 603 540 596 581 554 609 c 0
 528 626 488 638 429 638 c 2
 294 638 l 1
 249 378 l 1
EndSplineSet
EndChar
StartChar: S
Encoding: 83 83 51
Width: 555
Flags: MW
LayerCount: 2
Fore
SplineSet
52 47 m 1
 82 130 l 1
 123 91 183 47 281 47 c 0
 368 47 439 110 451 179 c 0
 460 232 433 279 386 299 c 0
 322 327 206 320 158 421 c 0
 146 448 141 479 147 519 c 0
 164 616 266 716 407 716 c 0
 412 716 416 716 421 716 c 0
 493 714 538 694 582 668 c 1
 553 585 l 1
 511 624 473 649 394 649 c 0
 303 649 239 590 229 531 c 0
 220 481 249 442 290 424 c 0
 317 413 400 397 432 382 c 0
 491 356 550 289 532 189 c 0
 513 81 406 -22 269 -22 c 0
 177 -22 108 7 52 47 c 1
EndSplineSet
EndChar
StartChar: T
Encoding: 84 84 52
Width: 680
Flags: MW
LayerCount: 2
Fore
SplineSet
144.8515625 623 m 1
 156.489257812 689 l 1
 764.489257812 689 l 1
 752.8515625 623 l 1
 494.028320312 624 l 1
 384 0 l 1
 295 0 l 1
 405.028320312 624 l 1
 144.8515625 623 l 1
EndSplineSet
EndChar
StartChar: U
Encoding: 85 85 53
Width: 687
Flags: MW
LayerCount: 2
Fore
SplineSet
139.31640625 257 m 2
 216.37109375 694 l 1
 306.37109375 694 l 1
 233.1953125 279 l 2
 228.434570312 252 221.497070312 224 220.736328125 197 c 0
 218.565429688 162 224.393554688 127 240.280273438 98 c 0
 260.755859375 61 296.995117188 34 351.995117188 34 c 0
 391.995117188 34 437.639648438 49 475.458984375 82 c 0
 508.572265625 111 537.154296875 154 551.380859375 212 c 2
 636.37109375 694 l 1
 715.37109375 694 l 1
 639.903320312 266 l 2
 635.670898438 242 626.98046875 136 526.81640625 50 c 0
 486.821289062 16 420.12109375 -22 342.12109375 -22 c 0
 276.12109375 -22 221.529296875 3 184.58203125 43 c 0
 148.458984375 82 127.98046875 136 130.560546875 196 c 0
 132.262695312 217 135.7890625 237 139.31640625 257 c 2
EndSplineSet
EndChar
StartChar: V
Encoding: 86 86 54
Width: 667
Flags: MW
LayerCount: 2
Fore
SplineSet
136.37109375 694 m 1
 229.37109375 694 l 1
 312.8984375 300 l 2
 339.741210938 163 349.629882812 117 353.342773438 70 c 1
 366.749023438 112 453.844726562 260 471.016601562 295 c 2
 696.37109375 694 l 1
 774.37109375 694 l 1
 379 0 l 1
 287 0 l 1
 136.37109375 694 l 1
EndSplineSet
EndChar
StartChar: W
Encoding: 87 87 55
Width: 944
Flags: MW
LayerCount: 2
Fore
SplineSet
136 694 m 1
 223 694 l 1
 223 694 263 359 271 208 c 10
 280 70 l 1
 292 115 342 225 371 290 c 2
 557 694 l 1
 639 694 l 1
 639 694 667 476 685 283 c 2
 695 175 l 18
 700 125 699 80 699 70 c 1
 708 104 764 229 791 289 c 2
 979 694 l 1
 1051 694 l 1
 726 0 l 1
 639 0 l 1
 597 369 l 2
 578 577 580 549 579 624 c 1
 568 585 509 454 478 388 c 2
 298 0 l 1
 218 0 l 1
 136 694 l 1
EndSplineSet
EndChar
StartChar: X
Encoding: 88 88 56
Width: 667
Flags: MW
LayerCount: 2
Fore
SplineSet
14 0 m 1
 346 365 l 1
 347 366 l 1
 150 694 l 1
 255 694 l 1
 402 433 l 1
 636 694 l 1
 732 694 l 1
 434 366 l 1
 433 365 l 1
 652 0 l 1
 547 0 l 1
 381 305 l 1
 379 305 l 1
 110 0 l 1
 14 0 l 1
EndSplineSet
EndChar
StartChar: Y
Encoding: 89 89 57
Width: 667
Flags: MW
LayerCount: 2
Fore
SplineSet
124 694 m 1
 229 694 l 1
 339 481 l 2
 371 415 392 376 402 348 c 1
 438 397 696 694 696 694 c 17
 784 694 l 1
 425 278 l 1
 376 0 l 1
 289 0 l 1
 338 278 l 1
 124 694 l 1
EndSplineSet
EndChar
StartChar: Z
Encoding: 90 90 58
Width: 611
Flags: MW
LayerCount: 2
Fore
SplineSet
55 0 m 1
 59.408203125 25 l 2
 62.7587890625 44 62.7587890625 44 79.1083984375 63 c 2
 551.438476562 632 l 1
 180.262695312 631 l 1
 191.37109375 694 l 5
 677.37109375 694 l 1
 673.138671875 670 l 2
 669.7890625 651 668.96484375 652 653.615234375 633 c 2
 181.4609375 65 l 1
 571.637695312 66 l 1
 560 0 l 1
 55 0 l 1
EndSplineSet
EndChar
StartChar: bracketleft
Encoding: 91 91 59
Width: 289
Flags: MW
LayerCount: 2
Fore
SplineSet
56 -250 m 1xd0
 232 750 l 1
 398 750 l 1
 387 689 l 1xd0
 296 689 l 1
 142 -189 l 1xe0
 233 -189 l 1
 222 -250 l 1
 56 -250 l 1xd0
EndSplineSet
EndChar
StartChar: backslash
Encoding: 92 92 60
Width: 500
Flags: MW
LayerCount: 2
Fore
SplineSet
183 719 m 0
 186 737 203 749 218 749 c 0
 242 749 244 724 246 711 c 2
 403 -197 l 2
 404 -204 405 -211 404 -219 c 0
 402 -233 387 -250 369 -250 c 0
 343 -250 343 -220 340 -206 c 2
 182 709 l 2
 182 712 182 716 183 719 c 0
EndSplineSet
EndChar
StartChar: bracketright
Encoding: 93 93 61
Width: 289
Flags: MW
LayerCount: 2
Fore
SplineSet
-12 -189 m 1xe0
 78 -189 l 1
 232 689 l 1xd0
 142 689 l 1
 153 750 l 1
 319 750 l 1
 143 -250 l 1
 -23 -250 l 1
 -12 -189 l 1xe0
EndSplineSet
EndChar
StartChar: asciicircum
Encoding: 94 94 62
Width: 611
Flags: MW
LayerCount: 2
Fore
SplineSet
211 445 m 1
 385 630 l 1
 447 630 l 1
 555 445 l 1
 494 445 l 1
 407 581 l 1
 272 445 l 1
 211 445 l 1
EndSplineSet
EndChar
StartChar: underscore
Encoding: 95 95 63
Width: 778
Flags: MW
LayerCount: 2
Fore
SplineSet
43.7978515625 -228 m 0
 47.6767578125 -206 70.32421875 -208 81.32421875 -208 c 2
 623.32421875 -208 l 2
 634.32421875 -208 656.676757812 -206 652.797851562 -228 c 0
 651.38671875 -236 645.270507812 -248 621.270507812 -248 c 2
 74.2705078125 -248 l 2
 61.2705078125 -248 40.2705078125 -248 43.7978515625 -228 c 0
EndSplineSet
EndChar
StartChar: grave
Encoding: 96 96 64
Width: 500
Flags: MW
LayerCount: 2
Fore
SplineSet
210 640 m 1
 288 640 l 1
 398 510 l 1
 337 510 l 1
 210 640 l 1
EndSplineSet
EndChar
StartChar: a
Encoding: 97 97 65
Width: 480
Flags: MW
LayerCount: 2
Fore
SplineSet
64 113 m 0
 83 219 262 244 365 245 c 1
 371 279 l 2
 376 311 380 341 361 371 c 0
 342 400 317 401 304 401 c 0
 230 401 183 373 145 350 c 1
 151 417 l 1
 203 444 250 461 317 461 c 0
 411 461 462 387 454 305 c 2
 400 0 l 1
 324 0 l 1
 330 35 l 1
 270 -2 203 -11 156 -11 c 0
 72 -11 56 67 64 113 c 0
137 114 m 0
 130 77 166 51 219 51 c 0
 265 51 334 66 345 130 c 2
 356 193 l 1
 283 192 148 177 137 114 c 0
EndSplineSet
EndChar
StartChar: b
Encoding: 98 98 66
Width: 517
Flags: MW
LayerCount: 2
Fore
SplineSet
81 0 m 1
 208.307617188 722 l 1
 283.307617188 722 l 1
 226.001953125 397 l 1
 299.994140625 448 365.228515625 455 396.228515625 455 c 0
 495.228515625 455 540.65625 344 519.497070312 224 c 0
 496.3984375 93 396.060546875 -11 291.060546875 -11 c 0
 232.060546875 -11 195.821289062 16 167.111328125 46 c 1
 159 0 l 1
 81 0 l 1
182.451171875 133 m 2
 177.8671875 107 182.04296875 108 191.869140625 90 c 0
 209.755859375 61 237.81640625 50 266.81640625 50 c 0
 323.81640625 50 417.221679688 92 440.321289062 223 c 0
 463.772460938 356 389.47265625 394 335.47265625 394 c 0
 284.47265625 394 221.94921875 357 215.424804688 320 c 2
 182.451171875 133 l 2
EndSplineSet
EndChar
StartChar: c
Encoding: 99 99 67
Width: 444
Flags: MW
LayerCount: 2
Fore
SplineSet
74.3212890625 223 m 0
 94.7744140625 339 196.287109375 461 336.287109375 461 c 0
 398.287109375 461 428.700195312 452 483.528320312 417 c 1
 459.890625 351 l 1
 425.123046875 375 403.001953125 397 324.001953125 397 c 0
 240.001953125 397 183.1875 330 159.963867188 255 c 4
 157.0234375 244 154.260742188 234 152.321289062 223 c 0
 135.216796875 126 178.345703125 53 262.345703125 53 c 0
 340.345703125 53 392.98828125 85 428.8671875 107 c 1
 422.052734375 40 l 1
 371.763671875 10 319.060546875 -11 250.060546875 -11 c 0
 127.060546875 -11 51.5751953125 94 74.3212890625 223 c 0
EndSplineSet
EndChar
StartChar: d
Encoding: 100 100 68
Width: 517
Flags: MW
LayerCount: 2
Fore
SplineSet
73.96875 221 m 0
 88.4267578125 303 130.946289062 374 185.3515625 416 c 0
 217.759765625 441 255.405273438 456 293.405273438 456 c 0
 355.405273438 456 398.64453125 429 428.70703125 401 c 1
 485.307617188 722 l 1
 561.307617188 722 l 1
 434 0 l 1
 355 0 l 1
 364.168945312 52 l 1
 324.526367188 20 271.060546875 -11 205.060546875 -11 c 0
 169.060546875 -11 138.529296875 3 115.9375 28 c 0
 77.3427734375 70 60.0380859375 142 73.96875 221 c 0
152.14453125 222 m 0
 139.44921875 150 155.514648438 105 182.106445312 80 c 0
 203.403320312 59 232.993164062 51 256.993164062 51 c 0
 315.993164062 51 372.80859375 101 378.627929688 134 c 2
 412.306640625 325 l 2
 415.127929688 341 414.185546875 347 398.182617188 364 c 0
 373.296875 393 340.47265625 394 329.47265625 394 c 2
 327.47265625 394 l 2
 269.47265625 394 175.243164062 353 152.14453125 222 c 0
EndSplineSet
EndChar
StartChar: e
Encoding: 101 101 69
Width: 444
Flags: MW
LayerCount: 2
Fore
SplineSet
73.849609375 226 m 0
 95.890625 351 202.287109375 461 317.287109375 461 c 0
 388.287109375 461 479.057617188 420 457.905273438 249 c 2
 452.791992188 220 l 1
 142.791992188 220 l 1
 135.798828125 169 147.041015625 125 170.575195312 94 c 4
 191.813476562 67 221.993164062 51 260.993164062 51 c 0
 328.993164062 51 380.9296875 79 422.690429688 106 c 1
 417.052734375 40 l 1
 368.939453125 11 313.060546875 -11 250.060546875 -11 c 0
 119.060546875 -11 51.9853515625 102 73.849609375 226 c 0
157.490234375 275 m 1
 405.490234375 275 l 1
 409.23828125 387 335.354492188 399 306.354492188 399 c 0
 230.354492188 399 177.306640625 325 157.490234375 275 c 1
EndSplineSet
EndChar
StartChar: f
Encoding: 102 102 70
Width: 305
Flags: MW
LayerCount: 2
Fore
SplineSet
95 386 m 1
 105 445 l 1
 179 445 l 1
 192 518 l 2
 193 526 195 534 196 542 c 0
 207 607 236 657 276 689 c 0
 311 718 354 733 397 733 c 0
 428 733 452 728 474 722 c 1
 462 655 l 1
 441 664 416 672 384 672 c 0
 363 672 335 666 313 648 c 4
 296 634 281 613 275 581 c 2
 251 445 l 1
 364 445 l 1
 354 386 l 1
 244 386 l 1
 176 0 l 1
 101 0 l 1
 169 386 l 1
 95 386 l 1
EndSplineSet
EndChar
StartChar: g
Encoding: 103 103 71
Width: 500
Flags: MW
LayerCount: 2
Fore
SplineSet
183 292 m 0
 178 263 181 240 190 222 c 0
 202 199 225 187 255 187 c 0
 275 187 302 194 325 216 c 0
 342 232 357 257 363 293 c 0
 364 301 365 309 365 316 c 0
 366 343 359 364 345 378 c 0
 332 391 314 398 291 398 c 0
 273 398 249 393 228 376 c 0
 212 363 198 344 189 315 c 0
 187 308 184 300 183 292 c 0
84 -71 m 0
 80 -94 93 -112 114 -124 c 0
 139 -138 172 -146 202 -148 c 0
 209 -149 215 -149 221 -149 c 0
 268 -149 315 -138 347 -120 c 0
 369 -107 385 -91 388 -72 c 0
 395 -31 359 -3 251 -3 c 2
 188 -3 l 1
 159 -4 l 2
 117 -7 89 -43 84 -71 c 0
14 -71 m 0
 21 -30 54 9 97 32 c 1
 85 55 79 76 85 108 c 0
 91 140 107 168 129 192 c 1
 129 193 l 1
 106 233 109 272 113 292 c 0
 121 340 153 387 194 418 c 0
 225 441 261 455 301 455 c 0
 306 455 311 454 316 454 c 0
 344 451 367 442 391 424 c 1
 444 444 502 455 554 455 c 1
 554 392 l 1
 534 394 516 395 496 395 c 0
 473 395 437 392 417 391 c 1
 434 359 439 332 432 292 c 0
 424 248 399 206 364 176 c 0
 331 147 289 129 244 129 c 0
 188 129 161 158 158 159 c 0
 144 139 142 129 141 122 c 0
 137 98 143 69 187 69 c 2
 262 69 l 2
 300 69 356 68 399 49 c 4
 431 35 456 10 460 -33 c 0
 461 -45 461 -57 459 -70 c 0
 451 -115 411 -154 355 -178 c 0
 314 -196 265 -206 213 -206 c 0
 167 -206 126 -197 92 -183 c 0
 61 -170 38 -152 25 -130 c 0
 15 -112 10 -92 14 -71 c 0
EndSplineSet
EndChar
StartChar: h
Encoding: 104 104 72
Width: 517
Flags: MW
LayerCount: 2
Fore
SplineSet
80 0 m 1
 207 722 l 1
 282 722 l 1
 223 384 l 1
 263 422 310 455 379 455 c 0
 487 455 497 385 492 326 c 0
 491 312 489 299 487 288 c 2
 436 0 l 1
 358 0 l 1
 408 281 l 2
 418 340 416 394 329 394 c 0
 253 394 213 314 200 240 c 2
 158 0 l 1
 80 0 l 1
EndSplineSet
EndChar
StartChar: i
Encoding: 105 105 73
Width: 239
Flags: MW
LayerCount: 2
Fore
SplineSet
178 590 m 1
 194 679 l 1
 284 679 l 1
 268 590 l 1
 178 590 l 1
EndSplineSet
Refer: 137 305 N 1 0 0 1 0 0 2
EndChar
StartChar: j
Encoding: 106 106 74
Width: 267
Flags: MW
LayerCount: 2
Fore
SplineSet
-91.15234375 -171 m 5
 -65.3955078125 -110 l 5
 -43.9228515625 -130 -23.8623046875 -141 7.1376953125 -141 c 4
 48.1376953125 -141 80.3701171875 -117 91.9541015625 -91 c 4
 95.365234375 -83 96.9521484375 -74 98.5390625 -65 c 6
 188.465820312 445 l 5
 263.465820312 445 l 5
 176.18359375 -50 l 6xe8
 166.485351562 -105 143.961914062 -142 118.729492188 -166 c 4
 87.6162109375 -195 50.8525390625 -205 22.8525390625 -205 c 4
 -25.1474609375 -205 -63.326171875 -189 -91.15234375 -171 c 5
200.033203125 590 m 1
 215.725585938 679 l 1
 305.725585938 679 l 1
 290.033203125 590 l 1
 200.033203125 590 l 1
EndSplineSet
EndChar
StartChar: k
Encoding: 107 107 75
Width: 489
Flags: MW
LayerCount: 2
Fore
SplineSet
83 0 m 1
 210.307617188 722 l 1
 282.307617188 722 l 1
 196.61328125 236 l 1
 437.465820312 445 l 1
 527.465820312 445 l 1
 329.137695312 273 l 1
 471 0 l 1
 389 0 l 1
 272.497070312 224 l 1
 178.038085938 142 l 1
 153 0 l 1
 83 0 l 1
EndSplineSet
EndChar
StartChar: l
Encoding: 108 108 76
Width: 239
Flags: MW
LayerCount: 2
Fore
SplineSet
81 0 m 1
 208 722 l 1
 283 722 l 1
 156 0 l 1
 81 0 l 1
EndSplineSet
EndChar
StartChar: m
Encoding: 109 109 77
Width: 794
Flags: MW
LayerCount: 2
Fore
SplineSet
80 0 m 1xdc
 159 450 l 1
 232 450 l 1
 224 404 l 1
 220 380 l 1
 237 398 291 455 379 455 c 0
 463 455 485 412 492 374 c 1
 511 394 566 455 657 455 c 0
 698 455 726 445 743 429 c 4
 769 405 773 368 771 334 c 0
 770 317 767 302 765 288 c 2
 714 0 l 1
 635 0 l 1
 685 281 l 2
 695 340 694 394 607 394 c 0
 531 394 491 314 478 240 c 2
 436 0 l 1
 358 0 l 1
 408 281 l 2
 418 340 416 394 329 394 c 0xec
 253 394 213 314 200 240 c 2
 158 0 l 1
 80 0 l 1xdc
EndSplineSet
EndChar
StartChar: n
Encoding: 110 110 78
Width: 517
Flags: MW
LayerCount: 2
Fore
SplineSet
80 0 m 1xd8
 159.346679688 450 l 1
 232.346679688 450 l 1
 224.94140625 408 l 5
 220.00390625 380 l 1
 237.177734375 398 291.228515625 455 379.228515625 455 c 0
 430.228515625 455 459.583984375 440 475.528320312 417 c 0
 492.296875 393 494.477539062 360 491.834960938 328 c 0
 490.366210938 314 489.07421875 301 486.782226562 288 c 2
 436 0 l 1
 358 0 l 1
 407.547851562 281 l 2
 417.951171875 340 416.47265625 394 329.47265625 394 c 0xe8
 253.47265625 394 213.366210938 314 200.318359375 240 c 2
 158 0 l 1
 80 0 l 1xd8
EndSplineSet
EndChar
StartChar: o
Encoding: 111 111 79
Width: 500
Flags: MW
LayerCount: 2
Fore
SplineSet
69 221 m 0
 89 336 195 461 330 461 c 0
 449 461 532 355 508 220 c 0
 484 84 361 -11 247 -11 c 0
 133 -11 45 84 69 221 c 0
149 231 m 0
 129 119 180 53 258 53 c 0
 325 53 409 106 431 231 c 0
 450 337 398 399 319 399 c 0
 255 399 170 352 149 231 c 0
EndSplineSet
EndChar
StartChar: p
Encoding: 112 112 80
Width: 517
Flags: MW
LayerCount: 2
Fore
SplineSet
47 -195 m 1
 159 445 l 1
 234 445 l 1
 226 396 l 1
 251 414 276 426 299 435 c 0
 343 452 380 455 402 455 c 0
 448 455 482 428 503 386 c 0
 523 343 530 285 519 224 c 0
 507 157 475 94 429 50 c 0
 390 13 343 -11 292 -11 c 0
 256 -11 227 -1 204 14 c 0
 190 23 178 34 167 46 c 1
 125 -195 l 1
 47 -195 l 1
181 126 m 2
 179 112 188 89 207 72 c 0
 221 60 240 50 265 50 c 0
 301 50 342 68 376 100 c 0
 407 130 431 171 440 222 c 0
 442 233 444 244 444 254 c 4
 445 291 436 325 417 350 c 0
 398 375 370 391 334 391 c 0
 305 391 280 381 261 370 c 0
 234 354 219 334 218 334 c 1
 181 126 l 2
EndSplineSet
EndChar
StartChar: q
Encoding: 113 113 81
Width: 517
Flags: MW
LayerCount: 2
Fore
SplineSet
73.96875 221 m 0
 97.0673828125 352 197.228515625 455 301.228515625 455 c 0
 366.228515625 455 403.233398438 421 426.415039062 388 c 1
 438.228515625 455 l 1
 514.228515625 455 l 1xf4
 399.616210938 -195 l 1
 320.616210938 -195 l 1
 363.81640625 50 l 1xf8
 318.46875 14 262.060546875 -11 202.060546875 -11 c 0
 159.060546875 -11 124.763671875 10 101.758789062 44 c 4
 73.3408203125 87 61.44921875 150 73.96875 221 c 0
151.96875 221 m 0
 142.975585938 170 153.688476562 123 177.221679688 92 c 0
 196.813476562 67 223.993164062 51 257.993164062 51 c 0
 311.993164062 51 374.750976562 95 382.333007812 138 c 2
 408.252929688 285 l 2
 413.366210938 314 399.120117188 392 327.120117188 392 c 0xf4
 292.120117188 392 243.59375 372 206.541015625 332 c 0
 180.603515625 304 160.079101562 267 151.96875 221 c 0
EndSplineSet
EndChar
StartChar: r
Encoding: 114 114 82
Width: 342
Flags: MW
LayerCount: 2
Fore
SplineSet
81 0 m 1xd0
 160 450 l 1
 230 450 l 1
 222 404 l 5
 214 360 l 1xe0
 235 384 300 454 406 455 c 1
 394 388 l 1
 336 386 218 351 192 206 c 2xd0
 156 0 l 1
 81 0 l 1xd0
EndSplineSet
EndChar
StartChar: s
Encoding: 115 115 83
Width: 383
Flags: MW
LayerCount: 2
Fore
SplineSet
33 34 m 1
 57 102 l 1
 96 77 130 52 205 52 c 0
 280 52 305 93 310 120 c 0
 317 159 284 178 265 184 c 0
 244 191 202 196 173 206 c 0
 147 214 119 232 102 260 c 0
 91 278 86 301 91 329 c 0
 97 363 116 407 165 435 c 4
 193 451 229 461 278 461 c 0
 334 461 369 453 419 430 c 1
 396 364 l 1
 359 383 331 401 259 401 c 0
 190 401 168 364 164 340 c 0
 151 267 265 278 317 252 c 0
 355 233 393 192 382 127 c 0
 376 93 358 49 314 20 c 0
 286 1 247 -11 195 -11 c 0
 161 -11 101 -7 33 34 c 1
EndSplineSet
EndChar
StartChar: t
Encoding: 116 116 84
Width: 361
Flags: MW
LayerCount: 2
Fore
SplineSet
86 386 m 1
 96 445 l 1
 182 445 l 1
 205 571 l 1
 275 571 l 1
 252 445 l 1
 393 445 l 1
 383 386 l 1
 242 386 l 1
 199 140 l 2
 195 117 191 86 204 68 c 4
 210 59 220 53 237 53 c 0
 284 53 319 80 331 86 c 1
 337 27 l 1
 280 -1 226 -11 182 -11 c 0
 165 -11 144 -6 131 14 c 0
 119 33 114 64 123 117 c 2
 170 386 l 1
 86 386 l 1
EndSplineSet
EndChar
StartChar: u
Encoding: 117 117 85
Width: 517
Flags: MW
LayerCount: 2
Fore
SplineSet
101.51171875 122 m 2
 158.465820312 445 l 1
 236.465820312 445 l 1
 177.395507812 110 l 2
 174.516601562 88 174.51953125 71 184.580078125 60 c 0
 194.81640625 50 212.934570312 45 245.934570312 45 c 0
 280.934570312 45 309.874023438 56 332.6953125 72 c 0
 357.869140625 90 374.1015625 114 380.98046875 136 c 0
 383.744140625 146 385.506835938 156 387.09375 165 c 2
 436.465820312 445 l 1
 514.465820312 445 l 1
 436 0 l 1
 360 0 l 1
 364.9375 28 l 1
 368.463867188 48 l 1
 345.290039062 30 318.998046875 17 293.41015625 8 c 0
 254.942382812 -6 215.060546875 -11 183.060546875 -11 c 0
 148.060546875 -11 126.647460938 -2 113.116210938 12 c 0
 87.052734375 40 95.3408203125 87 101.51171875 122 c 2
EndSplineSet
EndChar
StartChar: v
Encoding: 118 118 86
Width: 461
Flags: MW
LayerCount: 2
Fore
SplineSet
92 445 m 1
 169 445 l 1
 219 201 l 2
 238 97 241 81 241 50 c 1
 262 116 430 406 450 445 c 1
 524 445 l 1
 274 0 l 1
 186 0 l 1
 92 445 l 1
EndSplineSet
EndChar
StartChar: w
Encoding: 119 119 87
Width: 683
Flags: MW
LayerCount: 2
Fore
SplineSet
92 445 m 1
 167 445 l 1
 213 114 206 90 206 50 c 1
 222 125 374 427 381 445 c 1
 452 445 l 1
 482 201 l 2
 493 96 495 81 494 50 c 1
 512 116 662 419 674 445 c 1
 747 445 l 1
 531 0 l 1
 444 0 l 1
 398 372 405 328 406 394 c 1
 388 315 240 24 231 0 c 1
 152 0 l 1
 92 445 l 1
EndSplineSet
EndChar
StartChar: x
Encoding: 120 120 88
Width: 461
Flags: MW
LayerCount: 2
Fore
SplineSet
0 0 m 1
 234.202148438 228 l 1
 234.555664062 230 l 1
 84.4658203125 445 l 1
 167.465820312 445 l 1
 276.37109375 280 l 1
 277.37109375 280 l 1
 439.465820312 445 l 1
 522.465820312 445 l 1
 300.555664062 230 l 1
 300.37890625 229 l 1
 460 0 l 1
 377 0 l 1
 260.149414062 188 l 1
 83 0 l 1
 0 0 l 1
EndSplineSet
EndChar
StartChar: y
Encoding: 121 121 89
Width: 461
Flags: MW
LayerCount: 2
Fore
SplineSet
92.4658203125 445 m 1
 171.465820312 445 l 1
 261.280273438 98 244.514648438 105 246.81640625 50 c 1
 264.862304688 141 441.291992188 427 449.465820312 445 c 1
 524.465820312 445 l 1
 213.130859375 -90 l 2
 182.314453125 -140 159.201171875 -169 136.203125 -186 c 4
 116.734375 -200 98.8525390625 -205 77.8525390625 -205 c 0
 58.8525390625 -205 29.2060546875 -203 6.263671875 -197 c 1
 12.724609375 -132 l 1
 43.78515625 -143 65.7275390625 -149 82.7275390625 -149 c 0
 96.7275390625 -149 108.432617188 -145 120.196289062 -135 c 0
 140.193359375 -118 161.365234375 -83 199.35546875 -15 c 0
 203.58984375 -8 205.470703125 -3 206.176757812 1 c 0
 207.057617188 6 205.763671875 10 204.173828125 18 c 2
 92.4658203125 445 l 1
EndSplineSet
EndChar
StartChar: z
Encoding: 122 122 90
Width: 435
Flags: MW
LayerCount: 2
Fore
SplineSet
27 0 m 1
 34 41 l 1
 361 386 l 1
 109 385 l 1
 119 445 l 1
 476 445 l 1
 469 405 l 1
 144 62 l 1
 412 63 l 5
 401 0 l 1
 27 0 l 1
EndSplineSet
EndChar
StartChar: braceleft
Encoding: 123 123 91
Width: 500
Flags: MW
LayerCount: 2
Fore
SplineSet
91 219 m 1
 102 281 l 1
 163 281 236 306 268 363 c 0
 272 371 276 380 279 389 c 2
 319 619 l 2
 324 641 324 653 339 674 c 0
 358 703 389 723 426 735 c 4
 456 745 490 750 525 750 c 2
 578 750 l 1
 567 689 l 1
 543 689 l 2
 413 689 403 655 397 621 c 2
 360 410 l 2
 356 387 349 367 340 350 c 0
 299 275 213 255 171 251 c 9
 171 250 l 17
 213 247 297 225 306 138 c 0
 308 124 307 108 304 90 c 2
 266 -125 l 2
 259 -163 274 -189 389 -189 c 0
 413 -189 l 1
 402 -250 l 1
 357 -250 l 2
 321 -250 281 -249 242 -229 c 0
 168 -192 189 -133 189 -119 c 1
 226 88 l 2
 230 109 232 121 228 140 c 0
 214 192 155 219 91 219 c 1
EndSplineSet
EndChar
StartChar: bar
Encoding: 124 124 92
Width: 278
Flags: MW
LayerCount: 2
Fore
SplineSet
79.2080078125 -220 m 2
 244.955078125 720 l 2
 247.248046875 733 251.482421875 740 256.1875 744 c 0
 260.892578125 748 266.069335938 749 270.069335938 749 c 0
 278.069335938 749 281.540039062 746 283.658203125 741 c 0
 287.423828125 734 285.661132812 724 284.955078125 720 c 2
 119.208007812 -220 l 2
 117.268554688 -231 114.034179688 -238 110.329101562 -242 c 4
 105.270507812 -248 99.0947265625 -249 94.0947265625 -249 c 0
 86.0947265625 -249 82.6240234375 -246 80.3291015625 -242 c 0
 77.38671875 -236 77.9736328125 -227 79.2080078125 -220 c 2
EndSplineSet
EndChar
StartChar: braceright
Encoding: 125 125 93
Width: 500
Flags: MW
LayerCount: 2
Fore
SplineSet
18.673828125 -189 m 1
 34.673828125 -189 52.673828125 -189 71.8505859375 -188 c 4
 119.203125 -186 168.790039062 -177 183.78515625 -143 c 0
 187.372070312 -134 187.958984375 -125 189.545898438 -116 c 2
 225.869140625 90 l 2
 228.337890625 104 231.806640625 118 236.922851562 130 c 0
 271.615234375 219 373.375976562 246 415.08203125 250 c 9
 415.2578125 251 l 17
 375.787109375 254 297.9609375 272 282.185546875 347 c 0
 278.359375 365 277.885742188 385 282.293945312 410 c 2
 319.8515625 623 l 2
 329.197265625 676 299.3125 688 173.489257812 689 c 1
 184.245117188 750 l 1
 237.245117188 750 l 2
 408.245117188 750 404.494140625 655 399.380859375 626 c 0
 398.67578125 622 397.146484375 619 397.146484375 619 c 1
 360.646484375 412 l 2
 357.944335938 391 354.828125 379 359.477539062 360 c 0
 373.1328125 307 431.547851562 281 495.547851562 281 c 1
 484.615234375 219 l 1
 415.615234375 219 328.796875 186 308.572265625 111 c 2
 303.516601562 88 l 1
 267.016601562 -119 l 2
 263.137695312 -141 260.845703125 -154 248.319335938 -174 c 0
 232.086914062 -198 207.913085938 -216 178.797851562 -228 c 0
 144.15234375 -243 103.91796875 -250 60.91796875 -250 c 2
 7.91796875 -250 l 1
 18.673828125 -189 l 1
EndSplineSet
EndChar
StartChar: asciitilde
Encoding: 126 126 94
Width: 611
Flags: MW
LayerCount: 2
Fore
SplineSet
181 557 m 1xb0
 197 632 264 676 329 676 c 0x70
 397 676 444 619 508 619 c 0xb0
 542 619 574 638 585 676 c 1
 646 676 l 1x70
 630 602 563 557 498 557 c 0xb0
 430 557 383 615 319 615 c 0x70
 285 615 253 595 242 557 c 1
 181 557 l 1xb0
EndSplineSet
EndChar
StartChar: exclamdown
Encoding: 161 161 100
Width: 319
Flags: MW
LayerCount: 2
Fore
SplineSet
83 -195 m 1xe0
 187 353 l 1
 254 353 l 1xd0
 175 -143 l 1
 167 -195 l 1
 83 -195 l 1xe0
EndSplineSet
Refer: 14 46 S 1 0 0 1 99 444 2
EndChar
StartChar: cent
Encoding: 162 162 101
Width: 500
Flags: MW
LayerCount: 2
Fore
SplineSet
74.14453125 222 m 0
 93.1875 330 189.759765625 441 327.934570312 459 c 1
 343.451171875 547 l 1
 402.451171875 547 l 1
 387.110351562 460 l 1
 450.7578125 458 479.170898438 449 538.528320312 417 c 1
 515.890625 351 l 1
 471.298828125 376 450.120117188 392 375.825195312 396 c 1
 315.521484375 54 l 1
 381.580078125 60 421.047851562 74 483.8671875 107 c 1
 478.052734375 40 l 1
 420.939453125 11 372.118164062 -5 304.236328125 -10 c 1
 288.896484375 -97 l 1
 229.896484375 -97 l 1
 245.413085938 -9 l 1
 130.881835938 5 52.6328125 100 74.14453125 222 c 0
149.736328125 197 m 4
 146.51171875 122 188.166992188 69 256.874023438 56 c 1
 316.47265625 394 l 1
 217.475585938 377 165.016601562 295 152.321289062 223 c 0
 150.734375 214 150.147460938 205 149.736328125 197 c 4
EndSplineSet
EndChar
StartChar: sterling
Encoding: 163 163 102
Width: 639
Flags: MW
LayerCount: 2
Fore
SplineSet
65.2265625 58 m 0
 74.3955078125 110 138.567382812 145 208.567382812 145 c 0
 228.567382812 145 244.038085938 142 258.333007812 138 c 1
 263.506835938 156 268.680664062 174 272.20703125 194 c 2
 296.541015625 332 l 1
 224.541015625 332 l 1
 234.767578125 390 l 1
 306.767578125 390 l 1
 331.100585938 528 l 2
 345.912109375 612 381.138671875 670 421.663085938 707 c 0
 464.715820312 747 512.537109375 763 549.537109375 763 c 0
 683.537109375 763 688.501953125 604 678.803710938 549 c 0
 672.279296875 512 648.397460938 507 636.397460938 507 c 0
 603.397460938 507 599.392578125 541 599.392578125 541 c 1
 599.392578125 541 l 1xfc
 600.626953125 548 600.861328125 555 602.095703125 562 c 0
 616.549804688 678 572.78125 702 539.78125 702 c 0
 519.78125 702 494.546875 695 470.315429688 671 c 0
 453.317382812 654 436.733398438 628 424.033203125 590 c 0
 418.03515625 573 413.861328125 555 409.982421875 533 c 2
 384.767578125 390 l 1
 484.767578125 390 l 1
 474.541015625 332 l 1
 374.541015625 332 l 1
 350.03125 193 l 2
 344.565429688 162 339.390625 144 324.749023438 112 c 1
 340.514648438 105 431.81640625 50 488.81640625 50 c 0
 530.81640625 50 546.106445312 80 557.567382812 145 c 1
 635.567382812 145 l 1xfa
 615.463867188 48 530.060546875 -11 451.060546875 -11 c 0
 400.060546875 -11 367.881835938 5 277.993164062 51 c 5
 216.58984375 -8 154.060546875 -11 138.060546875 -11 c 0
 92.060546875 -11 57.998046875 17 65.2265625 58 c 0
140.755859375 61 m 0
 139.521484375 54 144.993164062 51 152.993164062 51 c 0
 183.993164062 51 215.400390625 76 215.400390625 76 c 1
 196.282226562 81 181.634765625 83 171.634765625 83 c 0xf8
 147.634765625 83 141.990234375 68 140.755859375 61 c 0
EndSplineSet
EndChar
StartChar: currency
Encoding: 164 164 106
Width: 757
Flags: MW
LayerCount: 2
Fore
SplineSet
41 -29 m 0
 41 -27 42 -25 43 -22 c 1
 46 -16 51 -11 64 0 c 0
 81 15 112 40 171 90 c 1
 171 91 l 1
 129 149 120 222 131 286 c 0
 144 357 183 428 240 481 c 1
 240 482 l 1
 163 574 150 586 152 600 c 0
 153 607 163 618 174 618 c 2
 177 618 l 2
 185 618 186 614 273 510 c 1
 334 557 410 583 481 583 c 0
 545 583 614 561 663 510 c 1
 664 510 l 1
 780 608 l 2
 786 613 795 618 800 618 c 0
 807 618 819 614 816 596 c 0
 815 588 811 586 687 481 c 1
 724 427 738 357 725 286 c 0
 711 204 669 141 618 90 c 1
 700 -8 707 -14 705 -28 c 0
 705 -36 700 -38 698 -41 c 1
 690 -45 687 -47 685 -47 c 0
 683 -47 681 -46 678 -46 c 1
 667 -40 657 -26 585 62 c 1
 584 62 l 1
 523 15 447 -11 376 -11 c 0
 294 -11 237 20 194 62 c 1
 67 -46 70 -46 56 -46 c 0
 46 -46 40 -34 41 -29 c 0
171 286 m 0
 148 154 228 42 360 30 c 0
 368 29 375 29 383 29 c 0
 521 29 659 139 685 286 c 0
 710 425 619 543 475 543 c 0
 470 543 465 543 460 543 c 0
 326 535 196 426 171 286 c 0
EndSplineSet
EndChar
StartChar: yen
Encoding: 165 165 95
Width: 667
Flags: MW
LayerCount: 2
Fore
SplineSet
6 189 m 0
 8 200 13 206 19 211 c 0
 29 219 44 220 52 220 c 2
 329 220 l 1
 339 278 l 1
 298 358 l 1
 79 358 l 2
 75 358 70 358 65 359 c 0
 58 360 51 362 47 366 c 0
 43 370 39 377 41 388 c 0
 42 396 47 406 57 412 c 0
 64 416 74 419 88 419 c 2
 96 419 l 2
 98 419 101 419 103 420 c 1
 267 420 l 1
 125 694 l 1
 231 694 l 1
 370 420 l 1
 462 420 l 1
 698 694 l 1
 786 694 l 1
 549 420 l 1
 727 420 l 2
 734 420 739 419 744 418 c 0
 763 413 764 399 762 388 c 0
 759 369 746 362 733 359 c 0
 727 358 720 358 715 358 c 2
 496 358 l 1
 426 278 l 1
 416 220 l 1
 689 220 l 2
 696 220 702 220 709 218 c 0
 721 214 729 202 727 189 c 0
 725 175 714 163 700 160 c 0
 693 158 686 158 679 158 c 2
 405 158 l 1
 377 0 l 1
 290 0 l 1
 318 158 l 1
 44 158 l 2
 41 158 37 158 34 158 c 0
 30 158 27 159 24 160 c 0
 19 161 15 164 12 167 c 0
 7 172 4 180 6 189 c 0
400 358 m 1
 403 348 l 1
 411 358 l 1
 400 358 l 1
EndSplineSet
EndChar
StartChar: brokenbar
Encoding: 166 166 96
Width: 167
Flags: MW
LayerCount: 2
Fore
SplineSet
88 141 m 2
 92 165 105 169 113 169 c 0
 134 169 128 142 128 142 c 1
 64 -221 l 2
 60 -245 47 -249 39 -249 c 0
 18 -249 24 -222 24 -222 c 1
 88 141 l 2
126 358 m 1
 190 721 l 2
 194 744 207 749 215 749 c 0
 236 749 230 723 230 722 c 2
 166 360 l 2
 162 335 149 331 141 331 c 0
 120 331 126 358 126 358 c 1
EndSplineSet
EndChar
StartChar: section
Encoding: 167 167 105
Width: 444
Flags: MW
LayerCount: 2
Fore
SplineSet
20.548828125 -133 m 1
 44.5390625 -65 l 1
 61.4833984375 -88 94.609375 -144 191.609375 -144 c 0
 254.609375 -144 281.952148438 -74 288.65234375 -36 c 0
 303.463867188 48 230.224609375 75 214.634765625 83 c 0
 190.280273438 98 96.859375 158 116.784179688 271 c 0
 124.719726562 316 145.538085938 349 165.76953125 373 c 0
 190.70703125 401 215.17578125 415 215.17578125 415 c 1
 215.528320312 417 l 17
 186.5234375 451 156.634765625 497 168.272460938 563 c 0
 182.5546875 644 254.248046875 733 353.248046875 733 c 0
 422.248046875 733 457.192382812 710 490.020507812 675 c 1
 477.497070312 638 l 1
 466.3828125 609 l 1
 455.028320312 624 424.4921875 672 344.4921875 672 c 0
 282.4921875 672 254.1484375 602 247.448242188 564 c 0
 240.748046875 526 252.987304688 499 268.813476562 481 c 0
 287.934570312 459 313.170898438 449 321.465820312 445 c 0
 345.8203125 430 439.241210938 370 419.31640625 257 c 0
 411.91015625 215 393.267578125 183 374.036132812 159 c 0
 358.685546875 140 343.393554688 127 320.749023438 112 c 1
 320.395507812 110 l 17
 349.577148438 77 379.818359375 33 367.828125 -35 c 0
 353.016601562 -119 281.852539062 -205 180.852539062 -205 c 0
 98.8525390625 -205 55.4951171875 -173 20.548828125 -133 c 1
195.9609375 272 m 0
 189.965820312 238 198.557617188 213 211.383789062 195 c 0
 232.09375 165 266.154296875 154 270.154296875 154 c 0
 291.154296875 154 329.736328125 197 340.139648438 256 c 0
 347.369140625 297 333.306640625 325 315.48046875 343 c 0
 295.359375 365 269.76953125 373 265.76953125 373 c 0
 244.76953125 373 206.1875 330 195.9609375 272 c 0
EndSplineSet
EndChar
StartChar: copyright
Encoding: 169 169 143
Width: 1111
Flags: MW
LayerCount: 2
Fore
SplineSet
99 250 m 0
 149 535 412 772 691 772 c 0
 956 772 1151 548 1098 250 c 0
 1049 -28 793 -272 506 -272 c 0
 239 -272 47 -46 99 250 c 0
139 250 m 0
 93 -13 257 -232 512 -232 c 0
 763 -232 1010 -21 1058 250 c 0
 1104 513 939 732 685 732 c 0
 432 732 186 519 139 250 c 0
331 243 m 0
 341 301 373 355 422 399 c 4
 493 464 599 508 717 508 c 0
 772 508 810 500 856 484 c 1
 828 401 l 1
 797 423 772 444 703 444 c 0
 567 444 440 355 420 243 c 0
 403 146 477 42 635 42 c 0
 713 42 740 59 791 86 c 1
 785 17 l 1
 730 -9 702 -22 622 -22 c 0
 462 -22 352 60 331 167 c 0
 326 191 326 217 331 243 c 0
EndSplineSet
EndChar
StartChar: ordfeminine
Encoding: 170 170 131
Width: 444
Flags: MW
LayerCount: 2
Fore
SplineSet
126 465 m 0
 131 495 158 515 192 528 c 0
 254 552 342 554 364 554 c 1
 370 590 l 2
 380 646 378 707 327 707 c 0
 266 707 222 673 199 656 c 1
 205 724 l 1
 250 752 290 766 341 766 c 0
 396 766 474 728 449 588 c 2
 411 375 l 1
 335 375 l 1
 341 408 l 1
 326 399 273 364 194 364 c 0
 125 364 121 435 126 465 c 0
201 472 m 1
 192 440 222 426 255 426 c 0
 295 426 337 448 351 487 c 2
 355 503 l 1
 264 500 214 482 205 477 c 1
 201 472 l 1
EndSplineSet
EndChar
StartChar: guillemotleft
Encoding: 171 171 108
Width: 667
Flags: MW
LayerCount: 2
Fore
SplineSet
148.791992188 220 m 5
 411.407226562 439 l 5
 476.407226562 439 l 5
 221.615234375 219 l 5
 399 0 l 5
 334 0 l 5
 148.791992188 220 l 5
314.791992188 220 m 5
 577.407226562 439 l 5
 642.407226562 439 l 5
 388.615234375 219 l 5
 565 0 l 5
 500 0 l 5
 314.791992188 220 l 5
EndSplineSet
EndChar
StartChar: logicalnot
Encoding: 172 172 144
Width: 667
Flags: MW
LayerCount: 2
Fore
SplineSet
114.541015625 332 m 0
 118.419921875 354 141.890625 351 152.067382812 352 c 2
 645.067382812 352 l 2
 671.067382812 352 669.24609375 336 666.954101562 323 c 2
 622.51953125 71 l 2
 618.287109375 47 605.58203125 43 597.58203125 43 c 0
 584.58203125 43 582.168945312 52 581.580078125 60 c 0
 581.4609375 65 582.342773438 70 582.872070312 73 c 2
 625.013671875 312 l 1
 143.013671875 312 l 2
 140.013671875 312 138.013671875 312 135.013671875 312 c 4
 121.190429688 313 112.072265625 318 114.541015625 332 c 0
EndSplineSet
EndChar
StartChar: registered
Encoding: 174 174 145
Width: 1111
Flags: MW
LayerCount: 2
Fore
SplineSet
99.08203125 250 m 0
 149.334960938 535 412.124023438 772 691.124023438 772 c 0
 956.124023438 772 1150.62695312 548 1098.08203125 250 c 0
 1049.0625 -28 793.0390625 -272 506.0390625 -272 c 0
 239.0390625 -272 46.888671875 -46 99.08203125 250 c 0
139.08203125 250 m 0
 92.7080078125 -13 257.091796875 -232 512.091796875 -232 c 0
 763.091796875 -232 1010.296875 -21 1058.08203125 250 c 0
 1104.45605469 513 939.071289062 732 685.071289062 732 c 0
 432.071289062 732 186.513671875 519 139.08203125 250 c 0
345 0 m 1
 430.6953125 486 l 1
 654.6953125 486 l 2
 707.6953125 486 768.166015625 483 825.052734375 454 c 0
 846.11328125 443 861.997070312 431 873.705078125 418 c 0
 892.001953125 397 897.946289062 374 894.067382812 352 c 0
 882.252929688 285 796.142578125 239 709.96875 221 c 1
 860 0 l 1
 770 0 l 1
 631.380859375 212 l 1
 468.380859375 212 l 1
 431 0 l 1
 345 0 l 1
479.313476562 274 m 1
 602.313476562 274 l 2
 614.313476562 274 625.313476562 274 636.313476562 274 c 4
 678.490234375 275 710.018554688 278 744.311523438 291 c 0
 808.366210938 314 810.008789062 346 812.890625 351 c 1
 815.767578125 390 792.8203125 430 628.8203125 430 c 2
 507.8203125 430 l 1
 496.76953125 373 l 1
 479.313476562 274 l 1
EndSplineSet
EndChar
StartChar: macron
Encoding: 175 175 127
Width: 500
Flags: MW
LayerCount: 2
Fore
SplineSet
177.969726562 618 m 1
 189.254882812 682 l 1
 549.254882812 682 l 1
 537.969726562 618 l 1
 177.969726562 618 l 1
EndSplineSet
EndChar
StartChar: degree
Encoding: 176 176 146
Width: 333
Flags: MW
LayerCount: 2
Fore
SplineSet
158 583 m 0
 169 644 227 694 288 694 c 0
 352 694 390 642 380 583 c 0
 369 522 310 472 249 472 c 0
 185 472 148 524 158 583 c 0
198 583 m 0
 192 548 212 515 252 513 c 0
 253 513 255 513 256 513 c 0
 294 513 332 542 339 583 c 0
 345 619 323 654 281 654 c 0
 243 654 205 624 198 583 c 0
EndSplineSet
EndChar
StartChar: plusminus
Encoding: 177 177 147
Width: 778
Flags: MW
LayerCount: 2
Fore
SplineSet
59.3505859375 19 m 0
 61.4658203125 31 69.34765625 36 76.7001953125 38 c 0
 80.876953125 39 86.052734375 40 90.052734375 40 c 2
 375.052734375 40 l 1
 423.190429688 313 l 1
 141.190429688 313 l 2
 133.190429688 313 125.366210938 314 119.895507812 317 c 0
 115.424804688 320 113.129882812 324 114.716796875 333 c 0
 116.303710938 342 120.008789062 346 125.538085938 349 c 0
 132.067382812 352 140.243164062 353 147.243164062 353 c 2
 430.243164062 353 l 1
 479.967773438 635 l 2
 480.672851562 639 482.202148438 642 482.907226562 646 c 0
 485.670898438 656 491.2578125 665 504.2578125 665 c 4
 505.2578125 665 l 0
 519.2578125 665 522.670898438 656 521.907226562 646 c 0
 521.377929688 643 520.672851562 639 520.143554688 636 c 2
 470.243164062 353 l 1
 752.243164062 353 l 2
 759.243164062 353 767.067382812 352 772.538085938 349 c 0
 778.008789062 346 781.303710938 342 779.716796875 333 c 0
 778.482421875 326 775.77734375 322 771.248046875 319 c 0
 764.366210938 314 755.190429688 313 746.190429688 313 c 2
 463.190429688 313 l 1
 415.052734375 40 l 1
 702.052734375 40 l 2
 709.052734375 40 713.700195312 38 717.34765625 36 c 0
 719.995117188 34 722.642578125 32 723.11328125 29 c 0
 724.584960938 26 724.055664062 23 723.526367188 20 c 0
 722.291992188 13 718.41015625 8 713.881835938 5 c 0
 707 0 697 0 692 0 c 2
 84 0 l 2
 58 0 58.46875 14 59.3505859375 19 c 0
EndSplineSet
EndChar
StartChar: two.superior
Encoding: 178 178 148
Width: 444
Flags: MW
LayerCount: 2
Fore
SplineSet
162.841796875 691 m 1
 218.892578125 748 270.124023438 772 343.124023438 772 c 0
 453.124023438 772 518.192382812 710 503.028320312 624 c 0
 489.098632812 545 396.453125 530 319.282226562 495 c 0
 306.400390625 490 294.166015625 483 191.997070312 431 c 1
 340.997070312 431 l 1
 366.172851562 432 l 1
 469.172851562 432 l 1
 456.654296875 361 l 1
 112.654296875 361 l 1
 124.997070312 431 l 1
 223.341796875 484 236.576171875 491 248.634765625 497 c 0
 315.100585938 528 406.979492188 550 419.67578125 622 c 0
 428.66796875 673 386.83984375 708 318.83984375 708 c 0
 246.83984375 708 215.610351562 667 191.615234375 633 c 1
 162.841796875 691 l 1
EndSplineSet
EndChar
StartChar: three.superior
Encoding: 179 179 149
Width: 444
Flags: MW
LayerCount: 2
Fore
SplineSet
108 378 m 1
 127 439 l 1
 157 430 190 421 228 416 c 0
 247 414 267 412 289 412 c 0xe8
 328 412 354 422 370 434 c 4
 387 447 394 463 396 474 c 0xe8
 400 496 386 513 373 521 c 0
 353 534 327 535 301 535 c 2
 260 535 l 1
 271 597 l 1
 313 601 348 600 382 626 c 0
 395 637 406 651 409 667 c 0
 412 685 403 713 345 713 c 0
 286 713 243 688 205 661 c 1
 181 717 l 1
 232 750 290 772 355 772 c 0
 441 772 502 726 492 667 c 0xf0
 480 597 406 568 403 565 c 1
 435 555 494 527 484 473 c 0
 479 442 451 404 404 379 c 0
 372 362 330 350 280 350 c 0
 260 350 240 351 219 353 c 0
 185 357 149 365 108 378 c 1
EndSplineSet
EndChar
StartChar: acute
Encoding: 180 180 216
Width: 500
Flags: MW
LayerCount: 2
Fore
SplineSet
279.926757812 510 m 1
 435.849609375 640 l 1
 513.849609375 640 l 1
 341.926757812 510 l 1
 279.926757812 510 l 1
EndSplineSet
EndChar
StartChar: micro
Encoding: 181 181 150
Width: 517
Flags: MW
LayerCount: 2
Fore
SplineSet
46 -195 m 1
 158 445 l 1
 236 445 l 1
 177 110 l 2
 170 67 178 45 246 45 c 0
 321 45 369 94 381 136 c 0
 384 146 385 156 387 165 c 2
 436 445 l 1
 514 445 l 1
 436 0 l 1
 360 0 l 1
 365 28 l 5
 368 48 l 1
 309 4 238 -11 184 -11 c 0
 175 -11 165 -10 156 -9 c 1
 124 -195 l 1
 46 -195 l 1
EndSplineSet
EndChar
StartChar: paragraph
Encoding: 182 182 117
Width: 611
Flags: MW
LayerCount: 2
Fore
SplineSet
140.341796875 484 m 0
 160.97265625 601 272.663085938 707 404.131835938 721 c 0
 418.307617188 722 431.307617188 722 445.307617188 722 c 2
 678.307617188 722 l 2
 695.307617188 722 708.602539062 718 705.78125 702 c 0xe8
 705.076171875 698 701.841796875 691 695.13671875 687 c 0
 690.607421875 684 684.254882812 682 676.254882812 682 c 2
 619.254882812 682 l 1
 469.90625 -165 l 2
 469.201171875 -169 468.495117188 -173 466.966796875 -176 c 0
 461.321289062 -191 451.79296875 -194 444.79296875 -194 c 0
 432.79296875 -194 429.203125 -186 428.614257812 -178 c 0
 428.319335938 -174 429.201171875 -169 429.90625 -165 c 2
 579.254882812 682 l 1
 510.254882812 682 l 1
 361.611328125 -161 l 2
 360.024414062 -170 357.4375 -179 353.379882812 -185 c 0
 349.498046875 -190 343.79296875 -194 335.79296875 -194 c 0
 327.79296875 -194 323.498046875 -190 321.203125 -186 c 0
 318.908203125 -182 318.966796875 -176 320.90625 -165 c 2
 393.0234375 244 l 1xd8
 261.2578125 251 111.954101562 323 140.341796875 484 c 0
EndSplineSet
EndChar
StartChar: periodcentered
Encoding: 183 183 116
Width: 236
Flags: MW
LayerCount: 2
Fore
SplineSet
103.857421875 175 m 1
 119.55078125 264 l 1
 209.55078125 264 l 1
 193.857421875 175 l 1
 103.857421875 175 l 1
EndSplineSet
EndChar
StartChar: cedilla
Encoding: 184 184 129
Width: 444
Flags: MW
LayerCount: 2
Fore
SplineSet
83.1455078125 -192 m 1
 186.944335938 -23 l 1
 247.944335938 -23 l 1
 153.145507812 -192 l 1
 83.1455078125 -192 l 1
EndSplineSet
EndChar
StartChar: one.superior
Encoding: 185 185 151
Width: 444
Flags: MW
LayerCount: 2
Fore
SplineSet
182 639 m 1
 192 697 l 1
 303 698 359 746 389 772 c 1
 408 772 l 1
 346 420 l 1
 448 420 l 1
 438 361 l 1
 147 361 l 1
 157 420 l 1
 266 420 l 1
 309 665 l 1
 297 660 256 639 182 639 c 1
EndSplineSet
EndChar
StartChar: ordmasculine
Encoding: 186 186 135
Width: 444
Flags: MW
LayerCount: 2
Fore
SplineSet
129 561 m 0
 147 664 243 766 357 766 c 0
 469 766 532 666 513 561 c 0
 494 456 396 364 286 364 c 0
 280 364 273 364 267 365 c 0
 176 375 110 453 129 561 c 0
207 543 m 0
 205 516 209 493 218 475 c 0
 233 445 260 428 298 428 c 0
 322 428 355 437 383 463 c 0
 407 485 427 519 436 570 c 0
 444 614 436 648 419 671 c 0
 403 693 377 705 346 705 c 0
 319 705 285 695 257 667 c 0
 235 646 218 615 210 570 c 0
 208 561 208 552 207 543 c 0
EndSplineSet
EndChar
StartChar: guillemotright
Encoding: 187 187 122
Width: 667
Flags: MW
LayerCount: 2
Fore
SplineSet
100 0 m 5
 354 220 l 5
 177 439 l 5
 242 439 l 5
 428 219 l 5
 165 0 l 5
 100 0 l 5
266 0 m 5
 521 220 l 5
 343 439 l 5
 408 439 l 5
 594 219 l 5
 331 0 l 5
 266 0 l 5
EndSplineSet
EndChar
StartChar: onequarter
Encoding: 188 188 152
Width: 444
Flags: MW
LayerCount: 2
Fore
SplineSet
57 280 m 1
 60 286 64 290 68 293 c 0
 75 298 82 298 88 298 c 2
 101 298 l 1
 457 298 l 2
 466 298 473 298 477 295 c 0
 481 293 483 289 484 283 c 1
 484 281 483 280 483 278 c 0
 482 272 480 267 474 263 c 0
 469 260 462 258 452 258 c 2
 81 258 l 2
 70 258 63 260 60 263 c 0
 54 268 57 277 57 280 c 1
19 -47 m 1
 258 218 l 1
 355 218 l 1xf9
 309 -47 l 1xf9
 408 -47 l 1
 397 -109 l 1
 298 -109 l 1
 283 -195 l 1
 203 -195 l 1
 218 -109 l 1xfa
 8 -109 l 1
 19 -47 l 1
187 672 m 1
 198 731 l 1
 252 731 320 733 388 772 c 1
 408 772 l 1
 342 396 l 1
 444 396 l 1
 434 338 l 1
 142 338 l 1
 152 396 l 1
 262 396 l 1
 313 686 l 1xfc
 275 676 242 673 187 672 c 1
102 -47 m 1
 234 -47 l 1xf9
 271 164 l 1
 260 130 102 -47 102 -47 c 1
EndSplineSet
EndChar
StartChar: onehalf
Encoding: 189 189 153
Width: 444
Flags: MW
LayerCount: 2
Fore
SplineSet
57.37109375 280 m 1
 60.4296875 286 64.134765625 290 67.6640625 293 c 0
 74.5458984375 298 81.5458984375 298 87.5458984375 298 c 2
 100.545898438 298 l 1
 456.545898438 298 l 2
 465.545898438 298 472.545898438 298 477.016601562 295 c 0
 480.6640625 293 482.958984375 289 483.900390625 283 c 1
 483.547851562 281 483.37109375 280 483.018554688 278 c 0
 481.9609375 272 480.079101562 267 474.374023438 263 c 0
 469.844726562 260 462.4921875 258 452.4921875 258 c 2
 81.4921875 258 l 2
 70.4921875 258 63.8447265625 260 60.3740234375 263 c 0
 54.255859375 268 57.8427734375 277 57.37109375 280 c 1
187.4921875 672 m 1
 197.895507812 731 l 1
 251.895507812 731 320.248046875 733 388.124023438 772 c 1
 408.124023438 772 l 1
 341.825195312 396 l 1
 443.825195312 396 l 1
 433.598632812 338 l 1
 141.598632812 338 l 1
 151.825195312 396 l 1
 261.825195312 396 l 1
 312.959960938 686 l 1xfc
 275.197265625 676 242.66796875 673 187.4921875 672 c 1
68.3310546875 155 m 1
 124.91015625 215 176.495117188 241 249.495117188 241 c 0
 359.495117188 241 423.857421875 175 407.811523438 84 c 0
 393 0 300.178710938 -16 222.654296875 -53 c 0
 209.7734375 -58 197.362304688 -66 94.6640625 -121 c 1
 243.6640625 -121 l 1
 268.840820312 -120 l 1
 371.840820312 -120 l 1
 358.616210938 -195 l 1
 14.6162109375 -195 l 1
 27.6640625 -121 l 1
 126.5390625 -65 139.94921875 -57 152.006835938 -51 c 0
 218.826171875 -18 311.057617188 6 324.458984375 82 c 0
 333.98046875 136 292.504882812 173 224.504882812 173 c 0
 152.504882812 173 120.74609375 129 96.3984375 93 c 1
 68.3310546875 155 l 1
EndSplineSet
EndChar
StartChar: threequarters
Encoding: 190 190 154
Width: 444
Flags: MW
LayerCount: 2
Fore
SplineSet
18.712890625 -47 m 1
 258.439453125 218 l 1
 355.439453125 218 l 1xf9
 308.712890625 -47 l 1xf9
 407.712890625 -47 l 1
 396.780273438 -109 l 1
 297.780273438 -109 l 1
 282.616210938 -195 l 1
 202.616210938 -195 l 1
 217.780273438 -109 l 1xfa
 7.7802734375 -109 l 1
 18.712890625 -47 l 1
101.833007812 345 m 1
 122.646484375 412 l 1
 152.883789062 402 184.944335938 391 223.0625 386 c 0
 241.533203125 383 261.356445312 382 283.356445312 382 c 0xe8
 322.356445312 382 348.120117188 392 364.588867188 406 c 0
 382.057617188 420 389.0546875 437 391.170898438 449 c 0xe8
 395.40234375 473 381.576171875 491 369.163085938 500 c 0
 349.631835938 514 323.80859375 515 297.80859375 515 c 2
 256.80859375 515 l 1
 268.798828125 583 l 1
 310.50390625 587 346.327148438 586 380.264648438 614 c 0
 393.380859375 626 404.025390625 641 407.0234375 658 c 0
 410.373046875 677 401.83984375 708 343.83984375 708 c 0
 284.83984375 708 241.079101562 681 202.96484375 652 c 1
 180.544921875 712 l 1
 231.892578125 748 290.124023438 772 355.124023438 772 c 0
 441.124023438 772 501.307617188 722 490.0234375 658 c 0xf0
 476.622070312 582 402.15625 551 399.626953125 548 c 1
 431.6875 537 490.221679688 506 479.994140625 448 c 0
 473.999023438 414 445.946289062 374 398.185546875 347 c 0
 365.834960938 328 323.54296875 315 273.54296875 315 c 0
 253.54296875 315 233.895507812 317 213.248046875 319 c 0
 178.954101562 323 142.364257812 331 101.833007812 345 c 1
101.712890625 -47 m 1
 233.712890625 -47 l 1xf9
 270.91796875 164 l 1
 259.922851562 130 101.712890625 -47 101.712890625 -47 c 1
57.37109375 280 m 1
 60.4296875 286 64.134765625 290 67.6640625 293 c 0
 74.5458984375 298 81.5458984375 298 87.5458984375 298 c 2
 100.545898438 298 l 1
 456.545898438 298 l 2
 465.545898438 298 472.545898438 298 477.016601562 295 c 0
 480.6640625 293 482.958984375 289 483.900390625 283 c 1
 483.547851562 281 483.37109375 280 483.018554688 278 c 0
 481.9609375 272 480.079101562 267 474.374023438 263 c 0
 469.844726562 260 462.4921875 258 452.4921875 258 c 2
 81.4921875 258 l 2
 70.4921875 258 63.8447265625 260 60.3740234375 263 c 0
 54.255859375 268 57.8427734375 277 57.37109375 280 c 1
EndSplineSet
EndChar
StartChar: questiondown
Encoding: 191 191 125
Width: 472
Flags: MW
LayerCount: 2
Fore
SplineSet
47.41796875 -43 m 0
 62.58203125 43 105.342773438 70 131.750976562 95 c 0
 162.041015625 125 185.506835938 156 202.149414062 188 c 0
 223.202148438 228 235.255859375 268 242.661132812 310 c 2
 250.243164062 353 l 1
 317.243164062 353 l 1
 311.954101562 323 l 2
 299.434570312 252 279.913085938 198 257.506835938 156 c 0
 216.75390625 78 168.405273438 42 151.350585938 19 c 0
 134.470703125 -3 128.239257812 -27 124.712890625 -47 c 0
 118.717773438 -81 122.485351562 -105 133.840820312 -120 c 4
 146.842773438 -137 168.609375 -144 197.609375 -144 c 0
 282.609375 -144 347.485351562 -105 377.8359375 -86 c 1
 389.55078125 -150 l 1
 338.614257812 -178 268.852539062 -205 186.852539062 -205 c 0xe8
 168.852539062 -205 153.206054688 -203 138.734375 -200 c 0
 99.1455078125 -192 73.671875 -172 59.9033203125 -148 c 0
 42.3701171875 -117 41.24609375 -78 47.41796875 -43 c 0
EndSplineSet
Refer: 14 46 N 1 0 0 1 162.289 444 2
EndChar
StartChar: Agrave
Encoding: 192 192 155
Width: 667
Flags: MW
LayerCount: 2
Fore
SplineSet
340 850 m 1
 451 850 l 25
 592 760 l 1
 514 760 l 25
 504 761 l 1
 494 765 l 1
 340 850 l 1
EndSplineSet
Refer: 33 65 N 1 0 0 1 0 0 3
EndChar
StartChar: Aacute
Encoding: 193 193 156
Width: 667
Flags: MW
LayerCount: 2
Fore
SplineSet
341.008789062 760 m 1
 513.877929688 850 l 25
 623.877929688 850 l 1
 451.948242188 771 l 1
 428.184570312 761 l 1
 413.008789062 760 l 1
 365.008789062 760 l 1
 341.008789062 760 l 1
EndSplineSet
Refer: 33 65 N 1 0 0 1 0 0 2
EndChar
StartChar: Acircumflex
Encoding: 194 194 157
Width: 667
Flags: MW
LayerCount: 2
Fore
SplineSet
298.189453125 727 m 1
 452.694335938 900 l 1
 528.694335938 900 l 1
 609.189453125 727 l 1
 547.189453125 727 l 1
 474.701171875 849 l 1
 360.189453125 727 l 1
 298.189453125 727 l 1
EndSplineSet
Refer: 33 65 N 1 0 0 1 0 0 2
EndChar
StartChar: Atilde
Encoding: 195 195 158
Width: 667
Flags: MW
LayerCount: 2
Fore
SplineSet
300 774 m 1
 315 848 371 889 419 889 c 0xde
 471 889 498 836 543 836 c 0xee
 549 836 555 837 561 840 c 0
 576 847 588 865 593 889 c 1
 654 889 l 1xde
 638 815 584 775 536 775 c 0xee
 484 775 456 828 412 828 c 0xde
 406 828 401 827 396 825 c 0
 380 818 368 800 361 774 c 1
 300 774 l 1
EndSplineSet
Refer: 33 65 N 1 0 0 1 0 0 2
EndChar
StartChar: Adieresis
Encoding: 196 196 159
Width: 667
Flags: MW
LayerCount: 2
Fore
SplineSet
324 760 m 1
 340 849 l 1
 430 849 l 1
 414 760 l 1
 324 760 l 1
519 760 m 1
 535 849 l 1
 625 849 l 1
 609 760 l 1
 519 760 l 1
EndSplineSet
Refer: 33 65 N 1 0 0 1 0 0 2
EndChar
StartChar: Aring
Encoding: 197 197 160
Width: 667
Flags: MW
LayerCount: 2
Fore
SplineSet
349.005859375 777 m 0
 360.467773438 842 422.578125 888 479.578125 888 c 0
 543.578125 888 581.409179688 836 571.005859375 777 c 0
 560.955078125 720 506.43359375 666 440.43359375 666 c 0
 375.43359375 666 338.779296875 719 349.005859375 777 c 0
405.005859375 777 m 0
 402.713867188 764 404.069335938 749 413.305664062 739 c 0
 420.071289062 732 430.366210938 728 447.189453125 727 c 0
 448.189453125 727 450.189453125 727 451.189453125 727 c 0
 472.189453125 727 487.248046875 733 496.834960938 742 c 0
 507.59765625 752 512.890625 765 515.005859375 777 c 0
 517.122070312 789 516.590820312 803 508.353515625 813 c 0
 501.764648438 821 489.822265625 827 469.822265625 827 c 0xdf
 468.822265625 827 466.822265625 827 465.822265625 827 c 0
 444.646484375 826 430.412109375 819 420.6484375 809 c 0
 412.061523438 800 406.9453125 788 405.005859375 777 c 0
EndSplineSet
Refer: 33 65 N 1 0 0 1 0 0 2
EndChar
StartChar: AE
Encoding: 198 198 130
Width: 861
Flags: MW
LayerCount: 2
Fore
SplineSet
27 0 m 1
 433 694 l 1
 926 694 l 1
 915 628 l 1
 868 628 l 1
 845 629 l 1
 640 629 l 1
 618 630 l 1
 576 392 l 1
 846 392 l 1
 835 330 l 1
 565 330 l 1
 519 70 l 1
 584 70 l 1
 609 71 l 1
 771 71 l 1
 792 72 l 1
 831 72 l 1
 818 0 l 1
 418 0 l 1
 457 222 l 1
 232 222 l 1
 102 0 l 1
 27 0 l 1
266 278 m 1
 467 278 l 1
 529 630 l 1
 471 630 l 1
 266 278 l 1
EndSplineSet
EndChar
StartChar: Egrave
Encoding: 200 200 162
Width: 597
Flags: MW
LayerCount: 2
Fore
SplineSet
292 850 m 1
 403 850 l 25
 544 760 l 1
 466 760 l 25
 456 761 l 1
 446 765 l 1
 292 850 l 1
EndSplineSet
Refer: 37 69 N 1 0 0 1 0 0 2
EndChar
StartChar: Eacute
Encoding: 201 201 163
Width: 597
Flags: MW
LayerCount: 2
Fore
SplineSet
334.008789062 760 m 1
 506.877929688 850 l 25
 616.877929688 850 l 1
 444.948242188 771 l 1
 421.184570312 761 l 1
 406.008789062 760 l 1
 358.008789062 760 l 1
 334.008789062 760 l 1
EndSplineSet
Refer: 37 69 N 1 0 0 1 0 0 2
EndChar
StartChar: Ecircumflex
Encoding: 202 202 164
Width: 597
Flags: MW
LayerCount: 2
Fore
SplineSet
298 727 m 1
 454 900 l 1
 515 900 l 1
 609 727 l 1
 548 727 l 1
 475 849 l 1xf4
 359 727 l 1
 298 727 l 1
EndSplineSet
Refer: 37 69 N 1 0 0 1 0 0 2
EndChar
StartChar: Edieresis
Encoding: 203 203 165
Width: 597
Flags: MW
LayerCount: 2
Fore
SplineSet
314 760 m 1
 330 849 l 1
 420 849 l 1
 404 760 l 1
 314 760 l 1
508 760 m 1
 524 849 l 1
 614 849 l 1
 598 760 l 1
 508 760 l 1
EndSplineSet
Refer: 37 69 N 1 0 0 1 0 0 2
EndChar
StartChar: Igrave
Encoding: 204 204 166
Width: 278
Flags: MW
LayerCount: 2
Fore
SplineSet
134 850 m 1
 245 850 l 25
 386 760 l 1
 308 760 l 25
 298 761 l 1
 288 765 l 1
 134 850 l 1
EndSplineSet
Refer: 41 73 N 1 0 0 1 1 0 2
EndChar
StartChar: Iacute
Encoding: 205 205 167
Width: 278
Flags: MW
LayerCount: 2
Fore
SplineSet
188.008789062 760 m 1
 360.877929688 850 l 25
 470.877929688 850 l 1
 298.948242188 771 l 1
 275.184570312 761 l 1
 260.008789062 760 l 1
 212.008789062 760 l 1
 188.008789062 760 l 1
EndSplineSet
Refer: 41 73 N 1 0 0 1 0 0 2
EndChar
StartChar: Icircumflex
Encoding: 206 206 168
Width: 278
Flags: MW
LayerCount: 2
Fore
SplineSet
112 727 m 1
 268 900 l 1
 329 900 l 1
 423 727 l 1
 362 727 l 1
 289 849 l 1xf0
 174 727 l 1
 112 727 l 1
EndSplineSet
Refer: 41 73 S 1 0 0 1 1 0 2
EndChar
StartChar: Idieresis
Encoding: 207 207 169
Width: 278
Flags: MW
LayerCount: 2
Fore
SplineSet
131.008789062 760 m 1
 146.701171875 849 l 1
 236.701171875 849 l 1
 221.008789062 760 l 1
 131.008789062 760 l 1
325.008789062 760 m 1
 340.701171875 849 l 1
 430.701171875 849 l 1
 415.008789062 760 l 1
 325.008789062 760 l 1
EndSplineSet
Refer: 41 73 N 1 0 0 1 0 0 2
EndChar
StartChar: Eth
Encoding: 208 208 170
Width: 722
Flags: MW
LayerCount: 2
Fore
SplineSet
54.837890625 311 m 1
 65.2412109375 370 l 1
 160.241210938 370 l 1
 217.37109375 694 l 1
 463.37109375 694 l 2
 526.37109375 694 574.959960938 686 627.083984375 647 c 0
 713.622070312 582 747.462890625 462 726.303710938 342 c 0
 695.270507812 166 551.526367188 20 391.352539062 2 c 0
 375 0 359 0 343 0 c 2
 95 0 l 1
 149.837890625 311 l 1
 54.837890625 311 l 1
191.874023438 56 m 1
 334.874023438 56 l 2
 366.874023438 56 460.874023438 56 546.096679688 148 c 0
 597.793945312 203 626.9609375 272 639.127929688 341 c 0
 649.883789062 402 646.5234375 451 636.223632812 489 c 0
 621.274414062 546 591.09375 579 571.090820312 596 c 0
 530.0859375 630 488.497070312 638 437.497070312 638 c 2
 294.497070312 638 l 1
 247.241210938 370 l 1
 426.241210938 370 l 1
 415.837890625 311 l 1
 236.837890625 311 l 1
 191.874023438 56 l 1
EndSplineSet
EndChar
StartChar: Ntilde
Encoding: 209 209 171
Width: 708
Flags: MW
LayerCount: 2
Fore
SplineSet
320 774 m 1
 335 848 391 889 439 889 c 0xde
 491 889 518 836 563 836 c 0xee
 569 836 575 837 581 840 c 0
 596 847 608 865 613 889 c 1
 674 889 l 1xde
 658 815 604 775 556 775 c 0xee
 504 775 476 828 432 828 c 0xde
 426 828 421 827 416 825 c 0
 400 818 388 800 381 774 c 1
 320 774 l 1
EndSplineSet
Refer: 46 78 N 1 0 0 1 0 0 2
EndChar
StartChar: Ograve
Encoding: 210 210 172
Width: 736
Flags: MW
LayerCount: 2
Fore
SplineSet
375.0546875 851 m 1
 486.0546875 851 l 25
 627.184570312 761 l 1
 549.184570312 761 l 25
 539.361328125 762 l 1
 529.06640625 766 l 1
 375.0546875 851 l 1
EndSplineSet
Refer: 47 79 N 1 0 0 1 0 0 2
EndChar
StartChar: Oacute
Encoding: 211 211 173
Width: 736
Flags: MW
LayerCount: 2
Fore
SplineSet
376.008789062 760 m 1
 548.877929688 850 l 25
 658.877929688 850 l 1
 486.948242188 771 l 1
 463.184570312 761 l 1
 448.008789062 760 l 1
 400.008789062 760 l 1
 376.008789062 760 l 1
EndSplineSet
Refer: 47 79 N 1 0 0 1 0 0 2
EndChar
StartChar: Ocircumflex
Encoding: 212 212 174
Width: 736
Flags: MW
LayerCount: 2
Fore
SplineSet
340.189453125 727 m 1
 494.694335938 900 l 1
 556.694335938 900 l 1
 651.189453125 727 l 1
 590.189453125 727 l 1
 516.701171875 849 l 1
 401.189453125 727 l 1
 340.189453125 727 l 1
EndSplineSet
Refer: 47 79 S 1 0 0 1 0 0 2
EndChar
StartChar: Otilde
Encoding: 213 213 175
Width: 736
Flags: MW
LayerCount: 2
Fore
SplineSet
334 774 m 1
 349 848 405 889 453 889 c 0xde
 505 889 532 836 577 836 c 0xee
 583 836 589 837 595 840 c 0
 610 847 622 865 627 889 c 1
 688 889 l 1xde
 672 815 618 775 570 775 c 0xee
 518 775 490 828 446 828 c 0xde
 440 828 435 827 430 825 c 0
 414 818 402 800 395 774 c 1
 334 774 l 1
EndSplineSet
Refer: 47 79 N 1 0 0 1 0 0 2
EndChar
StartChar: Odieresis
Encoding: 214 214 176
Width: 736
Flags: MW
LayerCount: 2
Fore
SplineSet
359.008789062 760 m 1
 374.701171875 849 l 1
 464.701171875 849 l 1
 449.008789062 760 l 1
 359.008789062 760 l 1
554.008789062 760 m 1
 569.701171875 849 l 1
 659.701171875 849 l 1
 644.008789062 760 l 1
 554.008789062 760 l 1
EndSplineSet
Refer: 47 79 N 1 0 0 1 0 0 2
EndChar
StartChar: multiply
Encoding: 215 215 177
Width: 778
Flags: MW
LayerCount: 2
Fore
SplineSet
152.9375 28 m 0
 155.229492188 41 172.168945312 52 182.755859375 61 c 2
 404.08203125 250 l 1
 248.407226562 439 l 2
 240.170898438 449 237.700195312 452 230.344726562 467 c 1
 231.40234375 473 l 2
 232.284179688 478 238.6953125 486 246.223632812 489 c 0
 248.400390625 490 250.400390625 490 253.400390625 490 c 0
 265.400390625 490 271.63671875 480 279.874023438 470 c 2
 438.018554688 278 l 1
 664.049804688 471 l 2
 675.63671875 480 684.400390625 490 696.400390625 490 c 0
 711.400390625 490 712.931640625 476 712.2265625 472 c 0
 711.874023438 470 710.697265625 469 710.16796875 466 c 1
 703.228515625 455 692.818359375 447 683.407226562 439 c 2
 461.08203125 250 l 1
 616.755859375 61 l 2
 626.639648438 49 633.052734375 40 633.818359375 33 c 1
 633.760742188 27 l 1
 632.173828125 18 621.763671875 10 611.763671875 10 c 0
 599.763671875 10 593.526367188 20 586.290039062 30 c 2
 427.14453125 222 l 1
 191.703125 21 l 2
 180.291992188 13 176.586914062 9 167.586914062 9 c 0
 159.586914062 9 151.350585938 19 152.9375 28 c 0
EndSplineSet
EndChar
StartChar: Oslash
Encoding: 216 216 133
Width: 778
Flags: MW
LayerCount: 2
Fore
SplineSet
115.833007812 345 m 0
 136.462890625 462 205.153320312 568 295.3203125 637 c 0
 359.959960938 686 436.25 716 514.25 716 c 0
 575.25 716 620.252929688 699 660.020507812 675 c 1
 722.83203125 759 l 1
 723.83203125 759 l 1
 773.189453125 727 l 1
 705.3203125 637 l 1
 732.559570312 610 755.211914062 574 769.629882812 531 c 4
 788.284179688 478 793.999023438 414 781.833007812 345 c 0
 764.905273438 249 715.036132812 159 646.3984375 93 c 0
 574.055664062 23 481.12109375 -22 384.12109375 -22 c 0
 323.12109375 -22 278.118164062 -5 238.350585938 19 c 1
 175.5390625 -65 l 1
 126.181640625 -33 l 1
 192.874023438 56 l 1
 118.922851562 130 97.318359375 240 115.833007812 345 c 0
196.07421875 301 m 1
 191.260742188 234 202.623046875 168 238.629882812 117 c 1
 617.146484375 619 l 1
 585.025390625 641 551.494140625 655 503.494140625 655 c 0
 446.494140625 655 385.438476562 632 332.50390625 587 c 0
 271.334960938 535 220.875976562 453 201.65625 344 c 0
 199.1875 330 197.54296875 315 196.07421875 301 c 1
281.224609375 75 m 1
 315.521484375 54 341.876953125 39 395.876953125 39 c 0
 461.876953125 39 543.872070312 73 606.919921875 147 c 0
 648.560546875 196 681.021484375 261 696.008789062 346 c 0
 706.94140625 408 703.581054688 457 694.9296875 493 c 0
 684.6875 537 667.448242188 564 659.564453125 576 c 1
 658.564453125 576 l 1
 281.224609375 75 l 1
EndSplineSet
EndChar
StartChar: Ugrave
Encoding: 217 217 178
Width: 687
Flags: MW
LayerCount: 2
Fore
SplineSet
351 851 m 1
 462 851 l 25
 603 761 l 1
 525 761 l 25
 515 762 l 1
 505 766 l 1
 351 851 l 1
EndSplineSet
Refer: 53 85 N 1 0 0 1 0 0 2
EndChar
StartChar: Uacute
Encoding: 218 218 179
Width: 687
Flags: MW
LayerCount: 2
Fore
SplineSet
393 760 m 1
 566 850 l 25
 676 850 l 1
 504 771 l 1
 480 761 l 1
 465 760 l 1
 417 760 l 1
 393 760 l 1
EndSplineSet
Refer: 53 85 N 1 0 0 1 0 0 2
EndChar
StartChar: Ucircumflex
Encoding: 219 219 180
Width: 687
Flags: MW
LayerCount: 2
Fore
SplineSet
318.189453125 727 m 1
 473.694335938 900 l 1
 530.694335938 900 l 1
 630.189453125 727 l 1
 568.189453125 727 l 1
 495.701171875 849 l 1
 380.189453125 727 l 1
 318.189453125 727 l 1
EndSplineSet
Refer: 53 85 S 1 0 0 1 0 0 2
EndChar
StartChar: Udieresis
Encoding: 220 220 181
Width: 687
Flags: MW
LayerCount: 2
Fore
SplineSet
335 760 m 1
 351 849 l 1
 441 849 l 1
 425 760 l 1
 335 760 l 1
530 760 m 1
 546 849 l 1
 636 849 l 1
 620 760 l 1
 530 760 l 1
EndSplineSet
Refer: 53 85 N 1 0 0 1 0 0 2
EndChar
StartChar: Yacute
Encoding: 221 221 182
Width: 667
Flags: MW
LayerCount: 2
Fore
SplineSet
382 760 m 1
 555 850 l 25
 665 850 l 1
 493 771 l 1
 469 761 l 1
 454 760 l 1
 406 760 l 1
 382 760 l 1
EndSplineSet
Refer: 57 89 N 1 0 0 1 0 0 2
EndChar
StartChar: Thorn
Encoding: 222 222 183
Width: 583
Flags: MW
LayerCount: 2
Fore
SplineSet
96 0 m 1
 218 694 l 1
 302 694 l 1
 280 567 l 1
 402 567 l 2
 471 567 518 547 548 519 c 0
 591 478 600 419 592 374 c 0
 584 328 556 276 508 237 c 4
 467 203 411 180 340 180 c 2
 212 180 l 1
 180 0 l 1
 96 0 l 1
222 236 m 1
 324 236 l 2
 380 236 423 255 453 280 c 0
 487 308 506 344 511 373 c 0
 517 406 508 450 470 479 c 0
 445 498 407 511 352 511 c 2
 271 511 l 1
 263 473 l 1
 222 236 l 1
EndSplineSet
EndChar
StartChar: germandbls
Encoding: 223 223 141
Width: 480
Flags: MW
LayerCount: 2
Fore
SplineSet
81 0 m 1
 180 564 l 2
 204 699 297 733 380 733 c 0
 461 733 547 700 524 569 c 0xfc
 516 525 489 413 388 402 c 0
 363 399 352 391 342 335 c 0
 328 258 349 283 404 263 c 0
 437 250 482 208 468 127 c 0
 454 45 399 -11 317 -11 c 0
 272 -11 242 6 218 34 c 1
 242 102 l 1
 246 96 269 52 326 52 c 0
 373 52 391 93 396 120 c 0xfa
 398 133 402 170 372 186 c 0
 349 198 320 191 293 220 c 0
 267 249 263 290 270 331 c 0
 282 399 320 452 384 460 c 0
 400 462 411 459 423 482 c 0
 434 505 440 535 445 564 c 0xfc
 456 625 447 672 371 672 c 0
 272 672 261 593 255 561 c 2
 156 0 l 1
 81 0 l 1
EndSplineSet
EndChar
StartChar: acircumflex
Encoding: 226 226 186
Width: 480
Flags: MW
LayerCount: 2
Fore
SplineSet
172.75 509 m 1
 322.612304688 650 l 1
 406.612304688 650 l 1
 483.75 509 l 1
 422.75 509 l 1
 346.20703125 608 l 1xf4
 233.75 509 l 1
 172.75 509 l 1
EndSplineSet
Refer: 65 97 S 1 0 0 1 0 0 2
EndChar
StartChar: ae
Encoding: 230 230 136
Width: 722
Flags: MW
LayerCount: 2
Fore
SplineSet
66.1015625 114 m 0
 73.68359375 157 108.149414062 188 159.028320312 210 c 0
 214.083984375 233 287.200195312 245 364.552734375 247 c 1xd8
 370.1953125 279 l 1
 373.779296875 305 l 2
 379.125 358 353.70703125 401 303.70703125 401 c 0
 228.70703125 401 181.76953125 373 143.71484375 350 c 1
 149.528320312 417 l 1
 206.641601562 446 252.287109375 461 315.287109375 461 c 0
 351.287109375 461 377.5234375 451 396.231445312 438 c 0
 425.705078125 418 436.944335938 391 441.533203125 383 c 1
 442.533203125 383 l 17
 486.64453125 429 547.287109375 461 608.287109375 461 c 0
 647.287109375 461 695.818359375 447 721.649414062 395 c 0
 739.125 358 746.426757812 303 731.791992188 220 c 1
 437.791992188 220 l 1xb8
 436.44140625 201 423.629882812 117 489.342773438 70 c 0
 500.108398438 63 518.993164062 51 552.993164062 51 c 0
 617.993164062 51 666.282226562 81 700.690429688 106 c 1
 695.052734375 40 l 1
 649.939453125 11 600.060546875 -11 541.060546875 -11 c 0
 475.060546875 -11 425.173828125 18 390.637695312 66 c 9
 388.637695312 66 l 17
 333.763671875 10 233.060546875 -11 157.060546875 -11 c 0
 67.060546875 -11 59.224609375 75 66.1015625 114 c 0
139.27734375 115 m 0
 134.693359375 89 152.993164062 51 219.993164062 51 c 0
 267.993164062 51 337.637695312 66 348.216796875 126 c 0
 350.509765625 139 355.620117188 185 355.678710938 191 c 1xd8
 318.678710938 191 244.973632812 187 193.270507812 166 c 0
 165.331054688 155 143.333007812 138 139.27734375 115 c 0
453.490234375 275 m 1
 682.490234375 275 l 1
 682.954101562 323 673.243164062 353 659.416992188 371 c 4
 639.001953125 397 610.354492188 399 598.354492188 399 c 0xb8
 570.354492188 399 536.885742188 385 508.125 358 c 0
 486.598632812 338 466.661132812 310 453.490234375 275 c 1
EndSplineSet
EndChar
StartChar: ecircumflex
Encoding: 234 234 193
Width: 444
Flags: MW
LayerCount: 2
Fore
SplineSet
156 509 m 1
 305 650 l 1
 368 650 l 1
 467 509 l 1
 406 509 l 1
 328 608 l 1xf4
 217 509 l 1
 156 509 l 1
EndSplineSet
Refer: 69 101 S 1 0 0 1 0 0 2
EndChar
StartChar: igrave
Encoding: 236 236 195
Width: 239
Flags: MW
LayerCount: 2
Fore
SplineSet
80 640 m 1
 158 640 l 1
 268 510 l 1
 207 510 l 1
 80 640 l 1
EndSplineSet
Refer: 137 305 N 1 0 0 1 1 0 2
EndChar
StartChar: iacute
Encoding: 237 237 196
Width: 239
Flags: MW
LayerCount: 2
Fore
SplineSet
122 510 m 1
 278 640 l 1
 356 640 l 1
 184 510 l 1
 122 510 l 1
EndSplineSet
Refer: 137 305 N 1 0 0 1 0 0 2
EndChar
StartChar: icircumflex
Encoding: 238 238 197
Width: 239
Flags: MW
LayerCount: 2
Fore
SplineSet
54 509 m 1
 204 650 l 1
 265 650 l 1
 365 509 l 1
 304 509 l 1
 227 608 l 1
 225 608 l 1
 115 509 l 1
 54 509 l 1
EndSplineSet
Refer: 137 305 N 1 0 0 1 1 0 2
EndChar
StartChar: eth
Encoding: 240 240 199
Width: 500
Flags: MW
LayerCount: 2
Fore
SplineSet
69 220 m 0
 80 285 116 347 165 392 c 0
 211 434 269 461 330 461 c 0
 371 461 398 450 427 434 c 1
 404 508 377 541 341 584 c 1
 340 584 l 1
 235 529 l 1
 212 590 l 1
 288 630 l 1
 242 658 231 664 188 677 c 1
 249 722 l 1
 272 715 293 706 313 695 c 0
 329 686 344 677 357 666 c 1
 465 722 l 1
 490 662 l 1
 409 620 l 1
 469 558 525 455 520 318 c 0
 519 296 517 273 513 249 c 2
 511 236 l 2
 501 181 486 139 448 91 c 0
 396 27 320 -11 247 -11 c 0
 189 -11 139 14 105 56 c 0
 73 97 57 154 69 220 c 0
149 231 m 0
 138 168 149 117 178 86 c 0
 197 65 225 53 258 53 c 0
 295 53 330 67 358 92 c 0
 393 123 420 171 430 226 c 0
 432 237 432 248 433 258 c 0
 436 307 423 347 395 372 c 0
 376 389 350 399 319 399 c 0
 287 399 249 387 217 360 c 0
 185 333 160 291 149 231 c 0
EndSplineSet
EndChar
StartChar: divide
Encoding: 247 247 206
Width: 778
Flags: MW
LayerCount: 2
Fore
SplineSet
100 251 m 0
 103 268 120 270 133 270 c 2
 732 270 l 2
 741 270 752 270 758 266 c 0
 762 263 766 259 764 250 c 0
 763 242 759 237 753 234 c 0
 745 230 737 230 733 230 c 2
 124 230 l 2
 100 230 99 244 100 251 c 0
325 -6 m 2
 337 61 l 2
 340 80 351 89 369 89 c 2
 434 89 l 2
 464 89 463 77 460 59 c 2
 450 -2 l 2
 447 -19 437 -34 415 -34 c 2
 350 -34 l 2
 323 -34 323 -20 325 -6 c 2
403 439 m 2
 415 506 l 2
 418 525 429 534 447 534 c 2
 512 534 l 2
 529 534 544 533 539 506 c 2
 528 440 l 2
 524 418 514 411 494 411 c 2
 428 411 l 2
 412 411 400 420 403 439 c 2
EndSplineSet
EndChar
StartChar: oslash
Encoding: 248 248 139
Width: 500
Flags: MW
LayerCount: 2
Fore
SplineSet
69.96875 221 m 0
 81.958984375 289 120.419921875 354 173.354492188 399 c 0
 218.0546875 437 272.287109375 461 330.287109375 461 c 0
 362.287109375 461 385.052734375 454 414.583984375 440 c 1
 500.038085938 556 l 1
 500.038085938 556 l 1
 548.748046875 526 l 1
 459.412109375 405 l 1
 489.064453125 369 522.366210938 314 505.96875 221 c 0
 494.506835938 156 460.280273438 98 412.874023438 56 c 0
 366.64453125 15 308.060546875 -11 247.060546875 -11 c 0
 212.060546875 -11 186.647460938 -2 164.41015625 8 c 1
 76.2509765625 -112 l 1
 27.541015625 -82 l 1
 118.229492188 41 l 1
 82.5771484375 77 55.685546875 140 69.96875 221 c 0
144.791992188 220 m 0
 139.501953125 190 139.446289062 167 142.44921875 150 c 0
 146.688476562 123 157.219726562 109 161.456054688 99 c 1
 374.0625 386 l 1
 359.296875 393 346.354492188 399 319.354492188 399 c 0
 285.354492188 399 246.885742188 385 213.595703125 355 c 0
 185.01171875 329 160.134765625 290 147.61328125 236 c 0
 146.731445312 231 145.673828125 225 144.791992188 220 c 0
204.932617188 62 m 1
 220.698242188 55 238.993164062 51 257.993164062 51 c 0
 296.993164062 51 339.813476562 67 373.80859375 101 c 0
 400.5703125 128 421.446289062 167 430.615234375 219 c 0
 431.497070312 224 432.202148438 228 433.083984375 233 c 0
 437.021484375 261 434.900390625 283 431.8984375 300 c 0
 427.129882812 324 419.774414062 339 416.008789062 346 c 1
 415.008789062 346 l 1
 204.932617188 62 l 1
EndSplineSet
EndChar
StartChar: thorn
Encoding: 254 254 212
Width: 517
Flags: MW
LayerCount: 2
Fore
SplineSet
46.6162109375 -195 m 1
 208.307617188 722 l 1
 283.307617188 722 l 1
 225.825195312 396 l 1
 299.994140625 448 368.228515625 455 402.228515625 455 c 0
 496.228515625 455 540.65625 344 519.497070312 224 c 0
 497.80859375 101 403.060546875 -11 292.060546875 -11 c 0
 233.060546875 -11 194.821289062 16 167.111328125 46 c 1
 124.616210938 -195 l 1
 46.6162109375 -195 l 1
181.216796875 126 m 2
 176.985351562 102 205.81640625 50 264.81640625 50 c 0
 300.81640625 50 339.813476562 67 373.280273438 98 c 0
 405.5703125 128 430.975585938 170 440.14453125 222 c 0
 441.731445312 231 442.495117188 241 443.08203125 250 c 0
 445.134765625 290 435.482421875 326 415.067382812 352 c 4
 396.298828125 376 368.944335938 391 333.944335938 391 c 0
 263.944335938 391 218.893554688 334 217.893554688 334 c 1
 181.216796875 126 l 2
EndSplineSet
EndChar
StartChar: Amacron
Encoding: 256 256 236
Width: 667
Flags: MW
LayerCount: 2
Fore
SplineSet
167 786 m 4
 171 808 193 806 204 806 c 6
 746 806 l 6
 757 806 780 808 776 786 c 4
 775 778 768 766 744 766 c 6
 197 766 l 6
 184 766 163 766 167 786 c 4
EndSplineSet
Refer: 33 65 N 1 0 0 1 0 0 3
EndChar
StartChar: amacron
Encoding: 257 257 231
Width: 480
Flags: MW
LayerCount: 2
Fore
SplineSet
171 551 m 1
 182 615 l 1
 542 615 l 1
 531 551 l 1
 171 551 l 1
EndSplineSet
Refer: 65 97 N 1 0 0 1 0 0 3
EndChar
StartChar: Abreve
Encoding: 258 258 312
Width: 667
Flags: MW
LayerCount: 2
Fore
SplineSet
313 889 m 1
 374 889 l 1
 366 822 418 794 465 794 c 0
 519 794 576 828 590 889 c 1
 652 889 l 1
 631 789 539 727 453 727 c 0
 365 727 298 790 313 889 c 1
EndSplineSet
Refer: 33 65 S 1 0 0 1 0 0 2
EndChar
StartChar: abreve
Encoding: 259 259 325
Width: 480
Flags: MW
LayerCount: 2
Fore
SplineSet
194 639 m 5
 255 639 l 5
 249 573 324 565 351 565 c 4
 377 565 454 573 471 639 c 5
 533 639 l 5
 513 546 419 498 338 498 c 4
 257 498 181 547 194 639 c 5
EndSplineSet
Refer: 65 97 S 1 0 0 1 0 0 2
EndChar
StartChar: Aogonek
Encoding: 260 260 297
Width: 667
Flags: MW
LayerCount: 2
Fore
SplineSet
609 0 m 1
 603 -3 510 -49 500 -107 c 0
 499 -113 499 -117 500 -122 c 0
 500 -125 502 -128 504 -130 c 0
 511 -141 525 -147 544 -147 c 0
 570 -147 598 -137 614 -133 c 1
 619 -192 l 1
 561 -217 527 -217 518 -217 c 0
 460 -217 427 -181 436 -128 c 0
 445 -77 492 -29 544 0 c 1
 609 0 l 1
EndSplineSet
Refer: 33 65 N 1 0 0 1 0 0 2
EndChar
StartChar: aogonek
Encoding: 261 261 304
Width: 480
Flags: MW
LayerCount: 2
Fore
SplineSet
389 0 m 1
 383 -3 290 -49 280 -107 c 0
 279 -113 279 -117 280 -122 c 0
 280 -125 282 -128 284 -130 c 0
 291 -141 305 -147 324 -147 c 0
 350 -147 378 -137 394 -133 c 1
 399 -192 l 1
 341 -217 307 -217 298 -217 c 0
 240 -217 207 -181 216 -128 c 0
 225 -77 272 -29 324 0 c 1
 389 0 l 1
EndSplineSet
Refer: 65 97 N 1 0 0 1 0 0 2
EndChar
StartChar: Cacute
Encoding: 262 262 314
Width: 639
Flags: MW
LayerCount: 2
Fore
SplineSet
365 760 m 1
 538 850 l 25
 648 850 l 1
 476 771 l 1
 452 761 l 1
 437 760 l 1
 389 760 l 1
 365 760 l 1
EndSplineSet
Refer: 35 67 N 1 0 0 1 0 0 2
EndChar
StartChar: Cdotaccent
Encoding: 266 266 364
Width: 639
Flags: MW
LayerCount: 2
Fore
SplineSet
449.06640625 766 m 5
 464.759765625 855 l 5
 554.759765625 855 l 5
 539.06640625 766 l 5
 449.06640625 766 l 5
EndSplineSet
Refer: 35 67 N 1 0 0 1 0 0 3
EndChar
StartChar: cdotaccent
Encoding: 267 267 383
Width: 444
Flags: MW
LayerCount: 2
Fore
SplineSet
300 511 m 5
 316 600 l 5
 406 600 l 5
 390 511 l 5
 300 511 l 5
EndSplineSet
Refer: 67 99 N 1 0 0 1 0 0 3
EndChar
StartChar: Ccaron
Encoding: 268 268 315
Width: 639
Flags: MW
LayerCount: 2
Fore
SplineSet
366.754882812 889 m 1
 427.754882812 889 l 1
 505.182617188 778 l 1
 621.754882812 889 l 1
 682.754882812 889 l 1
 532.189453125 727 l 1
 460.189453125 727 l 1
 366.754882812 889 l 1
EndSplineSet
Refer: 35 67 N 1 0 0 1 0 0 2
EndChar
StartChar: ccaron
Encoding: 269 269 328
Width: 444
Flags: MW
LayerCount: 2
Fore
SplineSet
200 639 m 5
 262 639 l 5
 350 571 l 5
 461 639 l 5
 496 639 l 5
 522 638 l 5
 376 545 380 545 363 545 c 6
 327 545 l 6
 307 545 285 568 200 639 c 5
EndSplineSet
Refer: 67 99 N 1 0 0 1 0 0 2
EndChar
StartChar: Dcaron
Encoding: 270 270 317
Width: 722
Flags: MW
LayerCount: 2
Fore
SplineSet
363.754882812 889 m 1
 424.754882812 889 l 1
 502.182617188 778 l 1
 618.754882812 889 l 1
 680.754882812 889 l 1xec
 529.189453125 727 l 1
 458.189453125 727 l 1
 363.754882812 889 l 1
EndSplineSet
Refer: 36 68 N 1 0 0 1 0 0 2
EndChar
StartChar: dcaron
Encoding: 271 271 330
Width: 633
Flags: MW
LayerCount: 2
Fore
SplineSet
594.267578125 597 m 1
 634.90234375 680 l 1
 608.90234375 680 l 1
 623.713867188 764 l 1
 707.713867188 764 l 1
 695.546875 695 l 2
 694.489257812 689 692.607421875 684 690.90234375 680 c 0
 684.610351562 667 636.267578125 597 636.267578125 597 c 1
 594.267578125 597 l 1
EndSplineSet
Refer: 68 100 N 1 0 0 1 0 0 2
EndChar
StartChar: dcroat
Encoding: 273 273 331
Width: 517
Flags: MW
LayerCount: 2
Fore
SplineSet
73.96875 221 m 0
 88.07421875 301 129.241210938 370 180.646484375 412 c 0
 214.583984375 440 253.405273438 456 293.405273438 456 c 0
 355.405273438 456 398.64453125 429 428.70703125 401 c 1
 455.15625 551 l 1
 264.15625 551 l 1
 274.559570312 610 l 1
 465.559570312 610 l 1
 485.307617188 722 l 1
 561.307617188 722 l 1
 541.559570312 610 l 1
 642.559570312 610 l 1
 632.15625 551 l 1
 531.15625 551 l 1xfa
 434 0 l 1
 355 0 l 1
 364.168945312 52 l 1
 324.526367188 20 271.060546875 -11 205.060546875 -11 c 0
 159.060546875 -11 121.291992188 13 97.9931640625 51 c 0
 71.5751953125 94 62.3310546875 155 73.96875 221 c 0
150.734375 214 m 0
 141.978515625 153 153.749023438 112 175.340820312 87 c 0
 197.755859375 61 229.993164062 51 256.993164062 51 c 0xfc
 315.993164062 51 372.80859375 101 378.627929688 134 c 2
 412.306640625 325 l 2
 415.127929688 341 414.185546875 347 398.182617188 364 c 0
 373.296875 393 340.47265625 394 329.47265625 394 c 2
 327.47265625 394 l 2
 300.47265625 394 264.885742188 385 232.830078125 362 c 0
 198.421875 337 168.369140625 297 154.260742188 234 c 0
 153.555664062 230 152.849609375 226 152.14453125 222 c 0
 151.615234375 219 151.262695312 217 150.734375 214 c 0
EndSplineSet
EndChar
StartChar: Emacron
Encoding: 274 274 239
Width: 597
Flags: MW
LayerCount: 2
Fore
SplineSet
159 786 m 0
 163 808 185 806 196 806 c 2
 738 806 l 2
 749 806 772 808 768 786 c 0
 767 778 760 766 736 766 c 2
 189 766 l 2
 176 766 155 766 159 786 c 0
EndSplineSet
Refer: 37 69 N 1 0 0 1 0 0 3
EndChar
StartChar: emacron
Encoding: 275 275 234
Width: 444
Flags: MW
LayerCount: 2
Fore
SplineSet
151.15625 551 m 1
 162.44140625 615 l 1
 522.44140625 615 l 1
 511.15625 551 l 1
 151.15625 551 l 1
EndSplineSet
Refer: 69 101 N 1 0 0 1 0 0 3
EndChar
StartChar: Edotaccent
Encoding: 278 278 365
Width: 597
Flags: MW
LayerCount: 2
Fore
SplineSet
415.06640625 766 m 5
 430.759765625 855 l 5
 520.759765625 855 l 5
 505.06640625 766 l 5
 415.06640625 766 l 5
EndSplineSet
Refer: 37 69 N 1 0 0 1 0 0 3
EndChar
StartChar: edotaccent
Encoding: 279 279 384
Width: 444
Flags: MW
LayerCount: 2
Fore
SplineSet
279.103515625 511 m 5
 294.795898438 600 l 5
 384.795898438 600 l 5
 369.103515625 511 l 5
 279.103515625 511 l 5
EndSplineSet
Refer: 69 101 N 1 0 0 1 0 0 3
EndChar
StartChar: Eogonek
Encoding: 280 280 316
Width: 597
Flags: MW
LayerCount: 2
Fore
SplineSet
491 0 m 1
 485.470703125 -3 392.360351562 -49 382.1328125 -107 c 0
 381.075195312 -113 381.370117188 -117 382.48828125 -122 c 0
 382.958984375 -125 384.4296875 -128 386.077148438 -130 c 0
 393.137695312 -141 407.080078125 -147 426.080078125 -147 c 0
 452.080078125 -147 479.842773438 -137 495.548828125 -133 c 1
 501.145507812 -192 l 1
 442.737304688 -217 408.737304688 -217 399.737304688 -217 c 0
 341.737304688 -217 309.084960938 -181 318.4296875 -128 c 0
 327.422851562 -77 373.88671875 -29 426 0 c 1
 491 0 l 1
EndSplineSet
Refer: 37 69 N 1 0 0 1 0 0 2
EndChar
StartChar: eogonek
Encoding: 281 281 329
Width: 444
Flags: MW
LayerCount: 2
Fore
SplineSet
73.849609375 226 m 0
 86.1923828125 296 124.654296875 361 176.412109375 405 c 0
 217.583984375 440 266.287109375 461 317.287109375 461 c 0
 357.287109375 461 405.170898438 449 434.059570312 403 c 0
 457.711914062 367 468.485351562 309 452.791992188 220 c 1
 142.791992188 220 l 1
 136.504882812 173 144.275390625 132 163.985351562 102 c 0
 185.342773438 70 218.81640625 50 260.81640625 50 c 0
 340.81640625 50 403.3984375 93 422.690429688 106 c 1
 417.052734375 40 l 1
 377.173828125 18 347.705078125 4 321.060546875 -11 c 0
 299.944335938 -23 281.65234375 -36 263.125976562 -56 c 0
 255.71484375 -64 237.8359375 -86 234.309570312 -106 c 0
 231.840820312 -120 235.25390625 -129 243.01953125 -136 c 0
 250.78515625 -143 264.080078125 -147 278.080078125 -147 c 0
 306.080078125 -147 350.548828125 -133 350.548828125 -133 c 1
 355.145507812 -192 l 1
 297.737304688 -217 263.737304688 -217 253.737304688 -217 c 0
 225.737304688 -217 204.32421875 -208 189.79296875 -194 c 4
 174.614257812 -178 167.493164062 -156 172.4296875 -128 c 0
 181.24609375 -78 221.123046875 -39 262.236328125 -10 c 1
 258.060546875 -11 253.060546875 -11 248.060546875 -11 c 0
 191.060546875 -11 143.291992188 13 111.168945312 52 c 0
 76.7509765625 95 61.5068359375 156 73.849609375 226 c 0
157.490234375 275 m 1
 405.490234375 275 l 1
 406.366210938 314 398.303710938 342 385.477539062 360 c 0
 362.47265625 394 325.354492188 399 306.354492188 399 c 0
 268.354492188 399 236.180664062 381 210.772460938 356 c 0
 185.364257812 331 166.8984375 300 157.490234375 275 c 1
EndSplineSet
EndChar
StartChar: Ecaron
Encoding: 282 282 265
Width: 597
Flags: MW
LayerCount: 2
Fore
SplineSet
341.754882812 889 m 5
 402.754882812 889 l 5
 481.182617188 778 l 5
 596.754882812 889 l 5
 658.754882812 889 l 5xf4
 507.189453125 727 l 5
 436.189453125 727 l 5
 341.754882812 889 l 5
EndSplineSet
Refer: 37 69 N 1 0 0 1 0 0 2
EndChar
StartChar: ecaron
Encoding: 283 283 277
Width: 444
Flags: MW
LayerCount: 2
Fore
SplineSet
186.672851562 639 m 5
 248.672851562 639 l 5
 336.682617188 571 l 5
 447.672851562 639 l 5
 482.672851562 639 l 5
 509.497070312 638 l 5
 363.098632812 545 367.098632812 545 350.098632812 545 c 6
 314.098632812 545 l 6
 294.098632812 545 272.153320312 568 186.672851562 639 c 5
EndSplineSet
Refer: 69 101 S 1 0 0 1 0 0 2
EndChar
StartChar: Gbreve
Encoding: 286 286 366
Width: 667
Flags: MW
LayerCount: 2
Fore
SplineSet
356 889 m 1
 417 889 l 1
 409 822 462 794 508 794 c 0xfe
 562 794 619 828 633 889 c 1
 695 889 l 1
 674 789 582 727 496 727 c 0
 408 727 341 790 356 889 c 1
EndSplineSet
Refer: 39 71 N 1 0 0 1 0 0 2
EndChar
StartChar: gbreve
Encoding: 287 287 386
Width: 500
Flags: MW
LayerCount: 2
Fore
SplineSet
192.672851562 639 m 5
 253.672851562 639 l 5
 248.03515625 573 322.625 565 349.625 565 c 4
 375.625 565 453.03515625 573 469.672851562 639 c 5
 531.672851562 639 l 5
 511.274414062 546 417.810546875 498 336.810546875 498 c 4
 255.810546875 498 179.451171875 547 192.672851562 639 c 5
EndSplineSet
Refer: 71 103 N 1 0 0 1 0 0 2
EndChar
StartChar: Gdotaccent
Encoding: 288 288 368
Width: 667
Flags: MW
LayerCount: 2
Fore
SplineSet
461.06640625 766 m 5
 476.759765625 855 l 5
 566.759765625 855 l 5
 551.06640625 766 l 5
 461.06640625 766 l 5
EndSplineSet
Refer: 39 71 N 1 0 0 1 0 0 3
EndChar
StartChar: gdotaccent
Encoding: 289 289 387
Width: 500
Flags: MW
LayerCount: 2
Fore
SplineSet
301 511 m 5
 317 600 l 5
 407 600 l 5
 391 511 l 5
 301 511 l 5
EndSplineSet
Refer: 71 103 N 1 0 0 1 0 0 3
EndChar
StartChar: Gcommaaccent
Encoding: 290 290 367
Width: 667
Flags: MW
LayerCount: 2
Fore
SplineSet
345.536132812 -48 m 1
 403.536132812 -48 l 1
 394.896484375 -97 l 2
 383.372070312 -134 363.611328125 -161 348.79296875 -194 c 1
 319.79296875 -194 l 1
 353.1328125 -107 l 1
 335.1328125 -107 l 1
 345.536132812 -48 l 1
EndSplineSet
Refer: 39 71 N 1 0 0 1 0 0 2
EndChar
StartChar: Hbar
Encoding: 294 294 354
Width: 708
Flags: MW
LayerCount: 2
Fore
SplineSet
131.50390625 587 m 0
 136.088867188 613 158.735351562 611 169.735351562 611 c 2
 201.735351562 611 l 1
 216.37109375 694 l 1
 306.37109375 694 l 1
 291.735351562 611 l 1
 631.735351562 611 l 1
 646.37109375 694 l 1
 736.37109375 694 l 1
 721.735351562 611 l 1
 762.735351562 611 l 2
 773.735351562 611 796.088867188 613 791.50390625 587 c 0
 789.740234375 577 783.272460938 563 759.272460938 563 c 2
 713.272460938 563 l 1
 614 0 l 1
 524 0 l 1
 582.1875 330 l 1
 242.1875 330 l 1
 184 0 l 1
 94 0 l 1
 193.272460938 563 l 1
 161.272460938 563 l 2
 148.272460938 563 127.272460938 563 131.50390625 587 c 0
623.272460938 563 m 1
 283.272460938 563 l 1
 253.120117188 392 l 1
 593.120117188 392 l 1
 623.272460938 563 l 1
EndSplineSet
EndChar
StartChar: hbar
Encoding: 295 295 413
Width: 564
Flags: MW
LayerCount: 2
Fore
SplineSet
106.103515625 511 m 1
 116.506835938 570 l 1
 227.506835938 570 l 1
 249.546875 695 l 1
 324.546875 695 l 1
 302.506835938 570 l 1
 444.506835938 570 l 1
 434.103515625 511 l 1
 292.103515625 511 l 1
 269.709960938 384 l 1
 287.883789062 402 307.528320312 417 327.64453125 429 c 0
 356.641601562 446 388.228515625 455 426.228515625 455 c 0
 479.228515625 455 508.231445312 438 523.999023438 414 c 0
 542.709960938 384 542.65625 344 538.013671875 312 c 0
 536.426757812 303 535.016601562 295 533.782226562 288 c 2
 483 0 l 1
 405 0 l 1
 454.547851562 281 l 2
 460.190429688 313 464.538085938 349 443.59375 372 c 4
 430.885742188 385 410.47265625 394 376.47265625 394 c 0
 347.47265625 394 323.356445312 382 304.182617188 364 c 0
 272.893554688 334 255.4296875 286 247.318359375 240 c 2
 205 0 l 1
 127 0 l 1
 217.103515625 511 l 1
 106.103515625 511 l 1
EndSplineSet
EndChar
StartChar: Itilde
Encoding: 296 296 270
Width: 278
Flags: MW
LayerCount: 2
Fore
SplineSet
114.943359375 805 m 1
 129.991210938 879 185.220703125 920 233.220703125 920 c 0xde
 285.220703125 920 312.875976562 867 357.875976562 867 c 0xee
 363.875976562 867 370.051757812 868 375.581054688 871 c 0
 390.815429688 878 401.989257812 896 407.220703125 920 c 1
 468.220703125 920 l 1xde
 452.172851562 846 398.119140625 806 350.119140625 806 c 0xee
 298.119140625 806 270.46484375 859 226.46484375 859 c 0xde
 220.46484375 859 216.288085938 858 210.935546875 856 c 0
 194.701171875 849 182.52734375 831 175.943359375 805 c 1
 114.943359375 805 l 1
EndSplineSet
Refer: 41 73 N 1 0 0 1 1 0 2
EndChar
StartChar: imacron
Encoding: 299 299 232
Width: 239
Flags: MW
LayerCount: 2
Fore
SplineSet
96.15625 551 m 1
 107.44140625 615 l 1
 347.44140625 615 l 1
 336.15625 551 l 1
 96.15625 551 l 1
EndSplineSet
Refer: 137 305 N 1 0 0 1 0 0 2
EndChar
StartChar: Iogonek
Encoding: 302 302 370
Width: 278
Flags: MW
LayerCount: 2
Fore
SplineSet
184 0 m 1
 178.470703125 -3 85.3603515625 -49 75.1328125 -107 c 0
 74.0751953125 -113 74.3701171875 -117 75.48828125 -122 c 0
 75.958984375 -125 77.4296875 -128 79.0771484375 -130 c 0
 86.1376953125 -141 100.080078125 -147 119.080078125 -147 c 0
 145.080078125 -147 172.842773438 -137 188.548828125 -133 c 1
 194.145507812 -192 l 1
 135.737304688 -217 101.737304688 -217 92.7373046875 -217 c 0
 34.7373046875 -217 2.0849609375 -181 11.4296875 -128 c 0
 20.4228515625 -77 66.88671875 -29 119 0 c 1
 184 0 l 1
EndSplineSet
Refer: 41 73 N 1 0 0 1 0 0 2
EndChar
StartChar: iogonek
Encoding: 303 303 388
Width: 239
Flags: MW
LayerCount: 2
Fore
SplineSet
156 0 m 1
 150.470703125 -3 57.3603515625 -49 47.1328125 -107 c 0
 46.0751953125 -113 46.3701171875 -117 47.48828125 -122 c 0
 47.958984375 -125 49.4296875 -128 51.0771484375 -130 c 0
 58.1376953125 -141 72.080078125 -147 91.080078125 -147 c 0
 117.080078125 -147 144.842773438 -137 160.548828125 -133 c 1
 166.145507812 -192 l 1
 107.737304688 -217 73.7373046875 -217 64.7373046875 -217 c 0
 6.7373046875 -217 -25.9150390625 -181 -16.5703125 -128 c 0
 -7.5771484375 -77 38.88671875 -29 91 0 c 1
 156 0 l 1
EndSplineSet
Refer: 73 105 N 1 0 0 1 0 0 2
EndChar
StartChar: Idotaccent
Encoding: 304 304 369
Width: 278
Flags: MW
LayerCount: 2
Fore
SplineSet
231.182617188 778 m 5
 246.875976562 867 l 5
 336.875976562 867 l 5
 321.182617188 778 l 5
 231.182617188 778 l 5
EndSplineSet
Refer: 41 73 N 1 0 0 1 0 0 2
EndChar
StartChar: dotlessi
Encoding: 305 305 137
Width: 239
Flags: MW
LayerCount: 2
Fore
SplineSet
81 0 m 1
 159.465820312 445 l 1
 234.465820312 445 l 1
 156 0 l 1
 81 0 l 1
EndSplineSet
EndChar
StartChar: jcircumflex
Encoding: 309 309 347
Width: 267
Flags: MW
LayerCount: 2
Fore
SplineSet
-91.15234375 -171 m 5
 -65.3955078125 -110 l 5
 -43.9228515625 -130 -23.8623046875 -141 7.1376953125 -141 c 4
 48.1376953125 -141 80.3701171875 -117 91.9541015625 -91 c 4
 95.365234375 -83 96.9521484375 -74 98.5390625 -65 c 6
 188.465820312 445 l 5
 263.465820312 445 l 5
 176.18359375 -50 l 6xe8
 166.485351562 -105 143.961914062 -142 118.729492188 -166 c 4
 87.6162109375 -195 50.8525390625 -205 22.8525390625 -205 c 4
 -25.1474609375 -205 -63.326171875 -189 -91.15234375 -171 c 5
EndSplineSet
Refer: 126 710 N 1 0 0 1 -101.647 2 2
EndChar
StartChar: Kcommaaccent
Encoding: 310 310 371
Width: 694
Flags: MW
LayerCount: 2
Fore
SplineSet
287.536132812 -48 m 1
 345.536132812 -48 l 1
 336.896484375 -97 l 2
 325.372070312 -134 305.611328125 -161 290.79296875 -194 c 1
 261.79296875 -194 l 1
 295.1328125 -107 l 1
 277.1328125 -107 l 1
 287.536132812 -48 l 1
EndSplineSet
Refer: 43 75 N 1 0 0 1 0 0 2
EndChar
StartChar: kcommaaccent
Encoding: 311 311 389
Width: 489
Flags: MW
LayerCount: 2
Fore
SplineSet
207.536132812 -48 m 1
 265.536132812 -48 l 1
 256.896484375 -97 l 2
 245.372070312 -134 225.611328125 -161 210.79296875 -194 c 1
 181.79296875 -194 l 1
 215.1328125 -107 l 1
 197.1328125 -107 l 1
 207.536132812 -48 l 1
EndSplineSet
Refer: 75 107 N 1 0 0 1 0 0 2
EndChar
StartChar: kra
Encoding: 312 312 360
Width: 489
Flags: MW
LayerCount: 2
Fore
SplineSet
81 0 m 5
 159 445 l 5
 231 445 l 5
 195 236 l 5
 437 445 l 5
 527 445 l 5
 327 273 l 5
 471 0 l 5
 389 0 l 5
 271 224 l 5
 179 145 l 5
 153 0 l 5
 81 0 l 5
EndSplineSet
EndChar
StartChar: Lacute
Encoding: 313 313 313
Width: 542
Flags: MW
LayerCount: 2
Fore
SplineSet
341 760 m 1
 514 850 l 25
 624 850 l 1
 452 771 l 1
 428 761 l 1
 413 760 l 1
 365 760 l 1
 341 760 l 1
EndSplineSet
Refer: 44 76 N 1 0 0 1 0 0 2
EndChar
StartChar: lacute
Encoding: 314 314 326
Width: 239
Flags: MW
LayerCount: 2
Fore
SplineSet
168.008789062 760 m 5
 340.877929688 850 l 29
 450.877929688 850 l 5
 278.948242188 771 l 5
 255.184570312 761 l 5
 240.008789062 760 l 5
 192.008789062 760 l 5
 168.008789062 760 l 5
EndSplineSet
Refer: 76 108 N 1 0 0 1 0 0 2
EndChar
StartChar: Lcommaaccent
Encoding: 315 315 373
Width: 542
Flags: MW
LayerCount: 2
Fore
SplineSet
248 -48 m 1
 306 -48 l 1
 297 -97 l 2
 285 -134 266 -161 251 -194 c 1
 222 -194 l 1
 255 -107 l 1
 237 -107 l 1
 248 -48 l 1
EndSplineSet
Refer: 44 76 N 1 0 0 1 0 0 2
EndChar
StartChar: lcommaaccent
Encoding: 316 316 391
Width: 239
Flags: MW
LayerCount: 2
Fore
SplineSet
81.5361328125 -48 m 1
 139.536132812 -48 l 1
 130.896484375 -97 l 2
 119.372070312 -134 99.611328125 -161 84.79296875 -194 c 1
 55.79296875 -194 l 1
 89.1328125 -107 l 1
 71.1328125 -107 l 1
 81.5361328125 -48 l 1
EndSplineSet
Refer: 76 108 N 1 0 0 1 0 0 2
EndChar
StartChar: Lcaron
Encoding: 317 317 298
Width: 542
Flags: MW
LayerCount: 2
Fore
SplineSet
442 611 m 1
 482 694 l 1
 456 694 l 1
 471 778 l 1
 555 778 l 1
 543 709 l 2
 542 703 540 698 538 694 c 0
 532 681 484 611 484 611 c 1
 442 611 l 1
EndSplineSet
Refer: 44 76 N 1 0 0 1 0 0 2
EndChar
StartChar: lcaron
Encoding: 318 318 305
Width: 355
Flags: MW
LayerCount: 2
Fore
SplineSet
317.267578125 597 m 1
 357.90234375 680 l 1
 331.90234375 680 l 1
 346.713867188 764 l 1
 430.713867188 764 l 1
 418.546875 695 l 2
 417.489257812 689 415.607421875 684 413.90234375 680 c 0
 407.610351562 667 359.267578125 597 359.267578125 597 c 1
 317.267578125 597 l 1
EndSplineSet
Refer: 76 108 N 1 0 0 1 0 0 2
EndChar
StartChar: Lslash
Encoding: 321 321 132
Width: 625
Flags: MW
LayerCount: 2
Fore
SplineSet
126 278 m 1
 241 363 l 1
 299 694 l 1
 389 694 l 1
 345 440 l 1
 489 547 l 1
 521 500 l 1
 330 359 l 1
 278 65 l 1
 473 65 l 1
 594 66 l 1
 582 0 l 1
 177 0 l 1
 227 282 l 1
 158 231 l 1
 126 278 l 1
EndSplineSet
EndChar
StartChar: lslash
Encoding: 322 322 138
Width: 324
Flags: MW
LayerCount: 2
Fore
SplineSet
77.4296875 286 m 1
 186.711914062 367 l 1
 249.307617188 722 l 1
 325.307617188 722 l 1
 273.997070312 431 l 1
 355.752929688 492 l 1
 385.818359375 447 l 1
 260.595703125 355 l 1
 198 0 l 1
 122 0 l 1
 173.134765625 290 l 1
 107.495117188 241 l 1
 77.4296875 286 l 1
EndSplineSet
EndChar
StartChar: Nacute
Encoding: 323 323 318
Width: 708
Flags: MW
LayerCount: 2
Fore
SplineSet
365 760 m 1
 538 850 l 25
 648 850 l 1
 476 771 l 1
 452 761 l 1
 437 760 l 1
 389 760 l 1
 365 760 l 1
EndSplineSet
Refer: 46 78 N 1 0 0 1 0 0 2
EndChar
StartChar: Ncommaaccent
Encoding: 325 325 374
Width: 708
Flags: MW
LayerCount: 2
Fore
SplineSet
301.536132812 -48 m 1
 359.536132812 -48 l 1
 350.896484375 -97 l 2
 339.372070312 -134 319.611328125 -161 304.79296875 -194 c 1
 275.79296875 -194 l 1
 309.1328125 -107 l 1
 291.1328125 -107 l 1
 301.536132812 -48 l 1
EndSplineSet
Refer: 46 78 N 1 0 0 1 0 0 2
EndChar
StartChar: ncommaaccent
Encoding: 326 326 392
Width: 517
Flags: MW
LayerCount: 2
Fore
SplineSet
225.536132812 -48 m 1
 283.536132812 -48 l 1
 274.896484375 -97 l 2
 263.372070312 -134 243.611328125 -161 228.79296875 -194 c 1
 199.79296875 -194 l 1
 233.1328125 -107 l 1
 215.1328125 -107 l 1
 225.536132812 -48 l 1
EndSplineSet
Refer: 78 110 N 1 0 0 1 0 0 2
EndChar
StartChar: Ncaron
Encoding: 327 327 319
Width: 708
Flags: MW
LayerCount: 2
Fore
SplineSet
352 889 m 1
 413 889 l 1
 490 778 l 1
 607 889 l 1
 668 889 l 1
 517 727 l 1
 445 727 l 1
 352 889 l 1
EndSplineSet
Refer: 46 78 N 1 0 0 1 0 0 2
EndChar
StartChar: ncaron
Encoding: 328 328 333
Width: 517
Flags: MW
LayerCount: 2
Fore
SplineSet
178 639 m 5
 240 639 l 5
 328 571 l 5
 439 639 l 5
 474 639 l 5
 500 638 l 5
 354 545 358 545 341 545 c 6
 305 545 l 6
 285 545 263 568 178 639 c 5
EndSplineSet
Refer: 78 110 N 1 0 0 1 0 0 2
EndChar
StartChar: napostrophe
Encoding: 329 329 362
Width: 517
Flags: MW
LayerCount: 2
Fore
SplineSet
119 495 m 1
 160 578 l 1
 134 578 l 1
 149 662 l 1
 233 662 l 1
 221 593 l 2
 220 587 218 582 216 578 c 0
 210 565 161 495 161 495 c 1
 119 495 l 1
EndSplineSet
Refer: 78 110 N 1 0 0 1 0 0 2
EndChar
StartChar: Eng
Encoding: 330 330 357
Width: 708
Flags: MW
LayerCount: 2
Fore
SplineSet
521 0 m 1
 611 0 l 25
 605.534179688 -31 l 2
 598.48046875 -71 581.016601562 -119 546.845703125 -154 c 4
 518.908203125 -182 480.381835938 -202 427.381835938 -202 c 0
 370.381835938 -202 323.732421875 -183 291.788085938 -160 c 1
 318.01171875 -85 l 1
 324.249023438 -95 347.314453125 -140 408.314453125 -140 c 0
 458.314453125 -140 488.1328125 -107 502.422851562 -77 c 0
 510.7734375 -58 515.299804688 -38 517.649414062 -19 c 10
 521 0 l 1
95 0 m 1
 217.37109375 694 l 1
 342.37109375 694 l 1
 520.44921875 150 l 1
 545.342773438 70 l 1
 655.37109375 694 l 1
 733.37109375 694 l 1
 611 0 l 1
 486 0 l 1
 307.921875 544 l 1
 283.028320312 624 l 1
 173 0 l 1
 95 0 l 1
EndSplineSet
EndChar
StartChar: Omacron
Encoding: 332 332 240
Width: 736
Flags: MW
LayerCount: 2
Fore
SplineSet
202 786 m 0
 206 808 228 806 239 806 c 2
 781 806 l 2
 792 806 815 808 811 786 c 0
 810 778 803 766 779 766 c 2
 232 766 l 2
 219 766 198 766 202 786 c 0
EndSplineSet
Refer: 47 79 N 1 0 0 1 0 0 3
EndChar
StartChar: omacron
Encoding: 333 333 235
Width: 500
Flags: MW
LayerCount: 2
Fore
SplineSet
166.15625 551 m 1
 177.44140625 615 l 1
 537.44140625 615 l 1
 526.15625 551 l 1
 166.15625 551 l 1
EndSplineSet
Refer: 79 111 N 1 0 0 1 0 0 3
EndChar
StartChar: Ohungarumlaut
Encoding: 336 336 320
Width: 500
Flags: MW
LayerCount: 2
Fore
SplineSet
500.008789062 760 m 1
 672.877929688 850 l 25
 782.877929688 850 l 1
 610.948242188 771 l 1
 587.184570312 761 l 1
 572.008789062 760 l 1
 524.008789062 760 l 1
 500.008789062 760 l 1
334.008789062 760 m 1
 506.877929688 850 l 25
 616.877929688 850 l 1
 444.948242188 771 l 1
 421.184570312 761 l 1
 406.008789062 760 l 1
 358.008789062 760 l 1
 334.008789062 760 l 1
EndSplineSet
Refer: 47 79 N 1 0 0 1 0 0 2
EndChar
StartChar: OE
Encoding: 338 338 134
Width: 972
Flags: MW
LayerCount: 2
Fore
SplineSet
87.8330078125 345 m 0
 108.9921875 465 180.03515625 573 273.025390625 641 c 0
 336.3125 688 410.25 716 485.25 716 c 0xae
 544.25 716 577.37109375 694 649.37109375 694 c 2
 1037.37109375 694 l 1
 1025.73339844 628 l 1
 968.733398438 628 l 1
 944.91015625 629 l 1
 705.91015625 629 l 1
 669.0859375 630 l 1
 627.120117188 392 l 1
 956.120117188 392 l 1
 945.1875 330 l 1
 616.1875 330 l 1
 570.342773438 70 l 1
 656.342773438 70 l 1
 680.51953125 71 l 1
 873.51953125 71 l 1
 895.6953125 72 l 1
 941.6953125 72 l 1
 929 0 l 1
 505 0 l 2x76
 454.470703125 -3 407.12109375 -22 353.12109375 -22 c 0
 269.12109375 -22 192.821289062 16 143.106445312 80 c 0
 92.5673828125 145 68.7890625 237 87.8330078125 345 c 0
177.125 358 m 0xae
 174.127929688 341 171.954101562 323 170.956054688 306 c 0
 168.670898438 242 181.739257812 180 210.275390625 132 c 4
 243.400390625 76 296.876953125 39 369.876953125 39 c 0
 462.876953125 39 484.577148438 77 511.37890625 229 c 2
 554.049804688 471 l 2
 580.499023438 621 567.96484375 652 485.494140625 655 c 2
 466.494140625 655 l 2
 418.141601562 653 366.438476562 632 319.267578125 597 c 0
 252.274414062 546 195.815429688 464 177.125 358 c 0xae
EndSplineSet
EndChar
StartChar: oe
Encoding: 339 339 140
Width: 778
Flags: MW
LayerCount: 2
Fore
SplineSet
69.673828125 225 m 0
 82.1923828125 296 122.830078125 362 177.588867188 406 c 0
 219.583984375 440 270.287109375 461 322.287109375 461 c 0
 346.287109375 461 389.405273438 456 428.939453125 425 c 0
 447.293945312 410 464.767578125 390 478.830078125 362 c 1
 496.885742188 385 519.588867188 406 544.41015625 422 c 0
 581.641601562 446 623.287109375 461 663.287109375 461 c 0
 701.287109375 461 748.170898438 449 774.70703125 401 c 0
 784.533203125 383 790.654296875 361 793.716796875 333 c 4
 797.426757812 303 795.7265625 265 787.791992188 220 c 1
 493.791992188 220 l 1
 492.67578125 208 486.623046875 168 500.74609375 129 c 0
 508.04296875 108 522.340820312 87 545.342773438 70 c 0
 555.108398438 63 574.993164062 51 607.993164062 51 c 0
 673.993164062 51 722.282226562 81 756.690429688 106 c 1
 751.052734375 40 l 1
 705.763671875 10 656.060546875 -11 596.060546875 -11 c 0
 572.060546875 -11 527.765625 -7 486.231445312 24 c 0
 466.876953125 39 447.580078125 60 431.869140625 90 c 1
 412.637695312 66 389.934570312 45 365.11328125 29 c 0
 325.529296875 3 282.060546875 -11 239.060546875 -11 c 0
 180.060546875 -11 129.998046875 17 98.28515625 64 c 0
 70.5146484375 105 58.388671875 161 69.673828125 225 c 0
143.731445312 231 m 0
 134.033203125 176 140.922851562 130 160.456054688 99 c 0
 178.990234375 68 209.993164062 51 249.993164062 51 c 0
 281.993164062 51 319.28515625 64 351.750976562 95 c 0
 378.3359375 121 401.036132812 159 413.380859375 212 c 0
 414.439453125 218 416.497070312 224 417.731445312 231 c 0
 428.487304688 292 417.421875 337 392.359375 365 c 0
 372.23828125 387 344.354492188 399 311.354492188 399 c 0
 279.354492188 399 241.23828125 387 209.125 358 c 0
 179.364257812 331 154.134765625 290 143.731445312 231 c 0
508.490234375 275 m 1
 738.490234375 275 l 1
 739.248046875 319 730.361328125 348 718.536132812 366 c 0
 698.001953125 397 667.354492188 399 654.354492188 399 c 0
 625.354492188 399 591.885742188 385 561.772460938 356 c 0
 541.24609375 336 521.485351562 309 508.490234375 275 c 1
EndSplineSet
EndChar
StartChar: Racute
Encoding: 340 340 311
Width: 646
Flags: MW
LayerCount: 2
Fore
SplineSet
317 760 m 1
 490 850 l 25
 600 850 l 1
 428 771 l 1
 404 761 l 1
 389 760 l 1
 341 760 l 1
 317 760 l 1
EndSplineSet
Refer: 50 82 N 1 0 0 1 0 0 2
EndChar
StartChar: Rcommaaccent
Encoding: 342 342 375
Width: 646
Flags: MW
LayerCount: 2
Fore
SplineSet
282.536132812 -48 m 1
 340.536132812 -48 l 1
 331.896484375 -97 l 2
 320.372070312 -134 300.611328125 -161 285.79296875 -194 c 1
 256.79296875 -194 l 1
 290.1328125 -107 l 1
 272.1328125 -107 l 1
 282.536132812 -48 l 1
EndSplineSet
Refer: 50 82 N 1 0 0 1 0 0 2
EndChar
StartChar: rcommaaccent
Encoding: 343 343 393
Width: 342
Flags: MW
LayerCount: 2
Fore
SplineSet
125 -48 m 1
 183 -48 l 1
 174 -97 l 2
 162 -134 143 -161 128 -194 c 1
 99 -194 l 1
 132 -107 l 1
 114 -107 l 1
 125 -48 l 1
EndSplineSet
Refer: 82 114 N 1 0 0 1 0 0 2
EndChar
StartChar: Rcaron
Encoding: 344 344 321
Width: 646
Flags: MW
LayerCount: 2
Fore
SplineSet
305 889 m 1
 366 889 l 1
 443 778 l 1
 560 889 l 1
 622 889 l 1xf6
 470 727 l 1
 398 727 l 1
 305 889 l 1
EndSplineSet
Refer: 50 82 S 1 0 0 1 0 0 2
EndChar
StartChar: rcaron
Encoding: 345 345 335
Width: 342
Flags: MW
LayerCount: 2
Fore
SplineSet
173 639 m 5
 235 639 l 5
 323 571 l 5
 434 639 l 5
 469 639 l 5
 495 638 l 5
 349 545 353 545 336 545 c 6
 300 545 l 6
 280 545 258 568 173 639 c 5
EndSplineSet
Refer: 82 114 S 1 0 0 1 0 0 2
EndChar
StartChar: Sacute
Encoding: 346 346 299
Width: 555
Flags: MW
LayerCount: 2
Fore
SplineSet
272.008789062 760 m 1
 444.877929688 850 l 25
 554.877929688 850 l 1
 382.948242188 771 l 1
 359.184570312 761 l 1
 344.008789062 760 l 1
 296.008789062 760 l 1
 272.008789062 760 l 1
EndSplineSet
Refer: 51 83 N 1 0 0 1 0 0 2
EndChar
StartChar: Scaron
Encoding: 352 352 217
Width: 555
Flags: MW
LayerCount: 2
Fore
SplineSet
275.754882812 889 m 1
 336.754882812 889 l 1
 414.182617188 778 l 1
 530.754882812 889 l 1
 591.754882812 889 l 1xe8
 441.189453125 727 l 1
 369.189453125 727 l 1
 275.754882812 889 l 1
EndSplineSet
Refer: 51 83 N 1 0 0 1 0 0 2
EndChar
StartChar: scaron
Encoding: 353 353 220
Width: 383
Flags: MW
LayerCount: 2
Fore
SplineSet
140 639 m 5
 202 639 l 5
 290 571 l 5
 401 639 l 5
 436 639 l 5
 462 638 l 5
 316 545 320 545 303 545 c 6
 267 545 l 6
 247 545 225 568 140 639 c 5
EndSplineSet
Refer: 83 115 N 1 0 0 1 0 0 2
EndChar
StartChar: tcedilla
Encoding: 355 355 337
Width: 361
Flags: MW
LayerCount: 2
Fore
SplineSet
86 386 m 1
 96 445 l 1
 182 445 l 1
 205 571 l 1
 275 571 l 1
 252 445 l 1
 393 445 l 1
 383 386 l 1
 242 386 l 1
 198 134 l 2
 189 78 199 53 236 53 c 0xf0
 287 53 322 83 331 86 c 1
 337 27 l 1
 280 -1 226 -11 181 -11 c 0
 111 -11 112 54 124 122 c 2
 170 386 l 1
 86 386 l 1
EndSplineSet
Refer: 129 184 S 1 0 0 1 0 0 2
EndChar
StartChar: Tcaron
Encoding: 356 356 301
Width: 680
Flags: MW
LayerCount: 2
Fore
SplineSet
338 889 m 1
 399 889 l 1
 477 778 l 1
 593 889 l 1
 655 889 l 1xf0
 503 727 l 1
 432 727 l 1
 338 889 l 1
EndSplineSet
Refer: 52 84 S 1 0 0 1 0 0 2
EndChar
StartChar: tcaron
Encoding: 357 357 308
Width: 361
Flags: MW
LayerCount: 2
Fore
SplineSet
359.047851562 488 m 1
 399.682617188 571 l 1
 373.682617188 571 l 1
 388.494140625 655 l 1
 472.494140625 655 l 1
 460.327148438 586 l 2
 459.26953125 580 457.387695312 575 455.682617188 571 c 0
 449.390625 558 401.047851562 488 401.047851562 488 c 1
 359.047851562 488 l 1
EndSplineSet
Refer: 84 116 N 1 0 0 1 0 0 2
EndChar
StartChar: Tbar
Encoding: 358 358 358
Width: 680
Flags: MW
LayerCount: 2
Fore
SplineSet
145 623 m 1
 156 689 l 1
 764 689 l 1
 753 623 l 1
 494 624 l 1
 451 382 l 1
 593 382 l 1
 583 323 l 1
 441 323 l 1
 384 0 l 1
 295 0 l 1
 352 323 l 1
 215 323 l 1
 225 382 l 1
 362 382 l 1
 405 624 l 1
 145 623 l 1
EndSplineSet
EndChar
StartChar: tbar
Encoding: 359 359 363
Width: 361
Flags: MW
LayerCount: 2
Fore
SplineSet
86.0625 386 m 1
 96.4658203125 445 l 1
 182.465820312 445 l 1
 204.682617188 571 l 1
 274.682617188 571 l 1
 252.465820312 445 l 1
 393.465820312 445 l 1
 383.0625 386 l 1
 242.0625 386 l 1
 223.37109375 280 l 1
 364.37109375 280 l 1
 353.96875 221 l 1
 212.96875 221 l 1
 198.685546875 140 l 2
 194.629882812 117 191.1640625 86 203.990234375 68 c 0
 210.403320312 59 220.345703125 53 237.345703125 53 c 0
 284.345703125 53 319.106445312 80 331.1640625 86 c 1
 336.760742188 27 l 1
 279.823242188 -1 226.060546875 -11 182.060546875 -11 c 0
 165.060546875 -11 144.942382812 -6 131.46875 14 c 0
 119.818359375 33 113.28515625 64 122.629882812 117 c 2
 140.96875 221 l 1
 54.96875 221 l 1
 65.37109375 280 l 1
 151.37109375 280 l 1
 170.0625 386 l 1
 86.0625 386 l 1
EndSplineSet
EndChar
StartChar: Utilde
Encoding: 360 360 275
Width: 687
Flags: MW
LayerCount: 2
Fore
SplineSet
320.943359375 805 m 1
 335.991210938 879 391.220703125 920 439.220703125 920 c 0xde
 491.220703125 920 518.875976562 867 563.875976562 867 c 0xee
 569.875976562 867 576.051757812 868 581.581054688 871 c 0
 596.815429688 878 607.989257812 896 613.220703125 920 c 1
 674.220703125 920 l 1xde
 658.172851562 846 604.119140625 806 556.119140625 806 c 0xee
 504.119140625 806 476.46484375 859 432.46484375 859 c 0xde
 426.46484375 859 422.288085938 858 416.935546875 856 c 0
 400.701171875 849 388.52734375 831 381.943359375 805 c 1
 320.943359375 805 l 1
EndSplineSet
Refer: 53 85 N 1 0 0 1 0 0 2
EndChar
StartChar: Umacron
Encoding: 362 362 238
Width: 687
Flags: MW
LayerCount: 2
Fore
SplineSet
177.592773438 786 m 0
 181.47265625 808 204.119140625 806 215.119140625 806 c 2
 757.119140625 806 l 2
 768.119140625 806 790.47265625 808 786.592773438 786 c 0
 785.182617188 778 779.06640625 766 755.06640625 766 c 2
 208.06640625 766 l 2
 195.06640625 766 174.06640625 766 177.592773438 786 c 0
EndSplineSet
Refer: 53 85 N 1 0 0 1 0 0 3
EndChar
StartChar: umacron
Encoding: 363 363 233
Width: 517
Flags: MW
LayerCount: 2
Fore
SplineSet
175 551 m 1
 186 615 l 1
 546 615 l 1
 535 551 l 1
 175 551 l 1
EndSplineSet
Refer: 85 117 N 1 0 0 1 0 0 3
EndChar
StartChar: Ubreve
Encoding: 364 364 343
Width: 517
Flags: MW
LayerCount: 2
Fore
SplineSet
333.928710938 907 m 5
 394.928710938 907 l 5
 389.291015625 841 463.880859375 833 490.880859375 833 c 4
 516.880859375 833 594.291015625 841 610.928710938 907 c 5
 672.928710938 907 l 5
 652.530273438 814 559.06640625 766 478.06640625 766 c 4
 397.06640625 766 320.706054688 815 333.928710938 907 c 5
EndSplineSet
Refer: 53 85 N 1 0 0 1 0 0 3
EndChar
StartChar: ubreve
Encoding: 365 365 349
Width: 517
Flags: MW
LayerCount: 2
Fore
SplineSet
204 651 m 5
 265 651 l 5
 259 585 334 577 361 577 c 4
 387 577 464 585 481 651 c 5
 543 651 l 5
 523 558 429 510 348 510 c 4
 267 510 191 559 204 651 c 5
EndSplineSet
Refer: 85 117 N 1 0 0 1 0 0 3
EndChar
StartChar: Uring
Encoding: 366 366 274
Width: 517
Flags: MW
LayerCount: 2
Fore
SplineSet
372 777 m 0
 383 842 446 888 503 888 c 0
 567 888 604 836 594 777 c 0
 584 720 529 666 463 666 c 0
 398 666 362 719 372 777 c 0
428 777 m 0
 426 764 427 749 436 739 c 0
 443 732 453 728 470 727 c 0
 471 727 473 727 474 727 c 0
 495 727 510 733 520 742 c 0
 531 752 536 765 538 777 c 0
 540 789 539 803 531 813 c 0
 524 821 513 827 493 827 c 0xdf
 492 827 490 827 489 827 c 0
 468 826 454 819 444 809 c 0
 435 800 430 788 428 777 c 0
EndSplineSet
Refer: 53 85 N 1 0 0 1 0 0 2
EndChar
StartChar: Uhungarumlaut
Encoding: 368 368 322
Width: 687
Flags: MW
LayerCount: 2
Fore
SplineSet
476.008789062 760 m 1
 648.877929688 850 l 25
 758.877929688 850 l 1
 586.948242188 771 l 1
 563.184570312 761 l 1
 548.008789062 760 l 1
 500.008789062 760 l 1
 476.008789062 760 l 1
310.008789062 760 m 1
 482.877929688 850 l 25
 592.877929688 850 l 1
 420.948242188 771 l 1
 397.184570312 761 l 1
 382.008789062 760 l 1
 334.008789062 760 l 1
 310.008789062 760 l 1
EndSplineSet
Refer: 53 85 N 1 0 0 1 0 0 2
EndChar
StartChar: Uogonek
Encoding: 370 370 376
Width: 687
Flags: MW
LayerCount: 2
Fore
SplineSet
425 0 m 1
 419 -3 326 -49 316 -107 c 0
 315 -113 315 -117 316 -122 c 0
 316 -125 318 -128 320 -130 c 0
 327 -141 341 -147 360 -147 c 0
 386 -147 414 -137 430 -133 c 1
 435 -192 l 1
 377 -217 343 -217 334 -217 c 0
 276 -217 243 -181 252 -128 c 0
 261 -77 308 -29 360 0 c 1
 425 0 l 1
EndSplineSet
Refer: 53 85 N 1 0 0 1 0 0 2
EndChar
StartChar: Zacute
Encoding: 377 377 302
Width: 611
Flags: MW
LayerCount: 2
Fore
SplineSet
327 760 m 1
 500 850 l 25
 610 850 l 1
 438 771 l 1
 414 761 l 1
 399 760 l 1
 351 760 l 1
 327 760 l 1
EndSplineSet
Refer: 58 90 N 1 0 0 1 0 0 2
EndChar
StartChar: Zdotaccent
Encoding: 379 379 303
Width: 611
Flags: MW
LayerCount: 2
Fore
SplineSet
425 778 m 5
 441 867 l 5
 531 867 l 5
 515 778 l 5
 425 778 l 5
EndSplineSet
Refer: 58 90 N 1 0 0 1 0 0 2
EndChar
StartChar: zdotaccent
Encoding: 380 380 310
Width: 435
Flags: MW
LayerCount: 2
Fore
SplineSet
295 590 m 5
 311 679 l 5
 401 679 l 5
 385 590 l 5
 295 590 l 5
EndSplineSet
Refer: 90 122 N 1 0 0 1 0 0 2
EndChar
StartChar: Zcaron
Encoding: 381 381 219
Width: 611
Flags: MW
LayerCount: 2
Fore
SplineSet
304.754882812 889 m 1
 365.754882812 889 l 1
 443.182617188 778 l 1
 559.754882812 889 l 1
 621.754882812 889 l 1
 470.189453125 727 l 1
 398.189453125 727 l 1
 304.754882812 889 l 1
EndSplineSet
Refer: 58 90 S 1 0 0 1 0 0 2
EndChar
StartChar: zcaron
Encoding: 382 382 222
Width: 435
Flags: MW
LayerCount: 2
Fore
SplineSet
170.672851562 639 m 5
 232.672851562 639 l 5
 320.682617188 571 l 5
 431.672851562 639 l 5
 466.672851562 639 l 5
 493.497070312 638 l 5
 347.098632812 545 351.098632812 545 334.098632812 545 c 6
 298.098632812 545 l 6
 278.098632812 545 256.153320312 568 170.672851562 639 c 5
EndSplineSet
Refer: 90 122 S 1 0 0 1 0 0 2
EndChar
StartChar: florin
Encoding: 402 402 104
Width: 620
Flags: MW
LayerCount: 2
Fore
SplineSet
-24 -171 m 1
 21 -110 l 1
 29 -120 43 -141 83 -141 c 0
 167 -141 189 -62 189 -62 c 1
 364 386 l 1
 290 386 l 1
 312 445 l 1
 386 445 l 1
 412 514 425 546 435 567 c 0
 443 584 448 593 457 607 c 0
 473 632 517 686 582 715 c 0
 607 726 635 733 667 733 c 0
 697 733 724 727 741 722 c 1
 713 655 l 1
 687 666 676 671 640 672 c 0
 574 672 536 625 525 607 c 0
 518 596 512 583 458 445 c 1
 572 445 l 1
 550 386 l 1
 440 386 l 1
 279 -27 l 2
 268 -55 259 -82 241 -107 c 0
 231 -123 207 -153 173 -176 c 4
 148 -192 118 -205 84 -205 c 0
 38 -205 4 -192 -24 -171 c 1
EndSplineSet
EndChar
StartChar: Acaron
Encoding: 461 461 264
Width: 667
Flags: MW
LayerCount: 2
Fore
SplineSet
329.754882812 889 m 1
 390.754882812 889 l 1
 468.182617188 778 l 1
 584.754882812 889 l 1
 645.754882812 889 l 1
 495.189453125 727 l 1
 423.189453125 727 l 1
 329.754882812 889 l 1
EndSplineSet
Refer: 33 65 N 1 0 0 1 0 0 3
EndChar
StartChar: acaron
Encoding: 462 462 276
Width: 480
Flags: MW
LayerCount: 2
Fore
SplineSet
167 605 m 5
 229 605 l 5
 317 537 l 5
 428 605 l 5
 463 605 l 5
 490 604 l 5
 344 511 347 511 330 511 c 6
 294 511 l 6
 274 511 252 534 167 605 c 5
EndSplineSet
Refer: 65 97 N 1 0 0 1 0 0 3
EndChar
StartChar: Icaron
Encoding: 463 463 268
Width: 278
Flags: MW
LayerCount: 2
Fore
SplineSet
139 889 m 1
 200 889 l 1
 277 778 l 1
 394 889 l 1
 455 889 l 1
 304 727 l 1
 232 727 l 1
 139 889 l 1
EndSplineSet
Refer: 41 73 N 1 0 0 1 0 0 3
EndChar
StartChar: icaron
Encoding: 464 464 280
Width: 239
Flags: MW
LayerCount: 2
Fore
SplineSet
64 605 m 5
 126 605 l 5
 214 537 l 5
 325 605 l 5
 360 605 l 5
 387 604 l 5
 241 511 244 511 227 511 c 6
 191 511 l 6
 171 511 149 534 64 605 c 5
EndSplineSet
Refer: 137 305 N 1 0 0 1 0 0 3
EndChar
StartChar: Ocaron
Encoding: 465 465 271
Width: 736
Flags: MW
LayerCount: 2
Fore
SplineSet
369 889 m 1
 430 889 l 1
 507 778 l 1
 624 889 l 1
 685 889 l 1
 534 727 l 1
 462 727 l 1
 369 889 l 1
EndSplineSet
Refer: 47 79 N 1 0 0 1 0 0 3
EndChar
StartChar: ocaron
Encoding: 466 466 283
Width: 500
Flags: MW
LayerCount: 2
Fore
SplineSet
195 605 m 5
 257 605 l 5
 345 537 l 5
 456 605 l 5
 491 605 l 5
 518 604 l 5
 372 511 375 511 358 511 c 6
 322 511 l 6
 302 511 280 534 195 605 c 5
EndSplineSet
Refer: 79 111 N 1 0 0 1 0 0 3
EndChar
StartChar: Ucaron
Encoding: 467 467 273
Width: 687
Flags: MW
LayerCount: 2
Fore
SplineSet
339 889 m 1
 400 889 l 1
 477 778 l 1
 594 889 l 1
 655 889 l 1
 504 727 l 1
 432 727 l 1
 339 889 l 1
EndSplineSet
Refer: 53 85 N 1 0 0 1 0 0 3
EndChar
StartChar: ucaron
Encoding: 468 468 285
Width: 517
Flags: MW
LayerCount: 2
Fore
SplineSet
203 605 m 5
 265 605 l 5
 353 537 l 5
 464 605 l 5
 499 605 l 5
 526 604 l 5
 380 511 383 511 366 511 c 6
 330 511 l 6
 310 511 288 534 203 605 c 5
EndSplineSet
Refer: 85 117 N 1 0 0 1 0 0 3
EndChar
StartChar: Udieresismacron
Encoding: 469 469 380
Width: 517
Flags: MW
LayerCount: 2
Fore
SplineSet
204.041992188 936 m 0
 207.920898438 958 230.568359375 956 241.568359375 956 c 2
 783.568359375 956 l 2
 794.568359375 956 816.920898438 958 813.041992188 936 c 0
 811.631835938 928 805.515625 916 781.515625 916 c 2
 234.515625 916 l 2
 221.515625 916 200.515625 916 204.041992188 936 c 0
EndSplineSet
Refer: 181 220 N 1 0 0 1 0 0 2
EndChar
StartChar: udieresismacron
Encoding: 470 470 293
Width: 517
Flags: MW
LayerCount: 2
Fore
SplineSet
210.421875 751 m 1
 221.706054688 815 l 1
 581.706054688 815 l 1
 570.421875 751 l 1
 210.421875 751 l 1
EndSplineSet
Refer: 210 252 N 1 0 0 1 0 0 2
EndChar
StartChar: Udieresisacute
Encoding: 471 471 377
Width: 687
Flags: MW
LayerCount: 2
Fore
SplineSet
419 910 m 5
 592 1000 l 29
 702 1000 l 5
 530 921 l 5
 507 911 l 5
 491 910 l 5
 443 910 l 5
 419 910 l 5
EndSplineSet
Refer: 181 220 N 1 0 0 1 0 0 2
EndChar
StartChar: Udieresiscaron
Encoding: 473 473 379
Width: 687
Flags: MW
LayerCount: 2
Fore
SplineSet
360 1010 m 5
 422 1010 l 5
 510 942 l 5
 621 1010 l 5
 656 1010 l 5
 683 1009 l 5
 537 916 541 916 524 916 c 6
 488 916 l 6
 468 916 445 939 360 1010 c 5
EndSplineSet
Refer: 181 220 N 1 0 0 1 0 0 2
EndChar
StartChar: udieresiscaron
Encoding: 474 474 295
Width: 517
Flags: MW
LayerCount: 2
Fore
SplineSet
237.943359375 805 m 5
 299.943359375 805 l 5
 387.953125 737 l 5
 498.943359375 805 l 5
 533.943359375 805 l 5
 560.766601562 804 l 5
 414.368164062 711 418.368164062 711 401.368164062 711 c 6
 365.368164062 711 l 6
 345.368164062 711 323.423828125 734 237.943359375 805 c 5
EndSplineSet
Refer: 210 252 N 1 0 0 1 0 0 2
EndChar
StartChar: Udieresisgrave
Encoding: 475 475 378
Width: 687
Flags: MW
LayerCount: 2
Fore
SplineSet
378 1001 m 5
 489 1001 l 29
 630 911 l 5
 552 911 l 29
 542 912 l 5
 532 916 l 5
 378 1001 l 5
EndSplineSet
Refer: 181 220 N 1 0 0 1 0 0 2
EndChar
StartChar: Ngrave
Encoding: 504 504 291
Width: 708
Flags: MW
LayerCount: 2
Fore
SplineSet
369.935546875 856 m 1
 480.935546875 856 l 25
 622.06640625 766 l 1
 544.06640625 766 l 25
 534.243164062 767 l 1
 523.948242188 771 l 1
 369.935546875 856 l 1
EndSplineSet
Refer: 46 78 N 1 0 0 1 0 0 3
EndChar
StartChar: commaturnedmod
Encoding: 699 699 99
Width: 278
Flags: MW
LayerCount: 2
Fore
SplineSet
182 486 m 1
 194 555 l 1
 198 570 l 1
 261 695 l 1
 303 695 l 1
 255 570 l 1
 281 570 l 1
 266 486 l 1
 182 486 l 1
EndSplineSet
EndChar
StartChar: apostrophemod
Encoding: 700 700 98
Width: 278
Flags: MW
LayerCount: 2
Fore
SplineSet
208.672851562 639 m 1
 223.484375 723 l 1
 307.484375 723 l 1
 295.141601562 653 l 1
 291.672851562 639 l 1
 228.631835938 514 l 1
 186.631835938 514 l 1
 234.672851562 639 l 1
 208.672851562 639 l 1
EndSplineSet
EndChar
StartChar: circumflex
Encoding: 710 710 126
Width: 500
Flags: MW
LayerCount: 2
Fore
SplineSet
183.75 509 m 1
 333.612304688 650 l 1
 394.612304688 650 l 1
 494.75 509 l 1
 433.75 509 l 1
 356.20703125 608 l 1
 244.75 509 l 1
 183.75 509 l 1
EndSplineSet
EndChar
StartChar: ring
Encoding: 730 730 128
Width: 667
Flags: MW
LayerCount: 2
Fore
SplineSet
319.390625 558 m 0
 322.564453125 576 335.090820312 596 355.735351562 611 c 0
 377.733398438 628 408.672851562 639 444.672851562 639 c 0
 446.672851562 639 447.672851562 639 449.672851562 639 c 0
 474.497070312 638 496.262695312 631 512.322265625 620 c 0
 533.677734375 605 545.798828125 583 541.213867188 557 c 0
 537.51171875 536 520.456054688 513 494.634765625 497 c 0
 473.341796875 484 446.931640625 476 415.931640625 476 c 0
 413.931640625 476 411.931640625 476 409.931640625 476 c 0
 378.108398438 477 354.87109375 487 340.33984375 501 c 0
 322.336914062 518 316.216796875 540 319.390625 558 c 0
375.213867188 557 m 0
 373.451171875 547 374.158203125 534 382.395507812 524 c 0
 388.984375 516 399.926757812 510 417.75 509 c 0
 418.75 509 420.75 509 421.75 509 c 0
 443.75 509 458.984375 516 468.748046875 526 c 0
 478.51171875 536 483.626953125 548 485.390625 558 c 0
 487.506835938 570 486.151367188 585 474.915039062 595 c 4
 468.1484375 602 455.854492188 606 438.854492188 606 c 0
 437.854492188 606 435.854492188 606 434.854492188 606 c 0
 417.677734375 605 402.620117188 599 391.856445312 589 c 0
 383.446289062 581 377.506835938 570 375.213867188 557 c 0
EndSplineSet
EndChar
StartChar: tilde
Encoding: 732 732 97
Width: 500
Flags: MW
LayerCount: 2
Fore
SplineSet
176 529 m 1x58
 190 596 243 638 293 638 c 0x38
 345 638 375 590 418 590 c 0
 445 590 462 613 468 639 c 1
 529 639 l 1
 515 573 462 529 411 529 c 0x58
 360 529 330 577 287 577 c 0x38
 271 577 248 568 237 529 c 1x98
 176 529 l 1x58
EndSplineSet
EndChar
StartChar: brevecmb
Encoding: 774 774 403
Width: 0
Flags: MW
LayerCount: 2
Fore
SplineSet
-285 767 m 5
 -224 767 l 5
 -230 701 -155 693 -128 693 c 4
 -102 693 -25 701 -8 767 c 5
 54 767 l 5
 34 674 -60 626 -141 626 c 4
 -222 626 -298 675 -285 767 c 5
EndSplineSet
EndChar
StartChar: dotaccentcmb
Encoding: 775 775 404
Width: 0
VWidth: 1135
Flags: MW
LayerCount: 2
Fore
SplineSet
-41.986328125 726 m 5
 -26.2939453125 815 l 5
 63.7060546875 815 l 5
 48.013671875 726 l 5
 -41.986328125 726 l 5
EndSplineSet
EndChar
StartChar: hungarumlautcmb
Encoding: 779 779 405
Width: 0
Flags: MW
LayerCount: 2
Fore
SplineSet
-114 638 m 1
 42 768 l 1
 120 768 l 1
 -52 638 l 1
 -114 638 l 1
-281 638 m 1
 -125 768 l 1
 -47 768 l 1
 -219 638 l 1
 -281 638 l 1
EndSplineSet
EndChar
StartChar: caroncmb
Encoding: 780 780 407
Width: 0
VWidth: 1127
Flags: MW
LayerCount: 2
Fore
SplineSet
-277 767 m 5
 -215 767 l 5
 -127 699 l 5
 -16 767 l 5
 19 767 l 5
 46 766 l 5
 -100 673 -96 673 -113 673 c 6
 -149 673 l 6
 -169 673 -192 696 -277 767 c 5
EndSplineSet
EndChar
StartChar: ogonekcmb
Encoding: 808 808 406
Width: 0
Flags: MW
LayerCount: 2
Fore
SplineSet
-330.098632812 -131 m 4
 -318.813476562 -67 -216.939453125 -11 -187.765625 7 c 6
 -153.709960938 30 l 5
 -130.536132812 48 l 5
 -112 0 l 5
 -157.34765625 -36 -213.108398438 -63 -235.750976562 -95 c 4
 -239.985351562 -102 -243.219726562 -109 -244.454101562 -116 c 4
 -244.983398438 -119 -245.51171875 -122 -245.216796875 -126 c 5
 -243.74609375 -129 -241.275390625 -132 -236.803710938 -135 c 4
 -232.333007812 -138 -226.685546875 -140 -216.685546875 -140 c 4
 -177.685546875 -140 -141.3984375 -93 -139.045898438 -91 c 5
 -94.216796875 -126 l 5
 -138.091796875 -182 -188.734375 -214 -241.734375 -214 c 4
 -292.734375 -214 -338.739257812 -180 -330.098632812 -131 c 4
EndSplineSet
EndChar
StartChar: tonos
Encoding: 900 900 350
Width: 167
Flags: MW
LayerCount: 2
Fore
SplineSet
79 495 m 5
 205 694 l 5
 284 694 l 5
 140 495 l 5
 79 495 l 5
EndSplineSet
EndChar
StartChar: dieresistonos
Encoding: 901 901 351
Width: 278
Flags: MW
LayerCount: 2
Fore
SplineSet
161.282226562 495 m 1
 287.37109375 694 l 1
 366.37109375 694 l 1
 222.282226562 495 l 1
 161.282226562 495 l 1
101.397460938 507 m 1
 112.330078125 569 l 1
 173.330078125 569 l 1
 162.397460938 507 l 1
 101.397460938 507 l 1
292.397460938 507 m 1
 303.330078125 569 l 1
 365.330078125 569 l 1
 354.397460938 507 l 1
 292.397460938 507 l 1
EndSplineSet
EndChar
StartChar: Macute
Encoding: 7742 7742 289
Width: 875
Flags: MW
LayerCount: 2
Fore
SplineSet
438 766 m 1
 611 856 l 25
 721 856 l 1
 549 777 l 1
 525 767 l 1
 510 766 l 1
 462 766 l 1
 438 766 l 1
EndSplineSet
Refer: 45 77 N 1 0 0 1 0 0 3
EndChar
StartChar: Etilde
Encoding: 7868 7868 267
Width: 597
Flags: MW
LayerCount: 2
Fore
SplineSet
293.06640625 766 m 1
 308.114257812 840 363.34375 881 411.34375 881 c 0xde
 463.34375 881 490.999023438 828 535.999023438 828 c 0xee
 541.999023438 828 548.174804688 829 553.704101562 832 c 0
 568.938476562 839 580.112304688 857 585.34375 881 c 1
 646.34375 881 l 1xde
 630.295898438 807 576.243164062 767 528.243164062 767 c 0xee
 476.243164062 767 448.587890625 820 404.587890625 820 c 0xde
 398.587890625 820 394.412109375 819 389.059570312 817 c 0
 372.825195312 810 360.651367188 792 354.06640625 766 c 1
 293.06640625 766 l 1
EndSplineSet
Refer: 37 69 N 1 0 0 1 0 0 3
EndChar
StartChar: figuredash
Encoding: 8210 8210 113
Width: 500
Flags: MW
LayerCount: 2
Fore
SplineSet
43 244 m 5
 54 305 l 5
 554 305 l 5
 543 244 l 5
 43 244 l 5
EndSplineSet
EndChar
StartChar: emdash
Encoding: 8212 8212 408
Width: 1000
Flags: MW
LayerCount: 2
Fore
SplineSet
43 244 m 1
 54 305 l 1
 1053 305 l 1
 1042 244 l 1
 43 244 l 1
EndSplineSet
EndChar
StartChar: dagger
Encoding: 8224 8224 114
Width: 444
Flags: MW
LayerCount: 2
Fore
SplineSet
133.2890625 444 m 0
 135.7578125 458 149.166015625 483 182.166015625 483 c 0
 218.166015625 483 237.754882812 475 280.874023438 470 c 1
 294.795898438 600 296.5546875 644 304.13671875 687 c 0
 311.189453125 727 338.248046875 733 351.248046875 733 c 0
 366.248046875 733 388.836914062 725 382.3125 688 c 0
 377.375976562 660 328.874023438 470 328.874023438 470 c 1
 362.40234375 473 405.341796875 484 431.341796875 484 c 0
 465.341796875 484 468.7578125 458 466.465820312 445 c 0
 463.8203125 430 451.412109375 405 417.412109375 405 c 0
 397.412109375 405 329.705078125 418 319.880859375 419 c 1
 314.772460938 356 313.369140625 297 301.37890625 229 c 2
 222.737304688 -217 l 1
 144.737304688 -217 l 1
 225.142578125 239 l 2
 230.431640625 269 237.603515625 304 270.880859375 419 c 1
 236.999023438 414 184.412109375 405 169.412109375 405 c 0
 135.412109375 405 130.997070312 431 133.2890625 444 c 0
EndSplineSet
EndChar
StartChar: daggerdbl
Encoding: 8225 8225 115
Width: 444
Flags: MW
LayerCount: 2
Fore
SplineSet
60.11328125 29 m 0
 62.7587890625 44 75.990234375 68 109.990234375 68 c 0
 129.990234375 68 196.874023438 56 206.698242188 55 c 1
 214.864257812 124 214.385742188 178 220.557617188 213 c 0
 225.318359375 240 236.374023438 263 268.374023438 263 c 0
 281.374023438 263 306.31640625 257 299.439453125 218 c 0
 288.388671875 161 269.395507812 110 255.698242188 55 c 1
 289.580078125 60 341.990234375 68 357.990234375 68 c 0
 391.990234375 68 395.58203125 43 393.11328125 29 c 0
 390.64453125 15 378.236328125 -10 344.236328125 -10 c 0
 324.236328125 -10 256.529296875 3 246.705078125 4 c 1
 243.181640625 -33 238.958984375 -125 232.611328125 -161 c 0
 225.911132812 -199 196.852539062 -205 184.852539062 -205 c 0
 170.852539062 -205 148.263671875 -197 154.788085938 -160 c 0
 165.837890625 -103 185.006835938 -51 197.705078125 4 c 1
 163.823242188 -1 111.236328125 -10 96.236328125 -10 c 0
 62.236328125 -10 57.64453125 15 60.11328125 29 c 0
142.987304688 499 m 0
 145.279296875 512 158.864257812 538 192.864257812 538 c 0
 212.864257812 538 279.571289062 525 289.395507812 524 c 1
 293.919921875 561 298.141601562 653 304.489257812 689 c 0
 311.189453125 727 339.248046875 733 351.248046875 733 c 0
 366.248046875 733 388.836914062 725 382.3125 688 c 0
 371.262695312 631 352.09375 579 338.395507812 524 c 1
 372.27734375 529 424.864257812 538 440.864257812 538 c 0
 474.864257812 538 478.456054688 513 475.810546875 498 c 0
 473.518554688 485 460.934570312 459 426.934570312 459 c 0
 406.934570312 459 339.2265625 472 329.40234375 473 c 1
 325.87890625 436 321.833007812 345 315.30859375 308 c 0
 308.608398438 270 279.55078125 264 267.55078125 264 c 0
 253.55078125 264 230.9609375 272 237.661132812 310 c 0
 248.536132812 366 267.705078125 418 280.40234375 473 c 1
 246.521484375 468 193.934570312 459 178.934570312 459 c 0
 144.934570312 459 140.341796875 484 142.987304688 499 c 0
EndSplineSet
EndChar
StartChar: bullet
Encoding: 8226 8226 118
Width: 500
Flags: MW
LayerCount: 2
Fore
SplineSet
99.08203125 250 m 0
 117.243164062 353 215.2890625 444 327.2890625 444 c 0
 438.2890625 444 505.419921875 354 487.08203125 250 c 0
 468.919921875 147 370.874023438 56 258.874023438 56 c 0
 147.874023438 56 80.744140625 146 99.08203125 250 c 0
EndSplineSet
EndChar
StartChar: perthousand
Encoding: 8240 8240 124
Width: 1166
Flags: MW
LayerCount: 2
Fore
SplineSet
153 556 m 0
 169 648 237 750 327 750 c 0
 412 750 448 653 431 555 c 0
 415 462 347 361 259 361 c 0
 173 361 136 460 153 556 c 0
228 556 m 4
 213 471 230 423 273 423 c 3
 317 423 351 498 361 556 c 0
 371 615 365 689 316 689 c 0
 267 689 239 618 228 556 c 4
175 -7 m 0
 176 1 185 11 187 13 c 1
 750 737 l 2
 754 742 762 749 771 749 c 0
 781 749 789 741 787 730 c 0
 785 721 775 710 770 702 c 2
 220 -5 l 2
 212 -14 204 -27 191 -27 c 0
 180 -27 173 -18 175 -7 c 0
528 167 m 0
 544 259 615 361 703 361 c 0
 792 361 823 260 806 166 c 0
 790 73 721 -28 634 -28 c 0
 549 -28 511 71 528 167 c 0
603 167 m 0
 589 89 602 34 648 34 c 3
 693 34 726 111 736 167 c 0
 747 227 741 300 692 300 c 0
 643 300 614 230 603 167 c 0
861 167 m 0
 880 273 958 361 1036 361 c 0
 1100 361 1161 291 1139 166 c 0
 1120 58 1042 -28 967 -28 c 0
 898 -28 840 49 861 167 c 0
936 167 m 0
 920 78 942 34 981 34 c 3
 1015 34 1055 89 1069 167 c 0
 1083 249 1059 300 1025 300 c 0
 983 300 951 252 936 167 c 0
EndSplineSet
EndChar
StartChar: minute
Encoding: 8242 8242 226
Width: 194
Flags: MW
LayerCount: 2
Fore
SplineSet
100 495 m 1
 226 694 l 1
 305 694 l 1
 161 495 l 1
 100 495 l 1
EndSplineSet
EndChar
StartChar: guilsinglleft
Encoding: 8249 8249 109
Width: 444
Flags: MW
LayerCount: 2
Fore
SplineSet
148.791992188 220 m 1
 348.407226562 439 l 1
 409.407226562 439 l 1
 226.615234375 219 l 1
 332 0 l 1
 271 0 l 1
 148.791992188 220 l 1
EndSplineSet
EndChar
StartChar: guilsinglright
Encoding: 8250 8250 110
Width: 444
Flags: MW
LayerCount: 2
Fore
SplineSet
110 0 m 1
 293 220 l 1
 187 439 l 1
 248 439 l 1
 371 219 l 1
 171 0 l 1
 110 0 l 1
EndSplineSet
EndChar
StartChar: overline
Encoding: 8254 8254 409
Width: 778
Flags: MW
LayerCount: 2
Fore
SplineSet
223.122070312 789 m 0
 227.000976562 811 249.6484375 809 260.6484375 809 c 2
 802.6484375 809 l 2
 813.6484375 809 836.000976562 811 832.122070312 789 c 0
 830.7109375 781 824.595703125 769 800.595703125 769 c 2
 253.595703125 769 l 2
 240.595703125 769 219.595703125 769 223.122070312 789 c 0
EndSplineSet
EndChar
StartChar: fraction
Encoding: 8260 8260 103
Width: 500
Flags: MW
LayerCount: 2
Fore
SplineSet
15.4443359375 -230 m 0
 16.5029296875 -224 19.2080078125 -220 21.08984375 -215 c 1
 527.484375 723 l 2
 534.600585938 735 541.069335938 749 556.069335938 749 c 0
 566.069335938 749 573.482421875 740 571.541992188 729 c 0
 570.307617188 722 566.25 716 562.015625 709 c 2
 59.85546875 -222 l 2
 55.2685546875 -231 47.0947265625 -249 31.0947265625 -249 c 0
 21.0947265625 -249 13.5048828125 -241 15.4443359375 -230 c 0
EndSplineSet
EndChar
StartChar: zero.superior
Encoding: 8304 8304 247
Width: 444
VWidth: 950
Flags: MW
LayerCount: 2
Fore
SplineSet
131.274414062 546 m 1
 131.979492188 550 133.56640625 559 134.272460938 563 c 1
 147.262695312 631 175.423828125 734 295.361328125 762 c 0
 313.06640625 766 333.418945312 768 356.418945312 768 c 0
 402.418945312 768 448.479492188 757 475.895507812 731 c 0
 523.13671875 687 514.559570312 610 507.977539062 567 c 1
 507.272460938 563 506.038085938 556 505.508789062 553 c 1
 487.346679688 450 449.711914062 367 340.48046875 343 c 0
 322.774414062 339 304.421875 337 280.421875 337 c 0
 151.421875 337 107.646484375 412 131.274414062 546 c 1
222.626953125 548 m 1
 205.346679688 450 219.17578125 415 256.53125 400 c 0
 266.825195312 396 279.47265625 394 291.47265625 394 c 0
 302.47265625 394 324.001953125 397 345.118164062 409 c 0
 380.8203125 430 398.874023438 470 413.979492188 550 c 1
 414.508789062 553 417.859375 572 418.564453125 576 c 1
 426.8515625 623 425.081054688 664 411.431640625 683 c 0
 397.78125 702 372.192382812 710 346.192382812 710 c 0
 284.192382812 710 243.610351562 667 227.740234375 577 c 1
 227.03515625 573 223.33203125 552 222.626953125 548 c 1
EndSplineSet
EndChar
StartChar: four.superior
Encoding: 8308 8308 248
Width: 444
Flags: MW
LayerCount: 2
Fore
SplineSet
106 462 m 5
 115 514 l 5
 116 518 116 517 121 521 c 5
 367 755 l 5
 471 755 l 5
 429 517 l 5
 509 517 l 5
 500 462 l 5
 420 462 l 5
 403 370 l 5
 317 370 l 5
 334 462 l 5
 106 462 l 5
193 517 m 5
 348 517 l 5
 381 705 l 5
 361 668 317 629 193 517 c 5
EndSplineSet
EndChar
StartChar: five.superior
Encoding: 8309 8309 249
Width: 444
VWidth: 950
Flags: MW
LayerCount: 2
Fore
SplineSet
101.001953125 397 m 1
 146.2890625 444 l 1
 149.407226562 439 152.702148438 435 156.997070312 431 c 0
 168.880859375 419 185.293945312 410 201.236328125 404 c 0
 224.825195312 396 250.296875 393 268.296875 393 c 0
 299.296875 393 327.53125 400 348.3515625 416 c 0
 366.8203125 430 377.5234375 451 382.284179688 478 c 1
 382.813476562 481 384.576171875 491 385.10546875 494 c 1
 387.161132812 517 383.6875 537 371.803710938 549 c 0
 361.56640625 559 345.448242188 564 327.448242188 564 c 0
 263.448242188 564 231.690429688 520 231.690429688 520 c 1
 159.690429688 520 l 1
 201.126953125 755 l 1
 502.126953125 755 l 1
 492.252929688 699 l 1
 277.252929688 699 l 1
 259.97265625 601 l 1
 283.559570312 610 304.793945312 617 339.793945312 617 c 0
 384.793945312 617 423.030273438 607 449.680664062 588 c 0
 478.977539062 567 491.395507812 524 483.108398438 477 c 0
 475.172851562 432 448.177734375 398 410.123046875 375 c 0
 368.538085938 349 314.421875 337 260.421875 337 c 0
 225.421875 337 194.303710938 342 169.067382812 352 c 0
 134.182617188 364 112.533203125 383 101.001953125 397 c 1
EndSplineSet
EndChar
StartChar: six.superior
Encoding: 8310 8310 250
Width: 444
VWidth: 950
Flags: MW
LayerCount: 2
Fore
SplineSet
133.979492188 550 m 0
 147.733398438 628 180.844726562 674 219.487304688 706 c 0
 267.715820312 747 333.418945312 768 407.418945312 768 c 0
 444.418945312 768 467.713867188 764 492.302734375 756 c 1
 483.310546875 705 l 1
 459.368164062 711 438.426757812 717 400.426757812 717 c 0
 346.426757812 717 310.252929688 699 289.254882812 682 c 0
 263.551757812 661 244.0859375 630 235.680664062 588 c 1
 267.6171875 616 315.497070312 638 373.497070312 638 c 0
 430.497070312 638 454.67578125 622 472.325195312 603 c 0
 499.211914062 574 499.158203125 534 493.634765625 497 c 1
 493.282226562 495 492.752929688 492 492.400390625 490 c 1
 485.346679688 450 471.3515625 416 429.533203125 383 c 0
 380.48046875 343 326.421875 337 283.421875 337 c 0
 231.421875 337 185.71484375 350 158.533203125 383 c 0
 122.5859375 423 123.223632812 489 133.979492188 550 c 0
220.987304688 499 m 0
 220.10546875 494 220.400390625 490 219.518554688 485 c 0
 216.11328125 443 221.47265625 394 294.47265625 394 c 0
 353.47265625 394 379.939453125 425 389.5234375 451 c 0
 393.639648438 463 395.931640625 476 398.047851562 488 c 1
 398.752929688 492 400.869140625 504 401.397460938 507 c 1
 404.100585938 528 404.098632812 545 394.743164062 560 c 0
 381.09375 579 358.327148438 586 331.327148438 586 c 0
 275.327148438 586 239.685546875 554 226.161132812 517 c 0
 224.103515625 511 222.044921875 505 220.987304688 499 c 0
EndSplineSet
EndChar
StartChar: seven.superior
Encoding: 8311 8311 251
Width: 444
VWidth: 950
Flags: MW
LayerCount: 2
Fore
SplineSet
158 690 m 5
 169 755 l 5
 539 755 l 5
 528 693 l 5
 390 598 306 487 284 364 c 5
 188 364 l 5
 209 485 298 594 466 690 c 5
 158 690 l 5
EndSplineSet
EndChar
StartChar: eight.superior
Encoding: 8312 8312 252
Width: 444
VWidth: 950
Flags: MW
LayerCount: 2
Fore
SplineSet
117.815429688 464 m 0
 125.926757812 510 167.15625 551 248.330078125 569 c 1
 208.09375 579 155.501953125 604 165.0234375 658 c 0
 175.07421875 715 237.418945312 768 356.418945312 768 c 1
 357.418945312 768 358.418945312 768 359.418945312 768 c 1
 475.243164062 767 520.25 716 510.0234375 658 c 0
 500.1484375 602 435.09375 579 395.330078125 569 c 1
 457.038085938 556 497.513671875 519 487.815429688 464 c 0
 476.354492188 399 407.421875 337 280.421875 337 c 0
 153.421875 337 106.354492188 399 117.815429688 464 c 0
211.462890625 462 m 1
 207.231445312 438 210.528320312 417 230.412109375 405 c 0
 243.001953125 397 263.120117188 392 290.120117188 392 c 0
 314.120117188 392 335.001953125 397 352.412109375 405 c 0
 379.705078125 418 390.759765625 441 394.815429688 464 c 1
 395.16796875 466 395.754882812 475 396.108398438 477 c 1
 396.634765625 497 392.80859375 515 377.748046875 526 c 0
 364.51171875 536 344.216796875 540 316.216796875 540 c 0
 292.216796875 540 270.51171875 536 253.924804688 527 c 0
 229.631835938 514 219.9296875 493 213.579101562 474 c 1
 213.2265625 472 211.815429688 464 211.462890625 462 c 1
247.317382812 654 m 1
 243.791015625 634 250.146484375 619 264.3828125 609 c 0
 277.795898438 600 298.090820312 596 325.090820312 596 c 0
 353.090820312 596 375.97265625 601 391.3828125 609 c 0
 412.322265625 620 422.143554688 636 425.317382812 654 c 1
 425.846679688 657 427.2578125 665 426.610351562 667 c 1
 426.431640625 683 421.723632812 696 409.133789062 704 c 0
 396.720703125 713 376.426757812 717 348.426757812 717 c 0
 321.426757812 717 298.720703125 713 283.310546875 705 c 0
 262.546875 695 254.90234375 680 250.081054688 664 c 1
 249.905273438 663 247.670898438 656 247.317382812 654 c 1
EndSplineSet
EndChar
StartChar: nine.superior
Encoding: 8313 8313 253
Width: 444
VWidth: 950
Flags: MW
LayerCount: 2
Fore
SplineSet
145.088867188 613 m 0
 152.670898438 656 165.841796875 691 212.836914062 725 c 0
 250.774414062 753 291.418945312 768 358.418945312 768 c 0
 402.418945312 768 441.65625 758 468.600585938 735 c 0
 512.900390625 697 516.91015625 629 504.390625 558 c 0
 492.9296875 493 461.939453125 425 397.356445312 382 c 0
 352.067382812 352 295.421875 337 241.421875 337 c 0
 189.421875 337 159.361328125 348 128.359375 365 c 1
 169.470703125 411 l 1
 189.53125 400 208.944335938 391 251.944335938 391 c 0
 292.944335938 391 330.412109375 405 356.467773438 428 c 0
 373.2890625 444 389.874023438 470 399.221679688 506 c 1
 399.75 509 401.631835938 514 402.161132812 517 c 1
 372.752929688 492 327.344726562 467 264.344726562 467 c 0
 206.344726562 467 182.341796875 484 165.692382812 503 c 0
 138.158203125 534 138.211914062 574 145.088867188 613 c 0
239.6171875 616 m 1
 232.506835938 570 232.861328125 555 248.864257812 538 c 0
 260.748046875 526 279.690429688 520 306.690429688 520 c 0
 332.690429688 520 360.924804688 527 382.098632812 545 c 0
 399.743164062 560 412.446289062 581 417.20703125 608 c 0
 424.083984375 647 427.720703125 713 348.720703125 713 c 0
 326.720703125 713 309.015625 709 294.958007812 703 c 0
 262.489257812 689 253.728515625 662 246.5546875 644 c 1
 242.497070312 638 240.8515625 623 239.6171875 616 c 1
EndSplineSet
EndChar
StartChar: euro
Encoding: 8364 8364 224
Width: 722
Flags: MW
LayerCount: 2
Fore
SplineSet
45.1396484375 256 m 1
 88.8349609375 328 l 1
 164.834960938 328 l 1
 164.834960938 328 165.774414062 339 167.185546875 347 c 24
 168.595703125 355 171.536132812 366 171.536132812 366 c 1
 64.5361328125 366 l 1
 108.231445312 438 l 1
 196.231445312 438 l 1
 248.919921875 561 393.37109375 694 575.37109375 694 c 0
 675.37109375 694 743.317382812 654 792.97265625 601 c 1
 749.27734375 529 l 1
 706.798828125 583 639.6171875 616 561.6171875 616 c 0
 489.6171875 616 357.622070312 582 277.231445312 438 c 1
 692.231445312 438 l 1
 648.536132812 366 l 1
 249.536132812 366 l 1
 249.536132812 366 246.595703125 355 245.185546875 347 c 24
 243.774414062 339 242.834960938 328 242.834960938 328 c 1
 624.834960938 328 l 1
 580.139648438 256 l 1
 245.139648438 256 l 1
 267.44921875 150 349.75390625 78 468.75390625 78 c 0
 612.75390625 78 712.623046875 168 716.623046875 168 c 1
 702.869140625 90 l 1
 634.700195312 38 551 0 453 0 c 0
 280 0 174.864257812 124 164.139648438 256 c 1
 45.1396484375 256 l 1
EndSplineSet
EndChar
StartChar: numero
Encoding: 8470 8470 352
Width: 819
Flags: MW
LayerCount: 2
Fore
SplineSet
95 0 m 1
 217.37109375 694 l 1
 342.37109375 694 l 1
 360.100585938 528 395.1640625 86 395.1640625 86 c 1
 502.37109375 694 l 1
 580.37109375 694 l 1
 458 0 l 1
 333 0 l 1
 318.390625 144 275.282226562 495 280.735351562 611 c 1
 173 0 l 1
 95 0 l 1
565.211914062 160 m 1
 575.615234375 219 l 1
 776.615234375 219 l 1
 766.211914062 160 l 1
 565.211914062 160 l 1
607.70703125 401 m 0
 621.108398438 477 676.921875 544 732.921875 544 c 0
 787.921875 544 822.989257812 482 808.70703125 401 c 0
 795.129882812 324 738.079101562 267 684.079101562 267 c 0
 637.079101562 267 592.719726562 316 607.70703125 401 c 0
670.70703125 401 m 0
 661.185546875 347 675.541015625 332 695.541015625 332 c 0
 717.541015625 332 736.185546875 347 745.001953125 397 c 0
 757.697265625 469 737.989257812 482 722.989257812 482 c 0
 706.989257812 482 682.874023438 470 670.70703125 401 c 0
EndSplineSet
EndChar
StartChar: trademark
Encoding: 8482 8482 221
Width: 667
Flags: MW
LayerCount: 2
Fore
SplineSet
127 716 m 1
 133 748 165 750 176 750 c 2
 415 750 l 2
 436 750 463 742 459 720 c 0
 455 699 433 689 393 689 c 2
 326 689 l 1
 274 391 l 2
 269 361 246 353 228 353 c 0
 187 353 195 387 197 397 c 2
 248 689 l 1
 167 689 l 2
 121 689 129 715 127 716 c 1
419 392 m 10
 479 733 l 2
 484 760 501 772 525 772 c 0
 541 772 555 766 558 751 c 2
 604 587 l 1
 706 751 l 2
 714 765 729 772 746 772 c 0
 776 772 783 758 779 733 c 2
 719 392 l 2
 714 374 705 353 672 353 c 0
 646 353 636 368 641 397 c 2
 670 560 l 5
 623 484 616 463 582 463 c 0
 548 463 548 482 527 560 c 1
 498 398 l 2
 493 367 477 353 451 353 c 0
 425 353 415 367 419 392 c 10
EndSplineSet
EndChar
StartChar: Omega.math
Encoding: 8486 8486 225
Width: 722
Flags: MW
LayerCount: 2
Fore
SplineSet
44 0 m 5
 56.51953125 71 l 5
 230.342773438 70 l 5
 214.380859375 212 111.248046875 319 136.462890625 462 c 4
 160.443359375 598 311.25 716 486.25 716 c 4
 660.25 716 771.620117188 599 747.462890625 462 c 4
 721.895507812 317 581.91015625 215 515.342773438 70 c 5
 689.51953125 71 l 5
 677 0 l 5
 432 0 l 5
 463.975585938 170 628.721679688 299 657.287109375 461 c 4
 677.740234375 577 592.494140625 655 476.494140625 655 c 4
 353.494140625 655 244.859375 572 225.287109375 461 c 4
 196.721679688 299 316.798828125 169 289 0 c 5
 44 0 l 5
EndSplineSet
EndChar
StartChar: mho
Encoding: 8487 8487 410
Width: 722
Flags: MW
LayerCount: 2
Fore
SplineSet
153.8515625 623 m 1
 166.37109375 694 l 1
 411.37109375 694 l 1
 379.395507812 524 213.649414062 395 185.083984375 233 c 0
 164.629882812 117 250.876953125 39 366.876953125 39 c 0
 482.876953125 39 596.629882812 117 617.083984375 233 c 0
 645.649414062 395 526.571289062 525 554.37109375 694 c 1
 799.37109375 694 l 1
 786.8515625 623 l 1
 723.028320312 624 l 1
 613.028320312 624 l 1
 628.341796875 484 732.123046875 375 706.908203125 232 c 0
 682.750976562 95 530.12109375 -22 356.12109375 -22 c 0
 196.12109375 -22 69.634765625 83 95.908203125 232 c 0
 121.475585938 377 260.4609375 479 328.028320312 624 c 1
 218.028320312 624 l 1
 153.8515625 623 l 1
EndSplineSet
EndChar
StartChar: estimated
Encoding: 8494 8494 400
Width: 669
Flags: MW
LayerCount: 2
Fore
SplineSet
88.890625 351 m 0
 122.040039062 539 286.192382812 710 474.192382812 710 c 0
 591.192382812 710 754.7890625 651 703.654296875 361 c 1
 175.654296875 361 l 1
 174.419921875 354 l 2
 143.385742188 178 235.81640625 50 373.81640625 50 c 0
 501.81640625 50 601.693359375 89 647.690429688 106 c 1
 642.052734375 40 l 1
 567.46875 14 471.060546875 -11 364.060546875 -11 c 0
 161.060546875 -11 55.7412109375 163 88.890625 351 c 0
191.528320312 417 m 1
 634.528320312 417 l 1
 645.508789062 553 590.436523438 649 462.436523438 649 c 0
 350.436523438 649 235.451171875 547 191.528320312 417 c 1
EndSplineSet
EndChar
StartChar: onethird
Encoding: 8531 8531 245
Width: 444
Flags: MW
LayerCount: 2
Fore
SplineSet
12 -164 m 1
 32 -103 l 1
 62 -112 95 -121 133 -126 c 0
 152 -128 171 -130 193 -130 c 0xe8
 232 -130 258 -120 274 -108 c 4
 291 -95 298 -79 300 -68 c 0xe8
 304 -46 290 -29 277 -21 c 0
 257 -8 232 -7 206 -7 c 2
 165 -7 l 1
 176 55 l 1
 218 59 253 58 287 84 c 0
 300 95 310 109 313 125 c 0
 316 143 307 171 249 171 c 0
 190 171 147 146 109 119 c 1
 86 175 l 1
 137 208 195 230 260 230 c 0
 346 230 406 184 396 125 c 4xf0
 384 55 310 26 307 23 c 1
 339 13 399 -15 389 -69 c 0
 384 -100 355 -138 308 -163 c 0
 276 -180 234 -192 184 -192 c 0
 164 -192 145 -191 124 -189 c 0
 90 -185 53 -177 12 -164 c 1
57 280 m 1
 60 286 64 290 68 293 c 0
 75 298 82 298 88 298 c 2
 101 298 l 1
 457 298 l 2
 466 298 473 298 477 295 c 0
 481 293 483 289 484 283 c 1
 484 281 483 280 483 278 c 0
 482 272 480 267 474 263 c 0
 469 260 462 258 452 258 c 2
 81 258 l 2
 70 258 63 260 60 263 c 0
 54 268 57 277 57 280 c 1
187 672 m 1
 198 731 l 1
 252 731 320 733 388 772 c 1
 408 772 l 1
 342 396 l 1
 444 396 l 1
 434 338 l 1
 142 338 l 1
 152 396 l 1
 262 396 l 1
 313 686 l 1xfc
 275 676 242 673 187 672 c 1
EndSplineSet
EndChar
StartChar: twothirds
Encoding: 8532 8532 246
Width: 444
Flags: MW
LayerCount: 2
Fore
SplineSet
12.08203125 -164 m 1
 31.837890625 -103 l 1
 62.2509765625 -112 94.6640625 -121 132.783203125 -126 c 0
 151.4296875 -128 171.077148438 -130 193.077148438 -130 c 0xe8
 232.077148438 -130 257.840820312 -120 273.95703125 -108 c 4
 291.249023438 -95 298.0703125 -79 300.009765625 -68 c 0xe8
 303.888671875 -46 289.88671875 -29 277.296875 -21 c 0
 257.58984375 -8 231.765625 -7 205.765625 -7 c 2
 164.765625 -7 l 1
 175.698242188 55 l 1
 217.403320312 59 253.2265625 58 286.811523438 84 c 0
 299.750976562 95 310.219726562 109 313.041015625 125 c 0
 316.21484375 143 307.15234375 171 249.15234375 171 c 0
 190.15234375 171 146.744140625 146 108.983398438 119 c 1
 85.857421875 175 l 1
 136.67578125 208 194.555664062 230 259.555664062 230 c 0
 345.555664062 230 406.444335938 184 396.041015625 125 c 0xf0
 383.698242188 55 309.584960938 26 307.055664062 23 c 1
 339.291992188 13 398.35546875 -15 388.833007812 -69 c 0
 383.3671875 -100 355.666992188 -138 308.258789062 -163 c 0
 276.260742188 -180 234.145507812 -192 184.145507812 -192 c 0
 164.145507812 -192 144.321289062 -191 123.673828125 -189 c 0
 89.3798828125 -185 52.7900390625 -177 12.08203125 -164 c 1
162.3125 688 m 1
 218.892578125 748 270.477539062 774 343.477539062 774 c 0
 453.477539062 774 517.83984375 708 501.793945312 617 c 0
 486.982421875 533 394.161132812 517 316.63671875 480 c 0
 303.754882812 475 291.344726562 467 188.646484375 412 c 1
 337.646484375 412 l 1
 362.823242188 413 l 1
 465.823242188 413 l 1
 452.598632812 338 l 1
 108.598632812 338 l 1
 121.646484375 412 l 1
 220.521484375 468 233.931640625 476 245.989257812 482 c 0
 312.80859375 515 405.040039062 539 418.44140625 615 c 0
 427.962890625 669 386.487304688 706 318.487304688 706 c 0
 246.487304688 706 214.728515625 662 190.380859375 626 c 1
 162.3125 688 l 1
57.37109375 280 m 1
 60.4296875 286 64.134765625 290 67.6640625 293 c 0
 74.5458984375 298 81.5458984375 298 87.5458984375 298 c 2
 100.545898438 298 l 1
 456.545898438 298 l 2
 465.545898438 298 472.545898438 298 477.016601562 295 c 0
 480.6640625 293 482.958984375 289 483.900390625 283 c 1
 483.547851562 281 483.37109375 280 483.018554688 278 c 0
 481.9609375 272 480.079101562 267 474.374023438 263 c 0
 469.844726562 260 462.4921875 258 452.4921875 258 c 2
 81.4921875 258 l 2
 70.4921875 258 63.8447265625 260 60.3740234375 263 c 0
 54.255859375 268 57.8427734375 277 57.37109375 280 c 1
EndSplineSet
EndChar
StartChar: onefifth
Encoding: 8533 8533 288
Width: 444
Flags: MW
LayerCount: 2
Fore
SplineSet
7.724609375 -132 m 1
 53.01171875 -85 l 1
 56.130859375 -90 59.4248046875 -94 63.7197265625 -98 c 0
 75.6044921875 -110 92.0166015625 -119 107.958984375 -125 c 0
 131.548828125 -133 157.01953125 -136 175.01953125 -136 c 0
 206.01953125 -136 234.25390625 -129 255.075195312 -113 c 0
 273.543945312 -99 284.24609375 -78 289.006835938 -51 c 1
 289.536132812 -48 291.299804688 -38 291.828125 -35 c 1
 293.883789062 -12 290.41015625 8 278.526367188 20 c 0
 268.290039062 30 252.171875 35 234.171875 35 c 0
 170.171875 35 138.413085938 -9 138.413085938 -9 c 1
 66.4130859375 -9 l 1
 107.849609375 226 l 1
 408.849609375 226 l 1
 398.975585938 170 l 1
 183.975585938 170 l 1
 166.6953125 72 l 1
 190.282226562 81 211.516601562 88 246.516601562 88 c 0
 291.516601562 88 329.75390625 78 356.403320312 59 c 0
 385.700195312 38 398.118164062 -5 389.831054688 -52 c 0
 381.896484375 -97 354.901367188 -131 316.845703125 -154 c 0
 275.260742188 -180 221.145507812 -192 167.145507812 -192 c 0
 132.145507812 -192 101.026367188 -187 75.7900390625 -177 c 0
 40.90625 -165 19.255859375 -146 7.724609375 -132 c 1
57.37109375 280 m 1
 60.4296875 286 64.134765625 290 67.6640625 293 c 0
 74.5458984375 298 81.5458984375 298 87.5458984375 298 c 2
 100.545898438 298 l 1
 456.545898438 298 l 2
 465.545898438 298 472.545898438 298 477.016601562 295 c 0
 480.6640625 293 482.958984375 289 483.900390625 283 c 1
 483.547851562 281 483.37109375 280 483.018554688 278 c 0
 481.9609375 272 480.079101562 267 474.374023438 263 c 0
 469.844726562 260 462.4921875 258 452.4921875 258 c 2
 81.4921875 258 l 2
 70.4921875 258 63.8447265625 260 60.3740234375 263 c 0
 54.255859375 268 57.8427734375 277 57.37109375 280 c 1
187.4921875 672 m 1
 197.895507812 731 l 1
 251.895507812 731 320.248046875 733 388.124023438 772 c 1
 408.124023438 772 l 1
 341.825195312 396 l 1
 443.825195312 396 l 1
 433.598632812 338 l 1
 141.598632812 338 l 1
 151.825195312 396 l 1
 261.825195312 396 l 1
 312.959960938 686 l 1xfc
 275.197265625 676 242.66796875 673 187.4921875 672 c 1
EndSplineSet
EndChar
StartChar: oneeighth
Encoding: 8539 8539 241
Width: 444
Flags: MW
LayerCount: 2
Fore
SplineSet
26 -55 m 4
 34 -11 75 28 156 45 c 5
 116 55 63 79 72 130 c 4
 82 184 143 234 262 234 c 5
 263 234 264 234 265 234 c 5
 381 233 427 185 417 130 c 4
 408 77 343 55 303 45 c 5
 365 33 405 -3 396 -55 c 4
 385 -117 317 -175 190 -175 c 4
 63 -175 15 -117 26 -55 c 4
120 -57 m 5
 116 -80 119 -100 139 -111 c 4
 152 -119 172 -123 199 -123 c 4
 223 -123 244 -119 261 -111 c 4
 288 -99 299 -77 303 -55 c 5
 303 -53 305 -44 305 -42 c 5
 305 -23 301 -6 286 4 c 4
 273 14 252 17 224 17 c 4
 200 17 179 14 162 5 c 4
 138 -7 128 -27 122 -45 c 5
 122 -47 120 -55 120 -57 c 5
154 126 m 5
 151 107 158 93 172 83 c 4
 185 74 205 71 232 71 c 4
 260 71 284 75 299 83 c 4
 320 93 329 109 332 126 c 5
 333 129 334 136 333 138 c 5
 333 153 329 165 316 173 c 4
 304 182 283 186 255 186 c 4
 228 186 205 182 190 174 c 4
 169 164 162 150 157 135 c 5
 157 134 154 128 154 126 c 5
57 280 m 1
 60 286 64 290 68 293 c 0
 75 298 82 298 88 298 c 2
 101 298 l 1
 457 298 l 2
 466 298 473 298 477 295 c 0
 481 293 483 289 484 283 c 1
 484 281 483 280 483 278 c 0
 482 272 480 267 474 263 c 0
 469 260 462 258 452 258 c 2
 81 258 l 2
 70 258 63 260 60 263 c 0
 54 268 57 277 57 280 c 1
187 672 m 1
 198 731 l 1
 252 731 320 733 388 772 c 1
 408 772 l 1
 342 396 l 1
 444 396 l 1
 434 338 l 1
 142 338 l 1
 152 396 l 1
 262 396 l 1
 313 686 l 1xfc
 275 676 242 673 187 672 c 1
EndSplineSet
EndChar
StartChar: threeeighths
Encoding: 8540 8540 242
Width: 444
Flags: MW
LayerCount: 2
Fore
SplineSet
23.6572265625 -70 m 0
 31.7685546875 -24 72.998046875 17 154.171875 35 c 1
 113.934570312 45 61.3427734375 70 70.8642578125 124 c 0
 80.9150390625 181 143.260742188 234 262.260742188 234 c 1
 263.260742188 234 264.260742188 234 265.260742188 234 c 1
 381.083984375 233 426.091796875 182 415.864257812 124 c 0
 405.990234375 68 340.934570312 45 301.171875 35 c 1
 362.87890625 22 403.35546875 -15 393.657226562 -70 c 0
 382.196289062 -135 313.263671875 -197 186.263671875 -197 c 0
 59.263671875 -197 12.1962890625 -135 23.6572265625 -70 c 0
117.3046875 -72 m 1
 113.072265625 -96 116.370117188 -117 136.25390625 -129 c 0
 148.842773438 -137 168.961914062 -142 195.961914062 -142 c 0
 219.961914062 -142 240.842773438 -137 258.25390625 -129 c 0
 285.545898438 -116 296.6015625 -93 300.657226562 -70 c 1
 301.009765625 -68 301.596679688 -59 301.94921875 -57 c 1
 302.475585938 -37 298.649414062 -19 283.58984375 -8 c 0
 270.352539062 2 250.057617188 6 222.057617188 6 c 0
 198.057617188 6 176.352539062 2 159.765625 -7 c 0
 135.473632812 -20 125.770507812 -41 119.419921875 -60 c 1
 119.067382812 -62 117.657226562 -70 117.3046875 -72 c 1
153.159179688 120 m 1
 149.6328125 100 155.98828125 85 170.224609375 75 c 0
 183.637695312 66 203.932617188 62 230.932617188 62 c 0
 258.932617188 62 281.813476562 67 297.224609375 75 c 0
 318.1640625 86 327.985351562 102 331.159179688 120 c 1
 331.688476562 123 333.098632812 131 332.451171875 133 c 1
 332.272460938 149 327.565429688 162 314.975585938 170 c 0
 302.5625 179 282.267578125 183 254.267578125 183 c 0
 227.267578125 183 204.5625 179 189.15234375 171 c 0
 168.388671875 161 160.744140625 146 155.922851562 130 c 1
 155.74609375 129 153.51171875 122 153.159179688 120 c 1
101.833007812 345 m 1
 122.646484375 412 l 1
 152.883789062 402 184.944335938 391 223.0625 386 c 0
 241.533203125 383 261.356445312 382 283.356445312 382 c 0xe8
 322.356445312 382 348.120117188 392 364.588867188 406 c 0
 382.057617188 420 389.0546875 437 391.170898438 449 c 0xe8
 395.40234375 473 381.576171875 491 369.163085938 500 c 0
 349.631835938 514 323.80859375 515 297.80859375 515 c 2
 256.80859375 515 l 1
 268.798828125 583 l 1
 310.50390625 587 346.327148438 586 380.264648438 614 c 0
 393.380859375 626 404.025390625 641 407.0234375 658 c 0
 410.373046875 677 401.83984375 708 343.83984375 708 c 0
 284.83984375 708 241.079101562 681 202.96484375 652 c 1
 180.544921875 712 l 1
 231.892578125 748 290.124023438 772 355.124023438 772 c 0
 441.124023438 772 501.307617188 722 490.0234375 658 c 0xf0
 476.622070312 582 402.15625 551 399.626953125 548 c 1
 431.6875 537 490.221679688 506 479.994140625 448 c 0
 473.999023438 414 445.946289062 374 398.185546875 347 c 0
 365.834960938 328 323.54296875 315 273.54296875 315 c 0
 253.54296875 315 233.895507812 317 213.248046875 319 c 0
 178.954101562 323 142.364257812 331 101.833007812 345 c 1
57.37109375 280 m 1
 60.4296875 286 64.134765625 290 67.6640625 293 c 0
 74.5458984375 298 81.5458984375 298 87.5458984375 298 c 2
 100.545898438 298 l 1
 456.545898438 298 l 2
 465.545898438 298 472.545898438 298 477.016601562 295 c 0
 480.6640625 293 482.958984375 289 483.900390625 283 c 1
 483.547851562 281 483.37109375 280 483.018554688 278 c 0
 481.9609375 272 480.079101562 267 474.374023438 263 c 0
 469.844726562 260 462.4921875 258 452.4921875 258 c 2
 81.4921875 258 l 2
 70.4921875 258 63.8447265625 260 60.3740234375 263 c 0
 54.255859375 268 57.8427734375 277 57.37109375 280 c 1
EndSplineSet
EndChar
StartChar: fiveeighths
Encoding: 8541 8541 243
Width: 444
Flags: MW
LayerCount: 2
Fore
SplineSet
98 379 m 5
 144 428 l 5
 147 423 150 419 154 415 c 4
 166 402 182 392 198 386 c 4
 222 378 247 375 265 375 c 4
 296 375 324 382 345 399 c 4
 364 414 375 436 380 464 c 5
 381 467 382 478 383 481 c 5
 385 505 382 526 370 539 c 4
 360 549 344 554 326 554 c 4
 262 554 230 508 230 508 c 5
 158 508 l 5
 201 755 l 5
 502 755 l 5
 492 696 l 5
 277 696 l 5
 259 593 l 5
 283 602 304 610 339 610 c 4
 384 610 422 600 448 580 c 4
 477 558 490 512 481 463 c 4
 473 416 445 380 407 356 c 4
 365 329 311 316 257 316 c 4
 222 316 191 322 166 332 c 4
 131 345 109 364 98 379 c 5
57 280 m 1
 60 286 64 290 68 293 c 0
 75 298 82 298 88 298 c 2
 101 298 l 1
 457 298 l 2
 466 298 473 298 477 295 c 0
 481 293 483 289 484 283 c 1
 484 281 483 280 483 278 c 0
 482 272 480 267 474 263 c 0
 469 260 462 258 452 258 c 2
 81 258 l 2
 70 258 63 260 60 263 c 0
 54 268 57 277 57 280 c 1
26 -55 m 0
 34 -11 75 28 156 45 c 1
 116 55 63 79 72 130 c 0
 82 184 143 234 262 234 c 1
 263 234 264 234 265 234 c 1
 381 233 427 185 417 130 c 0
 408 77 343 55 303 45 c 1
 365 33 405 -3 396 -55 c 0
 385 -117 317 -175 190 -175 c 0
 63 -175 15 -117 26 -55 c 0
120 -57 m 1
 116 -80 119 -100 139 -111 c 0
 152 -119 172 -123 199 -123 c 0
 223 -123 244 -119 261 -111 c 0
 288 -99 299 -77 303 -55 c 1
 303 -53 305 -44 305 -42 c 1
 305 -23 301 -6 286 4 c 0
 273 14 252 17 224 17 c 0
 200 17 179 14 162 5 c 0
 138 -7 128 -27 122 -45 c 1
 122 -47 120 -55 120 -57 c 1
154 126 m 1
 151 107 158 93 172 83 c 0
 185 74 205 71 232 71 c 0
 260 71 284 75 299 83 c 0
 320 93 329 109 332 126 c 1
 333 129 334 136 333 138 c 1
 333 153 329 165 316 173 c 0
 304 182 283 186 255 186 c 0
 228 186 205 182 190 174 c 0
 169 164 162 150 157 135 c 1
 157 134 154 128 154 126 c 1
EndSplineSet
EndChar
StartChar: seveneighths
Encoding: 8542 8542 244
Width: 444
Flags: MW
LayerCount: 2
Fore
SplineSet
157 684 m 1
 169 755 l 1
 539 755 l 1
 527 687 l 1
 387 582 301 457 277 322 c 1
 181 322 l 1
 205 455 295 578 465 684 c 1
 157 684 l 1
57 280 m 1
 60 286 64 290 68 293 c 0
 75 298 82 298 88 298 c 2
 101 298 l 1
 457 298 l 2
 466 298 473 298 477 295 c 0
 481 293 483 289 484 283 c 1
 484 281 483 280 483 278 c 0
 482 272 480 267 474 263 c 0
 469 260 462 258 452 258 c 2
 81 258 l 2
 70 258 63 260 60 263 c 0
 54 268 57 277 57 280 c 1
26 -55 m 0
 34 -11 75 28 156 45 c 1
 116 55 63 79 72 130 c 0
 82 184 143 234 262 234 c 1
 263 234 264 234 265 234 c 1
 381 233 427 185 417 130 c 0
 408 77 343 55 303 45 c 1
 365 33 405 -3 396 -55 c 0
 385 -117 317 -175 190 -175 c 0
 63 -175 15 -117 26 -55 c 0
120 -57 m 1
 116 -80 119 -100 139 -111 c 0
 152 -119 172 -123 199 -123 c 0
 223 -123 244 -119 261 -111 c 0
 288 -99 299 -77 303 -55 c 1
 303 -53 305 -44 305 -42 c 1
 305 -23 301 -6 286 4 c 0
 273 14 252 17 224 17 c 0
 200 17 179 14 162 5 c 0
 138 -7 128 -27 122 -45 c 1
 122 -47 120 -55 120 -57 c 1
154 126 m 1
 151 107 158 93 172 83 c 0
 185 74 205 71 232 71 c 0
 260 71 284 75 299 83 c 0
 320 93 329 109 332 126 c 1
 333 129 334 136 333 138 c 1
 333 153 329 165 316 173 c 0
 304 182 283 186 255 186 c 0
 228 186 205 182 190 174 c 0
 169 164 162 150 157 135 c 1
 157 134 154 128 154 126 c 1
EndSplineSet
EndChar
StartChar: Delta.math
Encoding: 8710 8710 397
Width: 833
Flags: MW
LayerCount: 2
Fore
SplineSet
41 0 m 5
 492.37109375 694 l 5
 583.37109375 694 l 5
 790 0 l 5
 41 0 l 5
172.811523438 84 m 5
 665.811523438 84 l 6
 665.811523438 84 528.974609375 584 515.028320312 624 c 5
 172.811523438 84 l 5
EndSplineSet
EndChar
StartChar: product
Encoding: 8719 8719 401
Width: 708
Flags: MW
LayerCount: 2
Fore
SplineSet
59 -198 m 1
 216 691 l 1
 736 691 l 1
 579 -198 l 1
 489 -198 l 1
 635 630 l 1
 295 630 l 1
 149 -198 l 1
 59 -198 l 1
EndSplineSet
EndChar
StartChar: lessequal
Encoding: 8804 8804 398
Width: 778
Flags: MW
LayerCount: 2
Fore
SplineSet
135.8984375 300 m 1
 141.719726562 316 144.600585938 321 176.24609375 336 c 2
 740.33203125 552 l 2
 746.861328125 555 754.390625 558 761.390625 558 c 0
 779.390625 558 788.745117188 543 786.100585938 528 c 0
 782.221679688 506 761.634765625 497 745.576171875 491 c 2
 234.8984375 300 l 1
 252.311523438 291 276.547851562 281 292.490234375 275 c 2
 678.219726562 109 l 2
 690.985351562 102 709.575195312 94 705.6953125 72 c 0
 702.874023438 56 687.405273438 42 670.405273438 42 c 0
 659.405273438 42 645.168945312 52 634.2265625 58 c 2
 163.55078125 264 l 2
 126.37109375 280 137.487304688 292 135.8984375 300 c 1
47.888671875 -46 m 0
 49.2998046875 -38 54.4150390625 -26 66.4736328125 -20 c 0
 72.001953125 -17 79.35546875 -15 89.35546875 -15 c 0
 92.35546875 -15 96.1787109375 -16 99.1787109375 -16 c 2
 680.178710938 -16 l 2
 691.178710938 -16 698.649414062 -19 704.12109375 -22 c 0
 713.88671875 -29 714.123046875 -39 712.888671875 -46 c 0
 711.654296875 -53 708.067382812 -62 697.833007812 -69 c 0
 690.952148438 -74 680.422851562 -77 666.422851562 -77 c 2
 81.4228515625 -77 l 2
 69.4228515625 -77 60.9521484375 -74 55.6572265625 -70 c 0
 46.8916015625 -63 46.654296875 -53 47.888671875 -46 c 0
EndSplineSet
EndChar
StartChar: greaterequal
Encoding: 8805 8805 399
Width: 778
Flags: MW
LayerCount: 2
Fore
SplineSet
96 72 m 0
 100 94 122 102 137 109 c 2
 648 300 l 1
 633 309 610 315 591 326 c 2
 205 491 l 2
 191 497 172 506 176 528 c 0
 179 543 194 558 212 558 c 0
 223 558 238 547 249 542 c 2
 719 336 l 2
 754 316 745 308 746 300 c 1
 741 284 739 276 707 264 c 2
 144 49 l 2
 136 45 128 42 121 42 c 0
 103 42 93 57 96 72 c 0
48 -46 m 0
 49 -38 54 -26 66 -20 c 0
 72 -17 79 -15 89 -15 c 0
 92 -15 96 -16 99 -16 c 2
 680 -16 l 2
 691 -16 699 -19 704 -22 c 0
 714 -29 714 -39 713 -46 c 0
 712 -53 708 -62 698 -69 c 0
 691 -74 680 -77 666 -77 c 2
 81 -77 l 2
 69 -77 61 -74 56 -70 c 0
 47 -63 47 -53 48 -46 c 0
EndSplineSet
EndChar
StartChar: lozenge
Encoding: 9674 9674 402
Width: 623
Flags: MW
LayerCount: 2
Fore
SplineSet
155.08203125 250 m 0
 155.963867188 255 158.844726562 260 160.7265625 265 c 2
 415.661132812 724 l 1
 429.1875 744 436.069335938 749 444.069335938 749 c 3
 456.069335938 749 459.423828125 734 463.544921875 712 c 2
 554.7265625 265 l 2
 555.844726562 260 556.963867188 255 556.08203125 250 c 0
 555.200195312 245 552.318359375 240 549.436523438 235 c 2
 294.678710938 -223 l 2
 288.739257812 -234 279.094726562 -249 266.094726562 -249 c 7
 253.094726562 -249 250.091796875 -232 248.502929688 -224 c 2
 155.436523438 235 l 2
 154.318359375 240 154.200195312 245 155.08203125 250 c 0
281.024414062 -170 m 1
 513.08203125 250 l 1
 429.315429688 671 l 1
 196.2578125 251 l 1
 281.024414062 -170 l 1
EndSplineSet
EndChar
StartChar: dblhyphenkana
Encoding: 12448 12448 414
Width: 500
Flags: W
LayerCount: 2
Fore
SplineSet
77 153 m 1
 88 217 l 1
 488 217 l 1
 477 153 l 1
 77 153 l 1
118 383 m 1
 129 447 l 1
 529 447 l 1
 518 383 l 1
 118 383 l 1
EndSplineSet
Colour: ff
EndChar
StartChar: zero.slash
Encoding: 63032 63032 223
Width: 500
Flags: MW
LayerCount: 2
Fore
SplineSet
96 310 m 2
 99 329 l 2
 116 427 156 615 303 666 c 0
 322 673 344 678 369 678 c 0
 421 678 467 655 494 616 c 0
 542 548 532 433 521 360 c 0
 519 347 517 335 515 325 c 0
 479 122 411 24 310 -11 c 0
 292 -18 271 -22 245 -22 c 0
 162 -22 47 26 96 310 c 2
173 308 m 2
 157 220 158 160 168 120 c 1
 422 591 l 1
 403 611 379 616 358 616 c 0
 306 616 222 583 184 370 c 2
 173 308 l 2
186 76 m 1
 193 66 202 58 210 52 c 0
 225 42 242 39 257 39 c 0
 277 39 303 45 329 66 c 0
 369 99 409 168 434 309 c 2
 445 370 l 2
 461 460 458 517 445 554 c 1
 186 76 l 1
EndSplineSet
EndChar
StartChar: f_f
Encoding: 64256 64256 228
Width: 583
Flags: MW
LayerCount: 2
Fore
SplineSet
378 0 m 1
 473.569335938 542 l 2
 496.844726562 674 594.248046875 733 673.248046875 733 c 0
 697.248046875 733 721.71875 730 751.307617188 722 c 1
 739.494140625 655 l 1
 719.081054688 664 694.4921875 672 662.4921875 672 c 0
 625.4921875 672 566.317382812 654 553.446289062 581 c 2
 529.465820312 445 l 1
 642.465820312 445 l 1
 632.0625 386 l 1
 522.0625 386 l 1
 454 0 l 1
 378 0 l 1
EndSplineSet
Refer: 70 102 S 1 0 0 1 0 0 2
EndChar
StartChar: f_i
Encoding: 64257 64257 111
Width: 536
Flags: MW
LayerCount: 2
Fore
SplineSet
95 386 m 1
 105 445 l 1
 179 445 l 1
 197 544 l 2xc4
 222 686 310 733 364 733 c 0
 393 733 410 725 421 722 c 1
 409 654 l 1
 393 663 378 672 353 672 c 0
 329 672 288 656 275 581 c 2
 251 445 l 1xac
 372 445 l 1
 362 386 l 1
 244 386 l 1
 176 0 l 1
 101 0 l 1
 169 386 l 1
 95 386 l 1
487 639 m 1
 501 723 l 1
 585 723 l 1
 571 639 l 1
 487 639 l 1
EndSplineSet
Refer: 137 305 N 1 0 0 1 297 0 2
EndChar
StartChar: f_l
Encoding: 64258 64258 112
Width: 536
Flags: MW
LayerCount: 2
Fore
SplineSet
95.0625 386 m 1
 105.465820312 445 l 1
 179.465820312 445 l 1
 196.921875 544 l 2xec
 221.959960938 686 310.248046875 733 364.248046875 733 c 0xec
 393.248046875 733 409.836914062 725 421.307617188 722 c 1xdc
 409.494140625 655 l 1
 394.905273438 663 377.4921875 672 353.4921875 672 c 0
 329.4921875 672 288.846679688 657 275.446289062 581 c 2
 251.465820312 445 l 1
 372.465820312 445 l 1
 362.0625 386 l 1
 244.0625 386 l 1
 176 0 l 1
 101 0 l 1
 169.0625 386 l 1
 95.0625 386 l 1
EndSplineSet
Refer: 76 108 N 1 0 0 1 297 0 2
EndChar
StartChar: f_f_i
Encoding: 64259 64259 229
Width: 814
Flags: MW
LayerCount: 2
Fore
SplineSet
95 386 m 1
 105 445 l 1
 179 445 l 1
 197 542 l 2
 220 670 302 733 380 733 c 0
 407 733 427 728 446 722 c 1
 434 655 l 1
 416 663 396 672 368 672 c 0
 338 672 288 656 275 581 c 2
 251 445 l 1xae
 372 445 l 1
 362 386 l 1
 244 386 l 1
 176 0 l 1
 101 0 l 1
 169 386 l 1
 95 386 l 1
378 0 m 1
 473 539 l 2xc6
 499 688 587 733 641 733 c 0xce
 659 733 677 730 699 723 c 1x96
 687 654 l 1
 673 663 654 672 631 672 c 0
 606 672 566 656 553 581 c 2
 529 445 l 1xae
 650 445 l 1
 640 386 l 1
 522 386 l 1
 454 0 l 1
 378 0 l 1
765 639 m 1
 779 723 l 1
 863 723 l 1
 849 639 l 1
 765 639 l 1
EndSplineSet
Refer: 137 305 N 1 0 0 1 575 0 2
EndChar
StartChar: f_f_l
Encoding: 64260 64260 230
Width: 814
Flags: MW
LayerCount: 2
Fore
SplineSet
95.0625 386 m 1
 105.465820312 445 l 1
 179.465820312 445 l 1
 196.569335938 542 l 2
 219.138671875 670 302.248046875 733 380.248046875 733 c 0xee
 407.248046875 733 427.366210938 728 446.307617188 722 c 1xde
 434.494140625 655 l 1
 416.905273438 663 396.4921875 672 368.4921875 672 c 0
 338.4921875 672 288.670898438 656 275.446289062 581 c 2
 251.465820312 445 l 1
 372.465820312 445 l 1
 362.0625 386 l 1
 244.0625 386 l 1
 176 0 l 1
 101 0 l 1
 169.0625 386 l 1
 95.0625 386 l 1
378 0 m 1
 473.040039062 539 l 2xee
 499.489257812 689 588.248046875 733 642.248046875 733 c 0xee
 671.248046875 733 687.836914062 725 699.307617188 722 c 1xde
 687.494140625 655 l 1
 672.905273438 663 654.4921875 672 631.4921875 672 c 0
 607.4921875 672 566.846679688 657 553.446289062 581 c 2
 529.465820312 445 l 1
 650.465820312 445 l 1
 640.0625 386 l 1
 522.0625 386 l 1
 454 0 l 1
 378 0 l 1
EndSplineSet
Refer: 76 108 N 1 0 0 1 575 0 2
EndChar
StartChar: Ering
Encoding: 65536 -1 266
Width: 597
Flags: MW
LayerCount: 2
Fore
SplineSet
349.005859375 777 m 4
 360.467773438 842 422.578125 888 479.578125 888 c 4
 543.578125 888 581.409179688 836 571.005859375 777 c 4
 560.955078125 720 506.43359375 666 440.43359375 666 c 4
 375.43359375 666 338.779296875 719 349.005859375 777 c 4
405.005859375 777 m 4
 402.713867188 764 404.069335938 749 413.305664062 739 c 4
 420.071289062 732 430.366210938 728 447.189453125 727 c 4
 448.189453125 727 450.189453125 727 451.189453125 727 c 4
 472.189453125 727 487.248046875 733 496.834960938 742 c 4
 507.59765625 752 512.890625 765 515.005859375 777 c 4
 517.122070312 789 516.590820312 803 508.353515625 813 c 4
 501.764648438 821 489.822265625 827 469.822265625 827 c 4xdf
 468.822265625 827 466.822265625 827 465.822265625 827 c 4
 444.646484375 826 430.412109375 819 420.6484375 809 c 4
 412.061523438 800 406.9453125 788 405.005859375 777 c 4
EndSplineSet
Refer: 37 69 N 1 0 0 1 0 0 2
EndChar
StartChar: Iring
Encoding: 65537 -1 269
Width: 278
Flags: MW
LayerCount: 2
Fore
SplineSet
168.005859375 777 m 4
 179.467773438 842 241.578125 888 298.578125 888 c 4
 362.578125 888 400.409179688 836 390.005859375 777 c 4
 379.955078125 720 325.43359375 666 259.43359375 666 c 4
 194.43359375 666 157.779296875 719 168.005859375 777 c 4
224.005859375 777 m 4
 221.713867188 764 223.069335938 749 232.305664062 739 c 4
 239.071289062 732 249.366210938 728 266.189453125 727 c 4
 267.189453125 727 269.189453125 727 270.189453125 727 c 4
 291.189453125 727 306.248046875 733 315.834960938 742 c 4
 326.59765625 752 331.890625 765 334.005859375 777 c 4
 336.122070312 789 335.590820312 803 327.353515625 813 c 4
 320.764648438 821 308.822265625 827 288.822265625 827 c 4xdf
 287.822265625 827 285.822265625 827 284.822265625 827 c 4
 263.646484375 826 249.412109375 819 239.6484375 809 c 4
 231.061523438 800 225.9453125 788 224.005859375 777 c 4
EndSplineSet
Refer: 41 73 N 1 0 0 1 0 0 2
EndChar
StartChar: Lcaron.alt
Encoding: 65542 -1 372
Width: 542
Flags: MW
LayerCount: 2
Fore
SplineSet
318 889 m 1
 379 889 l 1
 457 778 l 1
 573 889 l 1
 635 889 l 1xf4
 483 727 l 1
 412 727 l 1
 318 889 l 1
EndSplineSet
Refer: 44 76 N 1 0 0 1 0 0 2
EndChar
StartChar: Oring
Encoding: 65538 -1 272
Width: 736
Flags: MW
LayerCount: 2
Fore
SplineSet
394.005859375 777 m 0
 405.467773438 842 467.578125 888 524.578125 888 c 0
 588.578125 888 626.409179688 836 616.005859375 777 c 0
 605.955078125 720 551.43359375 666 485.43359375 666 c 0
 420.43359375 666 383.779296875 719 394.005859375 777 c 0
450.005859375 777 m 0
 447.713867188 764 449.069335938 749 458.305664062 739 c 0
 465.071289062 732 475.366210938 728 492.189453125 727 c 0
 493.189453125 727 495.189453125 727 496.189453125 727 c 0
 517.189453125 727 532.248046875 733 541.834960938 742 c 0
 552.59765625 752 557.890625 765 560.005859375 777 c 0
 562.122070312 789 561.590820312 803 553.353515625 813 c 0
 546.764648438 821 534.822265625 827 514.822265625 827 c 0xdf
 513.822265625 827 511.822265625 827 510.822265625 827 c 0
 489.646484375 826 475.412109375 819 465.6484375 809 c 0
 457.061523438 800 451.9453125 788 450.005859375 777 c 0
EndSplineSet
Refer: 47 79 N 1 0 0 1 0 0 2
EndChar
StartChar: lcaron.alt
Encoding: 65543 -1 390
Width: 239
Flags: MW
LayerCount: 2
Fore
SplineSet
81 0 m 1
 208 722 l 1
 283 722 l 1
 156 0 l 1
 81 0 l 1
108 854 m 1
 170 854 l 1
 258 786 l 1
 369 854 l 1
 404 854 l 1
 430 853 l 1
 284 760 288 760 271 760 c 2
 235 760 l 2
 215 760 193 783 108 854 c 1
EndSplineSet
EndChar
StartChar: ordfeminine.alt
Encoding: 65545 -1 412
Width: 444
Flags: MW
LayerCount: 2
Fore
SplineSet
79 304 m 0
 81 313 87 328 106 333 c 0
 111 335 117 335 124 335 c 2
 437 335 l 2
 459 335 477 329 473 304 c 0
 471 293 461 274 428 274 c 2
 123 274 l 2
 119 274 115 273 111 273 c 0
 78 273 78 296 79 304 c 0
126 465 m 0
 131 495 158 515 192 528 c 0
 254 552 342 554 364 554 c 1
 370 590 l 2
 380 646 378 707 327 707 c 0
 266 707 222 673 199 656 c 1
 205 724 l 1
 250 752 290 766 341 766 c 0
 396 766 474 728 449 588 c 2
 411 375 l 1
 335 375 l 1
 341 408 l 1
 326 399 273 364 194 364 c 0
 125 364 121 435 126 465 c 0
201 472 m 1
 192 440 222 426 255 426 c 0
 295 426 337 448 351 487 c 2
 355 503 l 1
 264 500 214 482 205 477 c 1
 201 472 l 1
EndSplineSet
EndChar
StartChar: ordmasculine.alt
Encoding: 65544 -1 411
Width: 444
Flags: MW
LayerCount: 2
Fore
SplineSet
79 304 m 0
 81 314 87 328 107 333 c 0
 112 334 117 335 124 335 c 2
 437 335 l 2
 449 335 459 333 466 328 c 4
 472 323 475 316 473 304 c 0
 472 297 468 288 458 281 c 0
 451 277 441 274 428 274 c 2
 123 274 l 2
 119 274 115 273 111 273 c 0
 78 273 78 296 79 304 c 0
129 561 m 0
 147 664 243 766 357 766 c 0
 469 766 532 666 513 561 c 0
 494 456 396 364 286 364 c 0
 280 364 273 364 267 365 c 0
 176 375 110 453 129 561 c 0
207 543 m 0
 205 516 209 493 218 475 c 0
 233 445 260 428 298 428 c 0
 322 428 355 437 383 463 c 0
 407 485 427 519 436 570 c 0
 444 614 436 648 419 671 c 0
 403 693 377 705 346 705 c 0
 319 705 285 695 257 667 c 0
 235 646 218 615 210 570 c 0
 208 561 208 552 207 543 c 0
EndSplineSet
EndChar
